STARTFONT 2.1
COMMENT
COMMENT Converted from OpenType font "NimbusSans-Regular.otf" by "otf2bdf 3.0".
COMMENT
FONT -FreeType-Nimbus Sans-Medium-R-Normal--19-140-100-100-P-103-ISO10646-1
SIZE 14 100 100
FONTBOUNDINGBOX 24 26 -4 -6
STARTPROPERTIES 19
FOUNDRY "FreeType"
FAMILY_NAME "Nimbus Sans"
WEIGHT_NAME "Medium"
SLANT "R"
SETWIDTH_NAME "Normal"
ADD_STYLE_NAME ""
PIXEL_SIZE 19
POINT_SIZE 140
RESOLUTION_X 100
RESOLUTION_Y 100
SPACING "P"
AVERAGE_WIDTH 103
CHARSET_REGISTRY "ISO10646"
CHARSET_ENCODING "1"
FONT_ASCENT 13
FONT_DESCENT 5
COPYRIGHT "(URW)++,Copyright 2014 by (URW)++ Design & Development"
_OTF_FONTFILE "NimbusSans-Regular.otf"
_OTF_PSNAME "NimbusSans-Regular"
ENDPROPERTIES
CHARS 854
STARTCHAR 0020
ENCODING 32
SWIDTH 257 0
DWIDTH 5 0
BBX 0 0 0 0
BITMAP
ENDCHAR
STARTCHAR 0021
ENCODING 33
SWIDTH 257 0
DWIDTH 5 0
BBX 2 14 2 0
BITMAP
C0
C0
C0
C0
C0
C0
C0
40
40
40
40
00
C0
C0
ENDCHAR
STARTCHAR 0022
ENCODING 34
SWIDTH 360 0
DWIDTH 7 0
BBX 5 5 1 9
BITMAP
D8
D8
D8
D8
80
ENDCHAR
STARTCHAR 0023
ENCODING 35
SWIDTH 565 0
DWIDTH 11 0
BBX 11 14 0 0
BITMAP
0880
0880
0880
1980
7FE0
1900
1100
1100
1300
FFC0
3300
2200
2200
2600
ENDCHAR
STARTCHAR 0024
ENCODING 36
SWIDTH 565 0
DWIDTH 11 0
BBX 9 17 1 -2
BITMAP
0800
3E00
7F00
C980
C980
C800
C800
7C00
1F00
0B80
0980
8880
C980
C980
7F00
0800
0800
ENDCHAR
STARTCHAR 0025
ENCODING 37
SWIDTH 874 0
DWIDTH 17 0
BBX 16 14 1 0
BITMAP
7830
CC20
8460
8440
8480
CC80
7900
0100
023E
0262
0443
0C63
0836
181C
ENDCHAR
STARTCHAR 0026
ENCODING 38
SWIDTH 668 0
DWIDTH 13 0
BBX 11 14 1 0
BITMAP
1E00
3300
2300
2300
3300
1E00
1C00
6C40
C6C0
C3C0
C180
C380
7FC0
3C60
ENDCHAR
STARTCHAR 0027
ENCODING 39
SWIDTH 205 0
DWIDTH 4 0
BBX 2 5 1 9
BITMAP
C0
C0
C0
C0
80
ENDCHAR
STARTCHAR 0028
ENCODING 40
SWIDTH 308 0
DWIDTH 6 0
BBX 4 18 1 -4
BITMAP
10
10
20
20
60
40
40
40
C0
C0
C0
40
40
60
60
20
30
10
ENDCHAR
STARTCHAR 0029
ENCODING 41
SWIDTH 308 0
DWIDTH 6 0
BBX 4 18 1 -4
BITMAP
80
40
40
60
20
20
30
30
30
30
30
30
30
20
20
40
40
80
ENDCHAR
STARTCHAR 002A
ENCODING 42
SWIDTH 411 0
DWIDTH 8 0
BBX 6 6 1 8
BITMAP
20
20
FC
30
58
40
ENDCHAR
STARTCHAR 002B
ENCODING 43
SWIDTH 565 0
DWIDTH 11 0
BBX 9 9 1 0
BITMAP
0800
0800
0800
0800
FF80
0800
0800
0800
0800
ENDCHAR
STARTCHAR 002C
ENCODING 44
SWIDTH 257 0
DWIDTH 5 0
BBX 2 5 2 -3
BITMAP
C0
C0
40
40
80
ENDCHAR
STARTCHAR 002D
ENCODING 45
SWIDTH 308 0
DWIDTH 6 0
BBX 5 1 1 5
BITMAP
F8
ENDCHAR
STARTCHAR 002E
ENCODING 46
SWIDTH 257 0
DWIDTH 5 0
BBX 2 2 2 0
BITMAP
C0
C0
ENDCHAR
STARTCHAR 002F
ENCODING 47
SWIDTH 257 0
DWIDTH 5 0
BBX 5 14 0 0
BITMAP
08
08
08
10
10
10
20
20
20
40
40
40
80
80
ENDCHAR
STARTCHAR 0030
ENCODING 48
SWIDTH 565 0
DWIDTH 11 0
BBX 9 14 1 0
BITMAP
3C00
7E00
4300
C100
C180
C180
C180
C180
C180
C180
C100
4300
7600
3C00
ENDCHAR
STARTCHAR 0031
ENCODING 49
SWIDTH 565 0
DWIDTH 11 0
BBX 5 14 2 0
BITMAP
18
18
78
F8
18
18
18
18
18
18
18
18
18
18
ENDCHAR
STARTCHAR 0032
ENCODING 50
SWIDTH 565 0
DWIDTH 11 0
BBX 9 14 1 0
BITMAP
3E00
7F00
C180
C180
C180
0180
0300
0E00
1C00
7000
6000
C000
FF80
FF80
ENDCHAR
STARTCHAR 0033
ENCODING 51
SWIDTH 565 0
DWIDTH 11 0
BBX 9 14 1 0
BITMAP
3E00
7F00
C300
C100
0100
0300
1E00
0300
0180
0180
8180
C100
7F00
3E00
ENDCHAR
STARTCHAR 0034
ENCODING 52
SWIDTH 565 0
DWIDTH 11 0
BBX 9 14 1 0
BITMAP
0600
0600
0E00
1E00
1600
2600
6600
C600
8600
FF80
FF80
0600
0600
0600
ENDCHAR
STARTCHAR 0035
ENCODING 53
SWIDTH 565 0
DWIDTH 11 0
BBX 9 14 1 0
BITMAP
7F00
7F00
4000
4000
C800
FE00
C300
0180
0180
0180
8180
C100
7F00
3C00
ENDCHAR
STARTCHAR 0036
ENCODING 54
SWIDTH 565 0
DWIDTH 11 0
BBX 9 14 1 0
BITMAP
1E00
7F00
6100
C000
C000
DE00
FF00
C180
C180
C180
C180
4180
7F00
3E00
ENDCHAR
STARTCHAR 0037
ENCODING 55
SWIDTH 565 0
DWIDTH 11 0
BBX 9 14 1 0
BITMAP
FF80
FF80
0100
0300
0200
0400
0C00
0800
1800
1800
1000
3000
3000
3000
ENDCHAR
STARTCHAR 0038
ENCODING 56
SWIDTH 565 0
DWIDTH 11 0
BBX 9 14 1 0
BITMAP
3E00
7F00
C300
C100
C100
7700
3E00
E300
C180
8180
C180
C180
7F00
3E00
ENDCHAR
STARTCHAR 0039
ENCODING 57
SWIDTH 565 0
DWIDTH 11 0
BBX 9 14 1 0
BITMAP
3C00
7F00
C300
C180
8180
C180
C380
7F80
3D80
0180
0100
C300
7E00
3C00
ENDCHAR
STARTCHAR 003A
ENCODING 58
SWIDTH 257 0
DWIDTH 5 0
BBX 2 10 2 0
BITMAP
C0
C0
00
00
00
00
00
00
C0
C0
ENDCHAR
STARTCHAR 003B
ENCODING 59
SWIDTH 257 0
DWIDTH 5 0
BBX 2 13 2 -3
BITMAP
C0
C0
00
00
00
00
00
00
C0
C0
40
40
80
ENDCHAR
STARTCHAR 003C
ENCODING 60
SWIDTH 565 0
DWIDTH 11 0
BBX 9 9 1 0
BITMAP
0180
0780
1C00
F000
C000
7800
1E00
0380
0080
ENDCHAR
STARTCHAR 003D
ENCODING 61
SWIDTH 565 0
DWIDTH 11 0
BBX 9 5 1 2
BITMAP
FF80
0000
0000
0000
FF80
ENDCHAR
STARTCHAR 003E
ENCODING 62
SWIDTH 565 0
DWIDTH 11 0
BBX 9 9 1 0
BITMAP
C000
7000
1E00
0380
0180
0700
3C00
F000
8000
ENDCHAR
STARTCHAR 003F
ENCODING 63
SWIDTH 565 0
DWIDTH 11 0
BBX 8 14 2 0
BITMAP
7C
FE
C3
83
03
06
0C
18
18
10
00
00
10
10
ENDCHAR
STARTCHAR 0040
ENCODING 64
SWIDTH 1028 0
DWIDTH 20 0
BBX 17 17 1 -3
BITMAP
03F000
0FFC00
180700
300300
61ED80
C32980
C61880
8C1880
8C1080
8C3180
CC3100
C67700
439C00
600000
380000
1F7800
07F000
ENDCHAR
STARTCHAR 0041
ENCODING 65
SWIDTH 668 0
DWIDTH 13 0
BBX 12 14 1 0
BITMAP
0E00
0E00
1B00
1B00
1B00
3180
3180
3180
7FC0
7FC0
60C0
C060
C060
8070
ENDCHAR
STARTCHAR 0042
ENCODING 66
SWIDTH 668 0
DWIDTH 13 0
BBX 10 14 2 0
BITMAP
FF00
FF80
8180
8080
8080
8180
FF00
FF80
80C0
80C0
80C0
80C0
FF80
FF00
ENDCHAR
STARTCHAR 0043
ENCODING 67
SWIDTH 720 0
DWIDTH 14 0
BBX 12 14 1 0
BITMAP
0F80
3FC0
6060
6030
C000
C000
C000
C000
C000
C030
6030
7060
3FE0
0F80
ENDCHAR
STARTCHAR 0044
ENCODING 68
SWIDTH 720 0
DWIDTH 14 0
BBX 11 14 2 0
BITMAP
FF00
FF80
C0C0
C0C0
C060
C060
C060
C060
C060
C060
C0C0
C0C0
FF80
FF00
ENDCHAR
STARTCHAR 0045
ENCODING 69
SWIDTH 668 0
DWIDTH 13 0
BBX 10 14 2 0
BITMAP
FFC0
FFC0
C000
C000
C000
C000
FF80
FF80
C000
C000
C000
C000
FFC0
FFC0
ENDCHAR
STARTCHAR 0046
ENCODING 70
SWIDTH 617 0
DWIDTH 12 0
BBX 9 14 2 0
BITMAP
FF80
FF80
C000
C000
C000
C000
FF00
FF00
C000
C000
C000
C000
C000
C000
ENDCHAR
STARTCHAR 0047
ENCODING 71
SWIDTH 771 0
DWIDTH 15 0
BBX 13 14 1 0
BITMAP
0F80
3FE0
7030
6030
C000
C000
C1F8
C1F8
C018
C018
6018
7038
3FD8
0F88
ENDCHAR
STARTCHAR 0048
ENCODING 72
SWIDTH 720 0
DWIDTH 14 0
BBX 11 14 2 0
BITMAP
8060
8060
8060
8060
8060
8060
FFE0
FFE0
8060
8060
8060
8060
8060
8060
ENDCHAR
STARTCHAR 0049
ENCODING 73
SWIDTH 257 0
DWIDTH 5 0
BBX 2 14 2 0
BITMAP
C0
C0
C0
C0
C0
C0
C0
C0
C0
C0
C0
C0
C0
C0
ENDCHAR
STARTCHAR 004A
ENCODING 74
SWIDTH 514 0
DWIDTH 10 0
BBX 8 14 0 0
BITMAP
03
03
03
03
03
03
03
03
03
C3
C3
C3
7F
3C
ENDCHAR
STARTCHAR 004B
ENCODING 75
SWIDTH 668 0
DWIDTH 13 0
BBX 10 14 2 0
BITMAP
80C0
8180
8300
8600
8C00
9800
BC00
EC00
C600
8300
8300
8180
80C0
80C0
ENDCHAR
STARTCHAR 004C
ENCODING 76
SWIDTH 565 0
DWIDTH 11 0
BBX 8 14 2 0
BITMAP
80
80
80
80
80
80
80
80
80
80
80
80
FF
FF
ENDCHAR
STARTCHAR 004D
ENCODING 77
SWIDTH 822 0
DWIDTH 16 0
BBX 14 14 1 0
BITMAP
E01C
E01C
F03C
D03C
D82C
D86C
C86C
CC4C
CCCC
C4CC
C68C
C78C
C38C
C30C
ENDCHAR
STARTCHAR 004E
ENCODING 78
SWIDTH 720 0
DWIDTH 14 0
BBX 12 14 1 0
BITMAP
E030
E030
F030
D830
D830
CC30
C630
C630
C330
C1B0
C1B0
C0F0
C070
C070
ENDCHAR
STARTCHAR 004F
ENCODING 79
SWIDTH 771 0
DWIDTH 15 0
BBX 13 14 1 0
BITMAP
0F80
3FE0
7030
6018
C018
C018
C008
C008
C018
C018
6018
7030
3FE0
0F80
ENDCHAR
STARTCHAR 0050
ENCODING 80
SWIDTH 668 0
DWIDTH 13 0
BBX 10 14 2 0
BITMAP
FF00
FF80
C0C0
C0C0
C0C0
C0C0
FF80
FF00
C000
C000
C000
C000
C000
C000
ENDCHAR
STARTCHAR 0051
ENCODING 81
SWIDTH 771 0
DWIDTH 15 0
BBX 13 14 1 -1
BITMAP
0F80
3FE0
7030
6018
C018
C018
C008
C008
C018
C018
6098
70F0
3FF0
0F98
ENDCHAR
STARTCHAR 0052
ENCODING 82
SWIDTH 720 0
DWIDTH 14 0
BBX 11 14 2 0
BITMAP
FF80
FFC0
C0C0
C060
C060
C0C0
FF80
FF80
C0C0
C040
C040
C040
C040
C060
ENDCHAR
STARTCHAR 0053
ENCODING 83
SWIDTH 668 0
DWIDTH 13 0
BBX 11 14 1 0
BITMAP
1F00
7FC0
60C0
C060
C000
7000
3F00
07C0
00E0
C060
C060
E060
7FC0
1F00
ENDCHAR
STARTCHAR 0054
ENCODING 84
SWIDTH 617 0
DWIDTH 12 0
BBX 12 14 0 0
BITMAP
FFF0
FFF0
0600
0600
0600
0600
0600
0600
0600
0600
0600
0600
0600
0600
ENDCHAR
STARTCHAR 0055
ENCODING 85
SWIDTH 720 0
DWIDTH 14 0
BBX 11 14 2 0
BITMAP
8060
8060
8060
8060
8060
8060
8060
8060
8060
8060
C040
C0C0
7F80
3F00
ENDCHAR
STARTCHAR 0056
ENCODING 86
SWIDTH 668 0
DWIDTH 13 0
BBX 11 14 1 0
BITMAP
C060
C060
C060
60C0
60C0
20C0
3180
3180
1180
1B00
1B00
0E00
0E00
0E00
ENDCHAR
STARTCHAR 0057
ENCODING 87
SWIDTH 925 0
DWIDTH 18 0
BBX 17 14 1 0
BITMAP
C18180
C1C180
C1C300
C3C300
434300
626300
666200
662600
263600
343600
3C3400
3C1C00
181C00
181C00
ENDCHAR
STARTCHAR 0058
ENCODING 88
SWIDTH 668 0
DWIDTH 13 0
BBX 11 14 1 0
BITMAP
C060
60C0
70C0
3180
1B00
0F00
0E00
0E00
1B00
1B00
3180
60C0
E0E0
C060
ENDCHAR
STARTCHAR 0059
ENCODING 89
SWIDTH 668 0
DWIDTH 13 0
BBX 12 14 1 0
BITMAP
C070
C060
60C0
70C0
3180
1B00
1B00
0E00
0600
0600
0600
0600
0600
0600
ENDCHAR
STARTCHAR 005A
ENCODING 90
SWIDTH 617 0
DWIDTH 12 0
BBX 10 14 1 0
BITMAP
FFC0
FFC0
01C0
0180
0300
0600
0C00
1C00
1800
3000
6000
E000
FFC0
FFC0
ENDCHAR
STARTCHAR 005B
ENCODING 91
SWIDTH 257 0
DWIDTH 5 0
BBX 4 18 1 -4
BITMAP
F0
C0
C0
C0
C0
C0
C0
C0
C0
C0
C0
C0
C0
C0
C0
C0
C0
F0
ENDCHAR
STARTCHAR 005C
ENCODING 92
SWIDTH 257 0
DWIDTH 5 0
BBX 5 14 0 0
BITMAP
80
80
40
40
40
20
20
20
10
10
10
08
08
08
ENDCHAR
STARTCHAR 005D
ENCODING 93
SWIDTH 257 0
DWIDTH 5 0
BBX 4 18 0 -4
BITMAP
F0
30
30
30
30
30
30
30
30
30
30
30
30
30
30
30
30
F0
ENDCHAR
STARTCHAR 005E
ENCODING 94
SWIDTH 462 0
DWIDTH 9 0
BBX 7 8 1 6
BITMAP
10
38
28
2C
44
44
C6
82
ENDCHAR
STARTCHAR 005F
ENCODING 95
SWIDTH 565 0
DWIDTH 11 0
BBX 11 1 0 -3
BITMAP
FFE0
ENDCHAR
STARTCHAR 0060
ENCODING 96
SWIDTH 308 0
DWIDTH 6 0
BBX 3 3 1 11
BITMAP
C0
60
20
ENDCHAR
STARTCHAR 0061
ENCODING 97
SWIDTH 565 0
DWIDTH 11 0
BBX 9 10 1 0
BITMAP
3E00
7F00
C300
0100
1F00
F100
C100
C300
EF00
7980
ENDCHAR
STARTCHAR 0062
ENCODING 98
SWIDTH 565 0
DWIDTH 11 0
BBX 9 14 1 0
BITMAP
C000
C000
C000
C000
DE00
FF00
C180
C180
C180
C180
C180
C180
FF00
DE00
ENDCHAR
STARTCHAR 0063
ENCODING 99
SWIDTH 514 0
DWIDTH 10 0
BBX 8 10 1 0
BITMAP
3C
7E
C3
80
80
80
81
C3
7E
3C
ENDCHAR
STARTCHAR 0064
ENCODING 100
SWIDTH 565 0
DWIDTH 11 0
BBX 9 14 1 0
BITMAP
0180
0180
0180
0180
3D80
7F80
C380
8180
8180
8180
8180
C380
7F80
3D80
ENDCHAR
STARTCHAR 0065
ENCODING 101
SWIDTH 565 0
DWIDTH 11 0
BBX 9 10 1 0
BITMAP
3E00
7F00
C180
C180
FF80
8000
C000
C100
7700
3E00
ENDCHAR
STARTCHAR 0066
ENCODING 102
SWIDTH 257 0
DWIDTH 5 0
BBX 5 14 0 0
BITMAP
38
30
20
20
F8
20
20
20
20
20
20
20
20
20
ENDCHAR
STARTCHAR 0067
ENCODING 103
SWIDTH 565 0
DWIDTH 11 0
BBX 8 14 1 -4
BITMAP
3D
7F
C3
C3
81
81
C1
C3
7D
39
01
C3
66
3C
ENDCHAR
STARTCHAR 0068
ENCODING 104
SWIDTH 565 0
DWIDTH 11 0
BBX 8 14 1 0
BITMAP
C0
C0
C0
C0
DE
F7
E1
C1
C1
C1
C1
C1
C1
C1
ENDCHAR
STARTCHAR 0069
ENCODING 105
SWIDTH 205 0
DWIDTH 4 0
BBX 2 14 1 0
BITMAP
C0
C0
00
00
C0
C0
C0
C0
C0
C0
C0
C0
C0
C0
ENDCHAR
STARTCHAR 006A
ENCODING 106
SWIDTH 205 0
DWIDTH 4 0
BBX 3 18 0 -4
BITMAP
60
60
00
00
60
60
60
60
60
60
60
60
60
60
60
60
60
E0
ENDCHAR
STARTCHAR 006B
ENCODING 107
SWIDTH 514 0
DWIDTH 10 0
BBX 8 14 1 0
BITMAP
C0
C0
C0
C0
C3
C6
CC
F8
F8
CC
C6
C6
C3
C3
ENDCHAR
STARTCHAR 006C
ENCODING 108
SWIDTH 205 0
DWIDTH 4 0
BBX 2 14 1 0
BITMAP
C0
C0
C0
C0
C0
C0
C0
C0
C0
C0
C0
C0
C0
C0
ENDCHAR
STARTCHAR 006D
ENCODING 109
SWIDTH 822 0
DWIDTH 16 0
BBX 14 10 1 0
BITMAP
DE78
F7DC
C30C
C30C
C30C
C30C
C30C
C30C
C30C
C30C
ENDCHAR
STARTCHAR 006E
ENCODING 110
SWIDTH 565 0
DWIDTH 11 0
BBX 8 10 1 0
BITMAP
DE
F7
E1
C1
C1
C1
C1
C1
C1
C1
ENDCHAR
STARTCHAR 006F
ENCODING 111
SWIDTH 565 0
DWIDTH 11 0
BBX 9 10 1 0
BITMAP
3E00
7F00
C300
C180
8180
8180
C180
C100
7F00
3E00
ENDCHAR
STARTCHAR 0070
ENCODING 112
SWIDTH 565 0
DWIDTH 11 0
BBX 9 14 1 -4
BITMAP
FE00
FF00
C180
C180
C180
C180
C180
C180
FF00
DE00
C000
C000
C000
C000
ENDCHAR
STARTCHAR 0071
ENCODING 113
SWIDTH 565 0
DWIDTH 11 0
BBX 9 14 1 -4
BITMAP
3D80
7F80
C380
8180
8180
8180
8180
C380
7F80
3D80
0180
0180
0180
0180
ENDCHAR
STARTCHAR 0072
ENCODING 114
SWIDTH 308 0
DWIDTH 6 0
BBX 5 10 1 0
BITMAP
D8
F0
E0
C0
C0
C0
C0
C0
C0
C0
ENDCHAR
STARTCHAR 0073
ENCODING 115
SWIDTH 514 0
DWIDTH 10 0
BBX 8 10 1 0
BITMAP
7C
FE
C2
C0
78
1E
03
C3
FE
7C
ENDCHAR
STARTCHAR 0074
ENCODING 116
SWIDTH 257 0
DWIDTH 5 0
BBX 5 13 0 0
BITMAP
20
20
20
F8
20
20
20
20
20
20
20
30
38
ENDCHAR
STARTCHAR 0075
ENCODING 117
SWIDTH 565 0
DWIDTH 11 0
BBX 8 10 1 0
BITMAP
C1
C1
C1
C1
C1
C1
C1
C3
67
7D
ENDCHAR
STARTCHAR 0076
ENCODING 118
SWIDTH 514 0
DWIDTH 10 0
BBX 9 10 0 0
BITMAP
C180
6180
6100
6300
3300
3200
1600
1E00
1C00
0C00
ENDCHAR
STARTCHAR 0077
ENCODING 119
SWIDTH 720 0
DWIDTH 14 0
BBX 14 10 0 0
BITMAP
C30C
4308
6798
6798
6590
2490
3CF0
3CF0
1860
1860
ENDCHAR
STARTCHAR 0078
ENCODING 120
SWIDTH 514 0
DWIDTH 10 0
BBX 8 10 1 0
BITMAP
C3
46
64
3C
18
18
3C
64
C6
C3
ENDCHAR
STARTCHAR 0079
ENCODING 121
SWIDTH 514 0
DWIDTH 10 0
BBX 8 14 1 -4
BITMAP
83
C3
C2
46
66
64
2C
38
38
18
10
30
E0
E0
ENDCHAR
STARTCHAR 007A
ENCODING 122
SWIDTH 514 0
DWIDTH 10 0
BBX 8 10 1 0
BITMAP
FF
03
06
0C
18
30
60
C0
C0
FF
ENDCHAR
STARTCHAR 007B
ENCODING 123
SWIDTH 308 0
DWIDTH 6 0
BBX 4 18 1 -4
BITMAP
30
60
60
60
60
60
60
60
C0
C0
60
60
60
60
60
60
60
30
ENDCHAR
STARTCHAR 007C
ENCODING 124
SWIDTH 257 0
DWIDTH 5 0
BBX 1 18 2 -4
BITMAP
80
80
80
80
80
80
80
80
80
80
80
80
80
80
80
80
80
80
ENDCHAR
STARTCHAR 007D
ENCODING 125
SWIDTH 308 0
DWIDTH 6 0
BBX 4 18 1 -4
BITMAP
C0
40
60
60
60
60
60
60
30
30
60
60
60
60
60
60
60
C0
ENDCHAR
STARTCHAR 007E
ENCODING 126
SWIDTH 565 0
DWIDTH 11 0
BBX 9 3 1 5
BITMAP
7080
4D80
8700
ENDCHAR
STARTCHAR 00A0
ENCODING 160
SWIDTH 257 0
DWIDTH 5 0
BBX 0 0 0 0
BITMAP
ENDCHAR
STARTCHAR 00A1
ENCODING 161
SWIDTH 308 0
DWIDTH 6 0
BBX 2 14 2 -4
BITMAP
C0
C0
00
40
40
40
C0
C0
C0
C0
C0
C0
C0
C0
ENDCHAR
STARTCHAR 00A2
ENCODING 162
SWIDTH 565 0
DWIDTH 11 0
BBX 9 14 1 -2
BITMAP
0800
0800
3F00
6B00
C980
C800
C800
C800
C800
C980
6B00
3F00
0800
0800
ENDCHAR
STARTCHAR 00A3
ENCODING 163
SWIDTH 565 0
DWIDTH 11 0
BBX 9 14 1 0
BITMAP
3E00
7F00
C180
C180
C180
C000
6000
FC00
3000
3000
2000
4000
FF80
8780
ENDCHAR
STARTCHAR 00A4
ENCODING 164
SWIDTH 565 0
DWIDTH 11 0
BBX 8 8 1 3
BITMAP
FF
7F
63
43
63
77
FF
40
ENDCHAR
STARTCHAR 00A5
ENCODING 165
SWIDTH 565 0
DWIDTH 11 0
BBX 10 14 0 0
BITMAP
C040
60C0
2080
3180
1300
1B00
0E00
7FC0
0400
0400
7FC0
0400
0400
0400
ENDCHAR
STARTCHAR 00A6
ENCODING 166
SWIDTH 257 0
DWIDTH 5 0
BBX 1 18 2 -4
BITMAP
80
80
80
80
80
80
80
80
00
00
80
80
80
80
80
80
80
80
ENDCHAR
STARTCHAR 00A7
ENCODING 167
SWIDTH 565 0
DWIDTH 11 0
BBX 9 18 1 -4
BITMAP
1E00
3F00
6300
6300
7000
7800
CE00
8700
C180
E180
7180
3900
0E00
0600
4300
4300
7E00
3C00
ENDCHAR
STARTCHAR 00A8
ENCODING 168
SWIDTH 308 0
DWIDTH 6 0
BBX 5 2 1 12
BITMAP
D8
D8
ENDCHAR
STARTCHAR 00A9
ENCODING 169
SWIDTH 720 0
DWIDTH 14 0
BBX 15 14 0 0
BITMAP
0FC0
1870
6018
478C
CC44
8864
8806
8806
8864
CC44
478C
2018
1870
0FC0
ENDCHAR
STARTCHAR 00AA
ENCODING 170
SWIDTH 360 0
DWIDTH 7 0
BBX 5 8 1 6
BITMAP
70
88
18
E8
98
E8
00
F8
ENDCHAR
STARTCHAR 00AB
ENCODING 171
SWIDTH 565 0
DWIDTH 11 0
BBX 7 6 2 3
BITMAP
22
CC
88
CC
66
22
ENDCHAR
STARTCHAR 00AC
ENCODING 172
SWIDTH 565 0
DWIDTH 11 0
BBX 10 5 1 2
BITMAP
FFC0
00C0
00C0
00C0
00C0
ENDCHAR
STARTCHAR 00AD
ENCODING 173
SWIDTH 308 0
DWIDTH 6 0
BBX 5 1 1 5
BITMAP
F8
ENDCHAR
STARTCHAR 00AE
ENCODING 174
SWIDTH 720 0
DWIDTH 14 0
BBX 15 14 0 0
BITMAP
0FC0
1870
6018
4FCC
C864
8864
8846
8FC6
8844
C844
486C
6018
3870
0FC0
ENDCHAR
STARTCHAR 00AF
ENCODING 175
SWIDTH 308 0
DWIDTH 6 0
BBX 5 1 1 12
BITMAP
F8
ENDCHAR
STARTCHAR 00B0
ENCODING 176
SWIDTH 411 0
DWIDTH 8 0
BBX 6 6 1 7
BITMAP
78
C8
84
84
C8
70
ENDCHAR
STARTCHAR 00B1
ENCODING 177
SWIDTH 565 0
DWIDTH 11 0
BBX 9 12 1 0
BITMAP
0800
0800
0800
0800
FF80
0800
0800
0800
0800
0000
0000
FF80
ENDCHAR
STARTCHAR 00B2
ENCODING 178
SWIDTH 308 0
DWIDTH 6 0
BBX 6 8 0 6
BITMAP
78
44
C4
0C
18
60
C0
FC
ENDCHAR
STARTCHAR 00B3
ENCODING 179
SWIDTH 308 0
DWIDTH 6 0
BBX 6 9 0 5
BITMAP
78
4C
C4
0C
38
04
84
CC
78
ENDCHAR
STARTCHAR 00B4
ENCODING 180
SWIDTH 308 0
DWIDTH 6 0
BBX 3 3 2 11
BITMAP
60
40
80
ENDCHAR
STARTCHAR 00B5
ENCODING 181
SWIDTH 565 0
DWIDTH 11 0
BBX 10 14 1 -4
BITMAP
C100
C100
C100
C100
C100
C100
C100
C300
E780
FDC0
C000
C000
C000
C000
ENDCHAR
STARTCHAR 00B6
ENCODING 182
SWIDTH 514 0
DWIDTH 10 0
BBX 9 18 1 -4
BITMAP
3F80
7900
F900
F900
F900
F900
F900
7900
3900
0900
0900
0900
0900
0900
0900
0900
0900
0900
ENDCHAR
STARTCHAR 00B7
ENCODING 183
SWIDTH 257 0
DWIDTH 5 0
BBX 2 2 2 4
BITMAP
C0
C0
ENDCHAR
STARTCHAR 00B8
ENCODING 184
SWIDTH 308 0
DWIDTH 6 0
BBX 5 4 1 -4
BITMAP
20
30
18
F0
ENDCHAR
STARTCHAR 00B9
ENCODING 185
SWIDTH 308 0
DWIDTH 6 0
BBX 3 8 1 6
BITMAP
20
20
E0
20
20
20
20
20
ENDCHAR
STARTCHAR 00BA
ENCODING 186
SWIDTH 360 0
DWIDTH 7 0
BBX 5 8 1 6
BITMAP
70
88
88
88
88
70
00
F8
ENDCHAR
STARTCHAR 00BB
ENCODING 187
SWIDTH 565 0
DWIDTH 11 0
BBX 7 5 2 3
BITMAP
88
CC
22
66
CC
ENDCHAR
STARTCHAR 00BC
ENCODING 188
SWIDTH 822 0
DWIDTH 16 0
BBX 15 14 1 0
BITMAP
2010
6020
E040
6040
6080
6180
610C
621C
023C
042C
084C
087E
100C
200C
ENDCHAR
STARTCHAR 00BD
ENCODING 189
SWIDTH 822 0
DWIDTH 16 0
BBX 16 15 0 0
BITMAP
1010
3010
F020
3020
3040
3080
309E
3132
3323
0203
0406
0418
0830
183F
103F
ENDCHAR
STARTCHAR 00BE
ENCODING 190
SWIDTH 822 0
DWIDTH 16 0
BBX 16 14 0 0
BITMAP
3808
4418
4410
1C20
0420
C444
4484
788C
0114
0314
0224
043F
0404
0804
ENDCHAR
STARTCHAR 00BF
ENCODING 191
SWIDTH 617 0
DWIDTH 12 0
BBX 8 14 2 -4
BITMAP
18
18
00
00
18
18
38
70
C0
C0
C1
C3
7E
3C
ENDCHAR
STARTCHAR 00C0
ENCODING 192
SWIDTH 668 0
DWIDTH 13 0
BBX 12 18 1 0
BITMAP
1800
0C00
0600
0000
0E00
0E00
1B00
1B00
1B00
3180
3180
3180
7FC0
7FC0
60C0
C060
C060
8070
ENDCHAR
STARTCHAR 00C1
ENCODING 193
SWIDTH 668 0
DWIDTH 13 0
BBX 12 18 1 0
BITMAP
0300
0600
0400
0000
0E00
0E00
1B00
1B00
1B00
3180
3180
3180
7FC0
7FC0
60C0
C060
C060
8070
ENDCHAR
STARTCHAR 00C2
ENCODING 194
SWIDTH 668 0
DWIDTH 13 0
BBX 12 18 1 0
BITMAP
0E00
0A00
1100
0000
0E00
0E00
1B00
1B00
1B00
3180
3180
3180
7FC0
7FC0
60C0
C060
C060
8070
ENDCHAR
STARTCHAR 00C3
ENCODING 195
SWIDTH 668 0
DWIDTH 13 0
BBX 12 17 1 0
BITMAP
1F00
3000
0000
0E00
0E00
1B00
1B00
1B00
3180
3180
3180
7FC0
7FC0
60C0
C060
C060
8070
ENDCHAR
STARTCHAR 00C4
ENCODING 196
SWIDTH 668 0
DWIDTH 13 0
BBX 12 18 1 0
BITMAP
1B00
1B00
0000
0000
0E00
0E00
1B00
1B00
1B00
3180
3180
3180
7FC0
7FC0
60C0
C060
C060
8070
ENDCHAR
STARTCHAR 00C5
ENCODING 197
SWIDTH 668 0
DWIDTH 13 0
BBX 12 18 1 0
BITMAP
0E00
0A00
0E00
0000
0E00
0E00
1B00
1B00
1B00
3180
3180
3180
7FC0
7FC0
60C0
C060
C060
8070
ENDCHAR
STARTCHAR 00C6
ENCODING 198
SWIDTH 977 0
DWIDTH 19 0
BBX 18 14 0 0
BITMAP
03FFC0
07FFC0
066000
046000
0C6000
0C6000
187FC0
187FC0
3FE000
3FE000
306000
606000
607FC0
C07FC0
ENDCHAR
STARTCHAR 00C7
ENCODING 199
SWIDTH 720 0
DWIDTH 14 0
BBX 12 18 1 -4
BITMAP
0F80
3FC0
7060
6030
C030
C000
C000
C000
C000
C030
C030
6070
30E0
1FC0
0600
0700
0100
0F00
ENDCHAR
STARTCHAR 00C8
ENCODING 200
SWIDTH 668 0
DWIDTH 13 0
BBX 10 18 2 0
BITMAP
1800
0800
0400
0000
FFC0
FFC0
C000
C000
C000
C000
FF80
FF80
C000
C000
C000
C000
FFC0
FFC0
ENDCHAR
STARTCHAR 00C9
ENCODING 201
SWIDTH 668 0
DWIDTH 13 0
BBX 10 18 2 0
BITMAP
0600
0C00
1800
0000
FFC0
FFC0
C000
C000
C000
C000
FF80
FF80
C000
C000
C000
C000
FFC0
FFC0
ENDCHAR
STARTCHAR 00CA
ENCODING 202
SWIDTH 668 0
DWIDTH 13 0
BBX 10 18 2 0
BITMAP
1C00
1600
2200
0000
FFC0
FFC0
C000
C000
C000
C000
FF80
FF80
C000
C000
C000
C000
FFC0
FFC0
ENDCHAR
STARTCHAR 00CB
ENCODING 203
SWIDTH 668 0
DWIDTH 13 0
BBX 10 18 2 0
BITMAP
3600
3600
0000
0000
FFC0
FFC0
C000
C000
C000
C000
FF80
FF80
C000
C000
C000
C000
FFC0
FFC0
ENDCHAR
STARTCHAR 00CC
ENCODING 204
SWIDTH 257 0
DWIDTH 5 0
BBX 3 18 1 0
BITMAP
C0
40
20
00
60
60
60
60
60
60
60
60
60
60
60
60
60
60
ENDCHAR
STARTCHAR 00CD
ENCODING 205
SWIDTH 257 0
DWIDTH 5 0
BBX 3 18 2 0
BITMAP
60
C0
80
00
C0
C0
C0
C0
C0
C0
C0
C0
C0
C0
C0
C0
C0
C0
ENDCHAR
STARTCHAR 00CE
ENCODING 206
SWIDTH 257 0
DWIDTH 5 0
BBX 5 18 0 0
BITMAP
70
58
88
00
30
30
30
30
30
30
30
30
30
30
30
30
30
30
ENDCHAR
STARTCHAR 00CF
ENCODING 207
SWIDTH 257 0
DWIDTH 5 0
BBX 5 17 0 0
BITMAP
D8
D8
00
30
30
30
30
30
30
30
30
30
30
30
30
30
30
ENDCHAR
STARTCHAR 00D0
ENCODING 208
SWIDTH 720 0
DWIDTH 14 0
BBX 13 14 0 0
BITMAP
3FC0
3FE0
3030
3030
3018
3018
FE18
3018
3018
3018
3030
3030
3FE0
3FC0
ENDCHAR
STARTCHAR 00D1
ENCODING 209
SWIDTH 720 0
DWIDTH 14 0
BBX 12 17 1 0
BITMAP
1F80
1000
0000
E030
E030
F030
D830
D830
CC30
C630
C630
C330
C1B0
C1B0
C0F0
C070
C070
ENDCHAR
STARTCHAR 00D2
ENCODING 210
SWIDTH 771 0
DWIDTH 15 0
BBX 13 18 1 0
BITMAP
0C00
0600
0200
0000
0F80
3FE0
7030
6018
C018
C018
C008
C008
C018
C018
6018
7030
3FE0
0F80
ENDCHAR
STARTCHAR 00D3
ENCODING 211
SWIDTH 771 0
DWIDTH 15 0
BBX 13 18 1 0
BITMAP
0180
0300
0200
0000
0F80
3FE0
7030
6018
C018
C018
C008
C008
C018
C018
6018
7030
3FE0
0F80
ENDCHAR
STARTCHAR 00D4
ENCODING 212
SWIDTH 771 0
DWIDTH 15 0
BBX 13 18 1 0
BITMAP
0700
0500
0880
0000
0F80
3FE0
7030
6018
C018
C018
C008
C008
C018
C018
6018
7030
3FE0
0F80
ENDCHAR
STARTCHAR 00D5
ENCODING 213
SWIDTH 771 0
DWIDTH 15 0
BBX 13 17 1 0
BITMAP
0FC0
0800
0000
0F80
3FE0
7030
6018
C018
C018
C008
C008
C018
C018
6018
7030
3FE0
0F80
ENDCHAR
STARTCHAR 00D6
ENCODING 214
SWIDTH 771 0
DWIDTH 15 0
BBX 13 17 1 0
BITMAP
0D80
0D80
0000
0F80
3FE0
7030
6018
C018
C018
C008
C008
C018
C018
6018
7030
3FE0
0F80
ENDCHAR
STARTCHAR 00D7
ENCODING 215
SWIDTH 565 0
DWIDTH 11 0
BBX 7 7 2 1
BITMAP
C2
66
3C
18
3C
66
C2
ENDCHAR
STARTCHAR 00D8
ENCODING 216
SWIDTH 771 0
DWIDTH 15 0
BBX 13 14 1 0
BITMAP
0F88
3FF0
7030
E078
C0D8
C198
C308
C608
CC18
D818
F018
7030
FFE0
8F80
ENDCHAR
STARTCHAR 00D9
ENCODING 217
SWIDTH 720 0
DWIDTH 14 0
BBX 11 18 2 0
BITMAP
1800
0800
0400
0000
8060
8060
8060
8060
8060
8060
8060
8060
8060
8060
C040
C0C0
7F80
3F00
ENDCHAR
STARTCHAR 00DA
ENCODING 218
SWIDTH 720 0
DWIDTH 14 0
BBX 11 18 2 0
BITMAP
0600
0C00
0800
0000
8060
8060
8060
8060
8060
8060
8060
8060
8060
8060
C040
C0C0
7F80
3F00
ENDCHAR
STARTCHAR 00DB
ENCODING 219
SWIDTH 720 0
DWIDTH 14 0
BBX 11 18 2 0
BITMAP
0C00
1A00
1300
0000
8060
8060
8060
8060
8060
8060
8060
8060
8060
8060
C040
C0C0
7F80
3F00
ENDCHAR
STARTCHAR 00DC
ENCODING 220
SWIDTH 720 0
DWIDTH 14 0
BBX 11 18 2 0
BITMAP
3B00
3B00
0000
0000
8060
8060
8060
8060
8060
8060
8060
8060
8060
8060
C040
C0C0
7F80
3F00
ENDCHAR
STARTCHAR 00DD
ENCODING 221
SWIDTH 668 0
DWIDTH 13 0
BBX 12 18 1 0
BITMAP
0300
0600
0C00
0000
C070
C060
60C0
70C0
3180
1B00
1B00
0E00
0600
0600
0600
0600
0600
0600
ENDCHAR
STARTCHAR 00DE
ENCODING 222
SWIDTH 668 0
DWIDTH 13 0
BBX 10 14 2 0
BITMAP
C000
C000
FE00
FF80
C1C0
C0C0
C0C0
C0C0
C1C0
FF80
FE00
C000
C000
C000
ENDCHAR
STARTCHAR 00DF
ENCODING 223
SWIDTH 617 0
DWIDTH 12 0
BBX 10 14 1 0
BITMAP
3E00
7F00
C180
C180
C180
C300
CF00
C180
C0C0
C0C0
C0C0
C180
CF80
CE00
ENDCHAR
STARTCHAR 00E0
ENCODING 224
SWIDTH 565 0
DWIDTH 11 0
BBX 9 14 1 0
BITMAP
3000
1800
0800
0000
3E00
7F00
C300
0100
1F00
F100
C100
C300
EF00
7980
ENDCHAR
STARTCHAR 00E1
ENCODING 225
SWIDTH 565 0
DWIDTH 11 0
BBX 9 14 1 0
BITMAP
0600
0C00
1800
0000
3E00
7F00
C300
0100
1F00
F100
C100
C300
EF00
7980
ENDCHAR
STARTCHAR 00E2
ENCODING 226
SWIDTH 565 0
DWIDTH 11 0
BBX 9 14 1 0
BITMAP
1C00
3400
2200
0000
3E00
7F00
C300
0100
1F00
F100
C100
C300
EF00
7980
ENDCHAR
STARTCHAR 00E3
ENCODING 227
SWIDTH 565 0
DWIDTH 11 0
BBX 9 14 1 0
BITMAP
3A00
6E00
0000
0000
3E00
7F00
C300
0100
1F00
F100
C100
C300
EF00
7980
ENDCHAR
STARTCHAR 00E4
ENCODING 228
SWIDTH 565 0
DWIDTH 11 0
BBX 9 14 1 0
BITMAP
3600
3600
0000
0000
3E00
7F00
C300
0100
1F00
F100
C100
C300
EF00
7980
ENDCHAR
STARTCHAR 00E5
ENCODING 229
SWIDTH 565 0
DWIDTH 11 0
BBX 9 14 1 0
BITMAP
1C00
2400
1C00
0000
3E00
7F00
C300
0100
1F00
F100
C100
C300
EF00
7980
ENDCHAR
STARTCHAR 00E6
ENCODING 230
SWIDTH 874 0
DWIDTH 17 0
BBX 15 10 1 0
BITMAP
3C78
7FFC
C386
0302
3FFE
E300
8300
8386
EDFC
7878
ENDCHAR
STARTCHAR 00E7
ENCODING 231
SWIDTH 514 0
DWIDTH 10 0
BBX 8 14 1 -4
BITMAP
3C
7E
C3
C1
80
80
80
C3
E3
7E
10
1C
0C
78
ENDCHAR
STARTCHAR 00E8
ENCODING 232
SWIDTH 565 0
DWIDTH 11 0
BBX 9 14 1 0
BITMAP
3000
1800
0800
0000
3E00
7F00
C180
C180
FF80
8000
C000
C100
7700
3E00
ENDCHAR
STARTCHAR 00E9
ENCODING 233
SWIDTH 565 0
DWIDTH 11 0
BBX 9 14 1 0
BITMAP
0600
0C00
1800
0000
3E00
7F00
C180
C180
FF80
8000
C000
C100
7700
3E00
ENDCHAR
STARTCHAR 00EA
ENCODING 234
SWIDTH 565 0
DWIDTH 11 0
BBX 9 14 1 0
BITMAP
1C00
1400
2200
0000
3E00
7F00
C180
C180
FF80
8000
C000
C100
7700
3E00
ENDCHAR
STARTCHAR 00EB
ENCODING 235
SWIDTH 565 0
DWIDTH 11 0
BBX 9 14 1 0
BITMAP
3600
3600
0000
0000
3E00
7F00
C180
C180
FF80
8000
C000
C100
7700
3E00
ENDCHAR
STARTCHAR 00EC
ENCODING 236
SWIDTH 257 0
DWIDTH 5 0
BBX 4 14 0 0
BITMAP
C0
60
10
00
20
20
20
20
20
20
20
20
20
20
ENDCHAR
STARTCHAR 00ED
ENCODING 237
SWIDTH 257 0
DWIDTH 5 0
BBX 4 14 1 0
BITMAP
30
60
C0
00
40
40
40
40
40
40
40
40
40
40
ENDCHAR
STARTCHAR 00EE
ENCODING 238
SWIDTH 257 0
DWIDTH 5 0
BBX 5 14 0 0
BITMAP
70
58
88
00
20
20
20
20
20
20
20
20
20
20
ENDCHAR
STARTCHAR 00EF
ENCODING 239
SWIDTH 257 0
DWIDTH 5 0
BBX 5 14 0 0
BITMAP
D8
D8
00
00
20
20
20
20
20
20
20
20
20
20
ENDCHAR
STARTCHAR 00F0
ENCODING 240
SWIDTH 565 0
DWIDTH 11 0
BBX 9 14 1 0
BITMAP
6400
3800
7800
0E00
3E00
7700
C100
C180
8180
8180
C180
C300
7F00
3E00
ENDCHAR
STARTCHAR 00F1
ENCODING 241
SWIDTH 565 0
DWIDTH 11 0
BBX 8 14 1 0
BITMAP
3A
6E
00
00
DE
F7
E1
C1
C1
C1
C1
C1
C1
C1
ENDCHAR
STARTCHAR 00F2
ENCODING 242
SWIDTH 565 0
DWIDTH 11 0
BBX 9 14 1 0
BITMAP
3000
1800
0800
0000
3E00
7F00
C300
C180
8180
8180
C180
C100
7F00
3E00
ENDCHAR
STARTCHAR 00F3
ENCODING 243
SWIDTH 565 0
DWIDTH 11 0
BBX 9 14 1 0
BITMAP
0C00
0C00
1800
0000
3E00
7F00
C300
C180
8180
8180
C180
C100
7F00
3E00
ENDCHAR
STARTCHAR 00F4
ENCODING 244
SWIDTH 565 0
DWIDTH 11 0
BBX 9 14 1 0
BITMAP
1C00
3400
2600
0000
3E00
7F00
C300
C180
8180
8180
C180
C100
7F00
3E00
ENDCHAR
STARTCHAR 00F5
ENCODING 245
SWIDTH 565 0
DWIDTH 11 0
BBX 9 14 1 0
BITMAP
3A00
6E00
0000
0000
3E00
7F00
C300
C180
8180
8180
C180
C100
7F00
3E00
ENDCHAR
STARTCHAR 00F6
ENCODING 246
SWIDTH 565 0
DWIDTH 11 0
BBX 9 14 1 0
BITMAP
3600
3600
0000
0000
3E00
7F00
C300
C180
8180
8180
C180
C100
7F00
3E00
ENDCHAR
STARTCHAR 00F7
ENCODING 247
SWIDTH 565 0
DWIDTH 11 0
BBX 9 9 1 0
BITMAP
0C00
0C00
0000
0000
FF80
0000
0000
0C00
0C00
ENDCHAR
STARTCHAR 00F8
ENCODING 248
SWIDTH 617 0
DWIDTH 12 0
BBX 10 10 0 0
BITMAP
1F40
3F80
6180
62C0
44C0
48C0
70C0
6080
7F80
DF00
ENDCHAR
STARTCHAR 00F9
ENCODING 249
SWIDTH 565 0
DWIDTH 11 0
BBX 8 14 1 0
BITMAP
30
18
08
00
C1
C1
C1
C1
C1
C1
C1
C3
67
7D
ENDCHAR
STARTCHAR 00FA
ENCODING 250
SWIDTH 565 0
DWIDTH 11 0
BBX 8 14 1 0
BITMAP
0C
08
10
00
C1
C1
C1
C1
C1
C1
C1
C3
67
7D
ENDCHAR
STARTCHAR 00FB
ENCODING 251
SWIDTH 565 0
DWIDTH 11 0
BBX 8 14 1 0
BITMAP
1C
34
22
00
C1
C1
C1
C1
C1
C1
C1
C3
67
7D
ENDCHAR
STARTCHAR 00FC
ENCODING 252
SWIDTH 565 0
DWIDTH 11 0
BBX 8 14 1 0
BITMAP
36
36
00
00
C1
C1
C1
C1
C1
C1
C1
C3
67
7D
ENDCHAR
STARTCHAR 00FD
ENCODING 253
SWIDTH 514 0
DWIDTH 10 0
BBX 8 18 1 -4
BITMAP
0C
18
10
00
83
C3
C2
46
66
64
2C
38
38
18
10
30
E0
E0
ENDCHAR
STARTCHAR 00FE
ENCODING 254
SWIDTH 565 0
DWIDTH 11 0
BBX 9 17 1 -4
BITMAP
C000
C000
C000
DE00
FF00
C180
C180
C180
C180
C180
C180
FF00
DE00
C000
C000
C000
C000
ENDCHAR
STARTCHAR 00FF
ENCODING 255
SWIDTH 514 0
DWIDTH 10 0
BBX 8 18 1 -4
BITMAP
6C
6C
00
00
83
C3
C2
46
66
64
2C
38
38
18
10
30
E0
E0
ENDCHAR
STARTCHAR 0100
ENCODING 256
SWIDTH 668 0
DWIDTH 13 0
BBX 12 17 1 0
BITMAP
1F00
0000
0000
0E00
0E00
1B00
1B00
1B00
3180
3180
3180
7FC0
7FC0
60C0
C060
C060
8070
ENDCHAR
STARTCHAR 0101
ENCODING 257
SWIDTH 565 0
DWIDTH 11 0
BBX 9 13 1 0
BITMAP
3E00
0000
0000
3E00
7F00
C300
0100
1F00
F100
C100
C300
EF00
7980
ENDCHAR
STARTCHAR 0102
ENCODING 258
SWIDTH 668 0
DWIDTH 13 0
BBX 12 18 1 0
BITMAP
1100
1B00
0E00
0000
0E00
0E00
1B00
1B00
1B00
3180
3180
3180
7FC0
7FC0
60C0
C060
C060
8070
ENDCHAR
STARTCHAR 0103
ENCODING 259
SWIDTH 565 0
DWIDTH 11 0
BBX 9 14 1 0
BITMAP
6200
2600
3C00
0000
3E00
7F00
C300
0100
1F00
F100
C100
C300
EF00
7980
ENDCHAR
STARTCHAR 0104
ENCODING 260
SWIDTH 668 0
DWIDTH 13 0
BBX 12 18 1 -4
BITMAP
0E00
0E00
1B00
1B00
1B00
3180
3180
3180
7FC0
7FC0
60C0
C060
C060
8070
0060
0040
00C0
0070
ENDCHAR
STARTCHAR 0105
ENCODING 261
SWIDTH 565 0
DWIDTH 11 0
BBX 11 14 1 -4
BITMAP
3E00
7F00
C100
0100
1F00
F100
C100
C300
EF00
7980
0100
0100
0100
01E0
ENDCHAR
STARTCHAR 0106
ENCODING 262
SWIDTH 720 0
DWIDTH 14 0
BBX 12 18 1 0
BITMAP
0180
0300
0600
0000
0F80
3FC0
6060
6030
C000
C000
C000
C000
C000
C030
6030
7060
3FE0
0F80
ENDCHAR
STARTCHAR 0107
ENCODING 263
SWIDTH 514 0
DWIDTH 10 0
BBX 8 14 1 0
BITMAP
0C
0C
18
00
3C
7E
C3
80
80
80
81
C3
7E
3C
ENDCHAR
STARTCHAR 0108
ENCODING 264
SWIDTH 720 0
DWIDTH 14 0
BBX 12 18 1 0
BITMAP
0600
0D00
0980
0000
0F80
3FC0
6060
6030
C000
C000
C000
C000
C000
C030
6030
7060
3FE0
0F80
ENDCHAR
STARTCHAR 0109
ENCODING 265
SWIDTH 514 0
DWIDTH 10 0
BBX 8 14 1 0
BITMAP
18
34
26
00
3C
7E
C3
80
80
80
81
C3
7E
3C
ENDCHAR
STARTCHAR 010A
ENCODING 266
SWIDTH 720 0
DWIDTH 14 0
BBX 12 17 1 0
BITMAP
0600
0600
0000
0F80
3FC0
6060
6030
C000
C000
C000
C000
C000
C030
6030
7060
3FE0
0F80
ENDCHAR
STARTCHAR 010B
ENCODING 267
SWIDTH 514 0
DWIDTH 10 0
BBX 8 14 1 0
BITMAP
18
18
00
00
3C
7E
C3
80
80
80
81
C3
7E
3C
ENDCHAR
STARTCHAR 010C
ENCODING 268
SWIDTH 720 0
DWIDTH 14 0
BBX 12 18 1 0
BITMAP
0880
0D00
0700
0000
0F80
3FC0
6060
6030
C000
C000
C000
C000
C000
C030
6030
7060
3FE0
0F80
ENDCHAR
STARTCHAR 010D
ENCODING 269
SWIDTH 514 0
DWIDTH 10 0
BBX 8 14 1 0
BITMAP
26
3C
18
00
3C
7E
C3
80
80
80
81
C3
7E
3C
ENDCHAR
STARTCHAR 010E
ENCODING 270
SWIDTH 720 0
DWIDTH 14 0
BBX 11 18 2 0
BITMAP
2200
1400
1C00
0000
FF00
FF80
C0C0
C0C0
C060
C060
C060
C060
C060
C060
C0C0
C0C0
FF80
FF00
ENDCHAR
STARTCHAR 010F
ENCODING 271
SWIDTH 668 0
DWIDTH 13 0
BBX 12 14 1 0
BITMAP
01B0
01B0
0190
01A0
3D80
7F80
C380
8180
8180
8180
8180
C380
7F80
3D80
ENDCHAR
STARTCHAR 0110
ENCODING 272
SWIDTH 720 0
DWIDTH 14 0
BBX 13 14 0 0
BITMAP
3FC0
3FE0
3030
3030
3018
3018
FE18
3018
3018
3018
3030
3030
3FE0
3FC0
ENDCHAR
STARTCHAR 0111
ENCODING 273
SWIDTH 565 0
DWIDTH 11 0
BBX 10 14 1 0
BITMAP
0180
0180
0FC0
0180
3D80
7F80
C380
8180
8180
8180
8180
C380
7F80
3D80
ENDCHAR
STARTCHAR 0112
ENCODING 274
SWIDTH 668 0
DWIDTH 13 0
BBX 10 17 2 0
BITMAP
3E00
0000
0000
FFC0
FFC0
C000
C000
C000
C000
FF80
FF80
C000
C000
C000
C000
FFC0
FFC0
ENDCHAR
STARTCHAR 0113
ENCODING 275
SWIDTH 565 0
DWIDTH 11 0
BBX 9 13 1 0
BITMAP
3E00
0000
0000
3E00
7F00
C180
C180
FF80
8000
C000
C100
7700
3E00
ENDCHAR
STARTCHAR 0114
ENCODING 276
SWIDTH 668 0
DWIDTH 13 0
BBX 10 18 2 0
BITMAP
2300
3200
1E00
0000
FFC0
FFC0
C000
C000
C000
C000
FF80
FF80
C000
C000
C000
C000
FFC0
FFC0
ENDCHAR
STARTCHAR 0115
ENCODING 277
SWIDTH 565 0
DWIDTH 11 0
BBX 9 14 1 0
BITMAP
2200
3600
1C00
0000
3E00
7F00
C180
C180
FF80
8000
C000
C100
7700
3E00
ENDCHAR
STARTCHAR 0116
ENCODING 278
SWIDTH 668 0
DWIDTH 13 0
BBX 10 18 2 0
BITMAP
0C00
0C00
0000
0000
FFC0
FFC0
C000
C000
C000
C000
FF80
FF80
C000
C000
C000
C000
FFC0
FFC0
ENDCHAR
STARTCHAR 0117
ENCODING 279
SWIDTH 565 0
DWIDTH 11 0
BBX 9 14 1 0
BITMAP
0C00
0C00
0000
0000
3E00
7F00
C180
C180
FF80
8000
C000
C100
7700
3E00
ENDCHAR
STARTCHAR 0118
ENCODING 280
SWIDTH 668 0
DWIDTH 13 0
BBX 11 18 2 -4
BITMAP
FFC0
FFC0
C000
C000
C000
C000
FF80
FF80
C000
C000
C000
C000
FFC0
FFC0
0080
0100
0100
01E0
ENDCHAR
STARTCHAR 0119
ENCODING 281
SWIDTH 565 0
DWIDTH 11 0
BBX 9 14 1 -4
BITMAP
3E00
7F00
C180
C180
FF80
8000
C000
C100
7700
3E00
0400
0C00
0C00
0700
ENDCHAR
STARTCHAR 011A
ENCODING 282
SWIDTH 668 0
DWIDTH 13 0
BBX 10 18 2 0
BITMAP
3200
1400
0C00
0000
FFC0
FFC0
C000
C000
C000
C000
FF80
FF80
C000
C000
C000
C000
FFC0
FFC0
ENDCHAR
STARTCHAR 011B
ENCODING 283
SWIDTH 565 0
DWIDTH 11 0
BBX 9 14 1 0
BITMAP
2200
1400
1C00
0000
3E00
7F00
C180
C180
FF80
8000
C000
C100
7700
3E00
ENDCHAR
STARTCHAR 011C
ENCODING 284
SWIDTH 771 0
DWIDTH 15 0
BBX 13 18 1 0
BITMAP
0700
0500
0880
0000
0F80
3FE0
7030
6030
C000
C000
C1F8
C1F8
C018
C018
6018
7038
3FD8
0F88
ENDCHAR
STARTCHAR 011D
ENCODING 285
SWIDTH 565 0
DWIDTH 11 0
BBX 8 18 1 -4
BITMAP
1C
34
22
00
3D
7F
C3
C3
81
81
C1
C3
7D
39
01
C3
66
3C
ENDCHAR
STARTCHAR 011E
ENCODING 286
SWIDTH 771 0
DWIDTH 15 0
BBX 13 18 1 0
BITMAP
0840
0C80
0780
0000
0F80
3FE0
7030
6030
C000
C000
C1F8
C1F8
C018
C018
6018
7038
3FD8
0F88
ENDCHAR
STARTCHAR 011F
ENCODING 287
SWIDTH 565 0
DWIDTH 11 0
BBX 8 18 1 -4
BITMAP
62
26
3C
00
3D
7F
C3
C3
81
81
C1
C3
7D
39
01
C3
66
3C
ENDCHAR
STARTCHAR 0120
ENCODING 288
SWIDTH 771 0
DWIDTH 15 0
BBX 13 17 1 0
BITMAP
0300
0300
0000
0F80
3FE0
7030
6030
C000
C000
C1F8
C1F8
C018
C018
6018
7038
3FD8
0F88
ENDCHAR
STARTCHAR 0121
ENCODING 289
SWIDTH 565 0
DWIDTH 11 0
BBX 8 18 1 -4
BITMAP
18
18
00
00
3D
7F
C3
C3
81
81
C1
C3
7D
39
01
C3
66
3C
ENDCHAR
STARTCHAR 0122
ENCODING 290
SWIDTH 771 0
DWIDTH 15 0
BBX 13 19 1 -5
BITMAP
0F80
3FE0
7030
6030
C000
C000
C1F8
C1F8
C018
C018
6018
7038
3FD8
0F88
0000
0200
0200
0200
0200
ENDCHAR
STARTCHAR 0123
ENCODING 291
SWIDTH 565 0
DWIDTH 11 0
BBX 8 19 1 -4
BITMAP
08
10
18
18
00
3D
7F
C3
C3
81
81
C1
C3
7D
39
01
C3
66
3C
ENDCHAR
STARTCHAR 0124
ENCODING 292
SWIDTH 720 0
DWIDTH 14 0
BBX 11 18 2 0
BITMAP
0E00
1A00
1100
0000
8060
8060
8060
8060
8060
8060
FFE0
FFE0
8060
8060
8060
8060
8060
8060
ENDCHAR
STARTCHAR 0125
ENCODING 293
SWIDTH 565 0
DWIDTH 11 0
BBX 9 18 0 0
BITMAP
7000
D000
9800
0000
6000
6000
6000
6000
6F00
7B80
7080
6080
6080
6080
6080
6080
6080
6080
ENDCHAR
STARTCHAR 0126
ENCODING 294
SWIDTH 720 0
DWIDTH 14 0
BBX 14 14 0 0
BITMAP
2018
2018
2018
FFFC
2018
2018
3FF8
3FF8
2018
2018
2018
2018
2018
2018
ENDCHAR
STARTCHAR 0127
ENCODING 295
SWIDTH 565 0
DWIDTH 11 0
BBX 9 14 0 0
BITMAP
6000
6000
FE00
6000
6F00
7B80
7080
6080
6080
6080
6080
6080
6080
6080
ENDCHAR
STARTCHAR 0128
ENCODING 296
SWIDTH 257 0
DWIDTH 5 0
BBX 5 17 0 0
BITMAP
F8
80
00
30
30
30
30
30
30
30
30
30
30
30
30
30
30
ENDCHAR
STARTCHAR 0129
ENCODING 297
SWIDTH 257 0
DWIDTH 5 0
BBX 6 14 0 0
BITMAP
EC
B8
00
00
20
20
20
20
20
20
20
20
20
20
ENDCHAR
STARTCHAR 012A
ENCODING 298
SWIDTH 257 0
DWIDTH 5 0
BBX 5 17 0 0
BITMAP
F8
00
00
30
30
30
30
30
30
30
30
30
30
30
30
30
30
ENDCHAR
STARTCHAR 012B
ENCODING 299
SWIDTH 257 0
DWIDTH 5 0
BBX 5 13 0 0
BITMAP
F8
00
00
20
20
20
20
20
20
20
20
20
20
ENDCHAR
STARTCHAR 012C
ENCODING 300
SWIDTH 257 0
DWIDTH 5 0
BBX 6 18 0 0
BITMAP
8C
C8
78
00
30
30
30
30
30
30
30
30
30
30
30
30
30
30
ENDCHAR
STARTCHAR 012D
ENCODING 301
SWIDTH 257 0
DWIDTH 5 0
BBX 6 14 0 0
BITMAP
8C
F8
00
00
20
20
20
20
20
20
20
20
20
20
ENDCHAR
STARTCHAR 012E
ENCODING 302
SWIDTH 257 0
DWIDTH 5 0
BBX 4 18 1 -4
BITMAP
60
60
60
60
60
60
60
60
60
60
60
60
60
60
40
C0
C0
70
ENDCHAR
STARTCHAR 012F
ENCODING 303
SWIDTH 205 0
DWIDTH 4 0
BBX 4 18 0 -4
BITMAP
60
60
00
00
60
60
60
60
60
60
60
60
60
60
40
40
C0
70
ENDCHAR
STARTCHAR 0130
ENCODING 304
SWIDTH 257 0
DWIDTH 5 0
BBX 2 18 2 0
BITMAP
C0
C0
00
00
C0
C0
C0
C0
C0
C0
C0
C0
C0
C0
C0
C0
C0
C0
ENDCHAR
STARTCHAR 0131
ENCODING 305
SWIDTH 257 0
DWIDTH 5 0
BBX 1 10 2 0
BITMAP
80
80
80
80
80
80
80
80
80
80
ENDCHAR
STARTCHAR 0132
ENCODING 306
SWIDTH 720 0
DWIDTH 14 0
BBX 11 14 2 0
BITMAP
C060
C060
C060
C060
C060
C060
C060
C060
C060
D860
D860
D860
DFC0
C780
ENDCHAR
STARTCHAR 0133
ENCODING 307
SWIDTH 462 0
DWIDTH 9 0
BBX 5 18 2 -4
BITMAP
98
98
00
00
98
98
98
98
98
98
98
98
98
98
18
18
18
38
ENDCHAR
STARTCHAR 0134
ENCODING 308
SWIDTH 514 0
DWIDTH 10 0
BBX 10 18 0 0
BITMAP
0300
0680
04C0
0000
0300
0300
0300
0300
0300
0300
0300
0300
0300
C300
C300
C300
7F00
3C00
ENDCHAR
STARTCHAR 0135
ENCODING 309
SWIDTH 205 0
DWIDTH 4 0
BBX 6 18 -1 -4
BITMAP
30
68
CC
00
30
30
30
30
30
30
30
30
30
30
30
30
30
70
ENDCHAR
STARTCHAR 0136
ENCODING 310
SWIDTH 668 0
DWIDTH 13 0
BBX 10 19 2 -5
BITMAP
80C0
8180
8300
8600
8C00
9800
BC00
EC00
C600
8300
8300
8180
80C0
80C0
0000
0C00
0C00
0400
0800
ENDCHAR
STARTCHAR 0137
ENCODING 311
SWIDTH 514 0
DWIDTH 10 0
BBX 8 19 1 -5
BITMAP
C0
C0
C0
C0
C3
C6
CC
F8
F8
CC
C6
C6
C3
C3
00
18
18
08
08
ENDCHAR
STARTCHAR 0138
ENCODING 312
SWIDTH 514 0
DWIDTH 10 0
BBX 7 10 1 0
BITMAP
82
84
88
90
B0
D8
88
8C
86
82
ENDCHAR
STARTCHAR 0139
ENCODING 313
SWIDTH 565 0
DWIDTH 11 0
BBX 8 18 2 0
BITMAP
60
C0
80
00
80
80
80
80
80
80
80
80
80
80
80
80
FF
FF
ENDCHAR
STARTCHAR 013A
ENCODING 314
SWIDTH 205 0
DWIDTH 4 0
BBX 4 18 1 0
BITMAP
30
60
C0
00
C0
C0
C0
C0
C0
C0
C0
C0
C0
C0
C0
C0
C0
C0
ENDCHAR
STARTCHAR 013B
ENCODING 315
SWIDTH 565 0
DWIDTH 11 0
BBX 8 19 2 -5
BITMAP
80
80
80
80
80
80
80
80
80
80
80
80
FF
FF
00
18
18
08
18
ENDCHAR
STARTCHAR 013C
ENCODING 316
SWIDTH 205 0
DWIDTH 4 0
BBX 2 19 1 -5
BITMAP
C0
C0
C0
C0
C0
C0
C0
C0
C0
C0
C0
C0
C0
C0
00
C0
C0
40
40
ENDCHAR
STARTCHAR 013D
ENCODING 317
SWIDTH 565 0
DWIDTH 11 0
BBX 8 14 2 0
BITMAP
98
98
88
88
80
80
80
80
80
80
80
80
FF
FF
ENDCHAR
STARTCHAR 013E
ENCODING 318
SWIDTH 308 0
DWIDTH 6 0
BBX 5 14 1 0
BITMAP
D8
D8
C8
D8
C0
C0
C0
C0
C0
C0
C0
C0
C0
C0
ENDCHAR
STARTCHAR 013F
ENCODING 319
SWIDTH 565 0
DWIDTH 11 0
BBX 8 14 2 0
BITMAP
80
80
80
80
80
80
86
86
80
80
80
80
FF
FF
ENDCHAR
STARTCHAR 0140
ENCODING 320
SWIDTH 308 0
DWIDTH 6 0
BBX 5 14 1 0
BITMAP
C0
C0
C0
C0
C0
C0
D8
D8
C0
C0
C0
C0
C0
C0
ENDCHAR
STARTCHAR 0141
ENCODING 321
SWIDTH 565 0
DWIDTH 11 0
BBX 11 14 0 0
BITMAP
2000
2000
2000
2000
2200
2C00
3800
7000
E000
2000
2000
2000
3FE0
3FE0
ENDCHAR
STARTCHAR 0142
ENCODING 322
SWIDTH 205 0
DWIDTH 4 0
BBX 4 14 0 0
BITMAP
60
60
60
60
60
70
70
E0
E0
60
60
60
60
60
ENDCHAR
STARTCHAR 0143
ENCODING 323
SWIDTH 720 0
DWIDTH 14 0
BBX 12 18 1 0
BITMAP
0300
0200
0400
0000
E030
E030
F030
D830
D830
CC30
C630
C630
C330
C1B0
C1B0
C0F0
C070
C070
ENDCHAR
STARTCHAR 0144
ENCODING 324
SWIDTH 565 0
DWIDTH 11 0
BBX 8 14 1 0
BITMAP
06
0C
18
00
DE
F7
E1
C1
C1
C1
C1
C1
C1
C1
ENDCHAR
STARTCHAR 0145
ENCODING 325
SWIDTH 720 0
DWIDTH 14 0
BBX 12 19 1 -5
BITMAP
E030
E030
F030
D830
D830
CC30
C630
C630
C330
C1B0
C1B0
C0F0
C070
C070
0000
0600
0600
0200
0400
ENDCHAR
STARTCHAR 0146
ENCODING 326
SWIDTH 565 0
DWIDTH 11 0
BBX 8 15 1 -5
BITMAP
DE
F7
E1
C1
C1
C1
C1
C1
C1
C1
00
18
18
08
08
ENDCHAR
STARTCHAR 0147
ENCODING 327
SWIDTH 720 0
DWIDTH 14 0
BBX 12 18 1 0
BITMAP
0900
0F00
0600
0000
E030
E030
F030
D830
D830
CC30
C630
C630
C330
C1B0
C1B0
C0F0
C070
C070
ENDCHAR
STARTCHAR 0148
ENCODING 328
SWIDTH 565 0
DWIDTH 11 0
BBX 8 14 1 0
BITMAP
22
14
1C
00
DE
F7
E1
C1
C1
C1
C1
C1
C1
C1
ENDCHAR
STARTCHAR 0149
ENCODING 329
SWIDTH 617 0
DWIDTH 12 0
BBX 10 14 0 0
BITMAP
C000
C000
4000
C000
3780
3DC0
3840
3040
3040
3040
3040
3040
3040
3040
ENDCHAR
STARTCHAR 014A
ENCODING 330
SWIDTH 720 0
DWIDTH 14 0
BBX 10 20 2 -6
BITMAP
8F00
BFC0
A0C0
C0C0
C040
C040
C040
C040
C040
C040
C040
C040
C040
C040
0040
0040
0040
00C0
03C0
0300
ENDCHAR
STARTCHAR 014B
ENCODING 331
SWIDTH 565 0
DWIDTH 11 0
BBX 8 14 1 -4
BITMAP
DE
F7
E1
C1
C1
C1
C1
C1
C1
C1
01
01
01
07
ENDCHAR
STARTCHAR 014C
ENCODING 332
SWIDTH 771 0
DWIDTH 15 0
BBX 13 17 1 0
BITMAP
0F80
0000
0000
0F80
3FE0
7030
6018
C018
C018
C008
C008
C018
C018
6018
7030
3FE0
0F80
ENDCHAR
STARTCHAR 014D
ENCODING 333
SWIDTH 565 0
DWIDTH 11 0
BBX 9 13 1 0
BITMAP
3E00
0000
0000
3E00
7F00
C300
C180
8180
8180
C180
C100
7F00
3E00
ENDCHAR
STARTCHAR 014E
ENCODING 334
SWIDTH 771 0
DWIDTH 15 0
BBX 13 18 1 0
BITMAP
0880
0C80
0700
0000
0F80
3FE0
7030
6018
C018
C018
C008
C008
C018
C018
6018
7030
3FE0
0F80
ENDCHAR
STARTCHAR 014F
ENCODING 335
SWIDTH 565 0
DWIDTH 11 0
BBX 9 14 1 0
BITMAP
6200
2600
3C00
0000
3E00
7F00
C300
C180
8180
8180
C180
C100
7F00
3E00
ENDCHAR
STARTCHAR 0150
ENCODING 336
SWIDTH 771 0
DWIDTH 15 0
BBX 13 18 1 0
BITMAP
0360
0640
0480
0000
0F80
3FE0
7030
6018
C018
C018
C008
C008
C018
C018
6018
7030
3FE0
0F80
ENDCHAR
STARTCHAR 0151
ENCODING 337
SWIDTH 565 0
DWIDTH 11 0
BBX 9 14 1 0
BITMAP
1980
1300
2600
0000
3E00
7F00
C300
C180
8180
8180
C180
C100
7F00
3E00
ENDCHAR
STARTCHAR 0152
ENCODING 338
SWIDTH 977 0
DWIDTH 19 0
BBX 18 14 1 0
BITMAP
1F7FC0
3FFFC0
60E000
C06000
C06000
C06000
C07F80
C07F80
C06000
C06000
C06000
60E000
3FFFC0
1F7FC0
ENDCHAR
STARTCHAR 0153
ENCODING 339
SWIDTH 925 0
DWIDTH 18 0
BBX 16 10 1 0
BITMAP
3E3C
7F7E
C1C3
C181
81FF
C180
C180
C1C3
77FE
3E3C
ENDCHAR
STARTCHAR 0154
ENCODING 340
SWIDTH 720 0
DWIDTH 14 0
BBX 11 18 2 0
BITMAP
0600
0C00
0800
0000
FF80
FFC0
C0C0
C060
C060
C0C0
FF80
FF80
C0C0
C040
C040
C040
C040
C060
ENDCHAR
STARTCHAR 0155
ENCODING 341
SWIDTH 308 0
DWIDTH 6 0
BBX 5 14 1 0
BITMAP
18
30
20
00
D8
F0
E0
C0
C0
C0
C0
C0
C0
C0
ENDCHAR
STARTCHAR 0156
ENCODING 342
SWIDTH 720 0
DWIDTH 14 0
BBX 11 19 2 -5
BITMAP
FF80
FFC0
C0C0
C060
C060
C0C0
FF80
FF80
C0C0
C040
C040
C040
C040
C060
0000
0C00
0C00
0400
0400
ENDCHAR
STARTCHAR 0157
ENCODING 343
SWIDTH 308 0
DWIDTH 6 0
BBX 5 15 1 -5
BITMAP
D8
F0
E0
C0
C0
C0
C0
C0
C0
C0
00
C0
C0
40
40
ENDCHAR
STARTCHAR 0158
ENCODING 344
SWIDTH 720 0
DWIDTH 14 0
BBX 11 18 2 0
BITMAP
1200
1E00
0C00
0000
FF80
FFC0
C0C0
C060
C060
C0C0
FF80
FF80
C0C0
C040
C040
C040
C040
C060
ENDCHAR
STARTCHAR 0159
ENCODING 345
SWIDTH 308 0
DWIDTH 6 0
BBX 5 14 1 0
BITMAP
C8
50
30
00
D8
F0
E0
C0
C0
C0
C0
C0
C0
C0
ENDCHAR
STARTCHAR 015A
ENCODING 346
SWIDTH 668 0
DWIDTH 13 0
BBX 11 18 1 0
BITMAP
0300
0600
0400
0000
1F00
7FC0
60C0
C060
C000
7000
3F00
07C0
00E0
C060
C060
E060
7FC0
1F00
ENDCHAR
STARTCHAR 015B
ENCODING 347
SWIDTH 514 0
DWIDTH 10 0
BBX 8 14 1 0
BITMAP
0C
18
10
00
7C
FE
C2
C0
78
1E
03
C3
FE
7C
ENDCHAR
STARTCHAR 015C
ENCODING 348
SWIDTH 668 0
DWIDTH 13 0
BBX 11 18 1 0
BITMAP
0E00
0A00
1100
0000
1F00
7FC0
60C0
C060
C000
7000
3F00
07C0
00E0
C060
C060
E060
7FC0
1F00
ENDCHAR
STARTCHAR 015D
ENCODING 349
SWIDTH 514 0
DWIDTH 10 0
BBX 8 14 1 0
BITMAP
18
3C
64
00
7C
FE
C2
C0
78
1E
03
C3
FE
7C
ENDCHAR
STARTCHAR 015E
ENCODING 350
SWIDTH 668 0
DWIDTH 13 0
BBX 11 18 1 -4
BITMAP
1F00
7FC0
60C0
C060
C000
6000
7E00
0FC0
00E0
0060
C060
C060
60C0
3FC0
0E00
0E00
0200
1E00
ENDCHAR
STARTCHAR 015F
ENCODING 351
SWIDTH 514 0
DWIDTH 10 0
BBX 8 14 1 -4
BITMAP
3C
FE
C2
C0
F0
3E
03
83
C3
7E
10
18
0C
78
ENDCHAR
STARTCHAR 0160
ENCODING 352
SWIDTH 668 0
DWIDTH 13 0
BBX 11 18 1 0
BITMAP
1100
0A00
0E00
0000
1F00
7FC0
60C0
C060
C000
7000
3F00
07C0
00E0
C060
C060
E060
7FC0
1F00
ENDCHAR
STARTCHAR 0161
ENCODING 353
SWIDTH 514 0
DWIDTH 10 0
BBX 8 14 1 0
BITMAP
64
2C
18
00
7C
FE
C2
C0
78
1E
03
C3
FE
7C
ENDCHAR
STARTCHAR 0162
ENCODING 354
SWIDTH 617 0
DWIDTH 12 0
BBX 12 18 0 -4
BITMAP
FFF0
FFF0
0600
0600
0600
0600
0600
0600
0600
0600
0600
0600
0600
0600
0200
0700
0100
0F00
ENDCHAR
STARTCHAR 0163
ENCODING 355
SWIDTH 257 0
DWIDTH 5 0
BBX 5 17 0 -4
BITMAP
20
20
20
F8
20
20
20
20
20
20
20
30
38
20
18
18
70
ENDCHAR
STARTCHAR 0164
ENCODING 356
SWIDTH 617 0
DWIDTH 12 0
BBX 12 18 0 0
BITMAP
0900
0F00
0600
0000
FFF0
FFF0
0600
0600
0600
0600
0600
0600
0600
0600
0600
0600
0600
0600
ENDCHAR
STARTCHAR 0165
ENCODING 357
SWIDTH 308 0
DWIDTH 6 0
BBX 6 15 0 0
BITMAP
0C
0C
04
2C
20
F8
20
20
20
20
20
20
20
30
38
ENDCHAR
STARTCHAR 0166
ENCODING 358
SWIDTH 617 0
DWIDTH 12 0
BBX 12 14 0 0
BITMAP
FFF0
FFF0
0600
0600
0600
3FC0
0600
0600
0600
0600
0600
0600
0600
0600
ENDCHAR
STARTCHAR 0167
ENCODING 359
SWIDTH 257 0
DWIDTH 5 0
BBX 5 13 0 0
BITMAP
20
20
20
F8
20
20
F8
20
20
20
20
30
38
ENDCHAR
STARTCHAR 0168
ENCODING 360
SWIDTH 720 0
DWIDTH 14 0
BBX 11 17 2 0
BITMAP
3F00
2000
0000
8060
8060
8060
8060
8060
8060
8060
8060
8060
8060
C040
C0C0
7F80
3F00
ENDCHAR
STARTCHAR 0169
ENCODING 361
SWIDTH 565 0
DWIDTH 11 0
BBX 8 14 1 0
BITMAP
3A
6E
00
00
C1
C1
C1
C1
C1
C1
C1
C3
67
7D
ENDCHAR
STARTCHAR 016A
ENCODING 362
SWIDTH 720 0
DWIDTH 14 0
BBX 11 17 2 0
BITMAP
3F00
0000
0000
8060
8060
8060
8060
8060
8060
8060
8060
8060
8060
C040
C0C0
7F80
3F00
ENDCHAR
STARTCHAR 016B
ENCODING 363
SWIDTH 565 0
DWIDTH 11 0
BBX 8 13 1 0
BITMAP
3E
00
00
C1
C1
C1
C1
C1
C1
C1
C3
67
7D
ENDCHAR
STARTCHAR 016C
ENCODING 364
SWIDTH 720 0
DWIDTH 14 0
BBX 11 18 2 0
BITMAP
2100
3300
1E00
0000
8060
8060
8060
8060
8060
8060
8060
8060
8060
8060
C040
C0C0
7F80
3F00
ENDCHAR
STARTCHAR 016D
ENCODING 365
SWIDTH 565 0
DWIDTH 11 0
BBX 8 14 1 0
BITMAP
22
3E
00
00
C1
C1
C1
C1
C1
C1
C1
C3
67
7D
ENDCHAR
STARTCHAR 016E
ENCODING 366
SWIDTH 720 0
DWIDTH 14 0
BBX 11 18 2 0
BITMAP
0C00
1200
0C00
0000
8060
8060
8060
8060
8060
8060
8060
8060
8060
8060
C040
C0C0
7F80
3F00
ENDCHAR
STARTCHAR 016F
ENCODING 367
SWIDTH 565 0
DWIDTH 11 0
BBX 8 15 1 0
BITMAP
18
14
14
1C
00
C1
C1
C1
C1
C1
C1
C1
C3
67
7D
ENDCHAR
STARTCHAR 0170
ENCODING 368
SWIDTH 720 0
DWIDTH 14 0
BBX 11 18 2 0
BITMAP
0D80
1900
1200
0000
8060
8060
8060
8060
8060
8060
8060
8060
8060
8060
C040
C0C0
7F80
3F00
ENDCHAR
STARTCHAR 0171
ENCODING 369
SWIDTH 565 0
DWIDTH 11 0
BBX 9 14 1 0
BITMAP
1980
1300
2600
0000
C100
C100
C100
C100
C100
C100
C100
C300
6700
7D00
ENDCHAR
STARTCHAR 0172
ENCODING 370
SWIDTH 720 0
DWIDTH 14 0
BBX 11 18 2 -4
BITMAP
8060
8060
8060
8060
8060
8060
8060
8060
8060
8060
C040
C0C0
7FC0
3F80
0300
0200
0200
01C0
ENDCHAR
STARTCHAR 0173
ENCODING 371
SWIDTH 565 0
DWIDTH 11 0
BBX 9 14 1 -4
BITMAP
C100
C100
C100
C100
C100
C100
C100
C300
6700
7D00
0300
0200
0200
0380
ENDCHAR
STARTCHAR 0174
ENCODING 372
SWIDTH 925 0
DWIDTH 18 0
BBX 17 18 1 0
BITMAP
018000
034000
026000
000000
C18180
C1C180
C1C300
C3C300
434300
626300
666200
662600
263600
343600
3C3400
3C1C00
181C00
181C00
ENDCHAR
STARTCHAR 0175
ENCODING 373
SWIDTH 720 0
DWIDTH 14 0
BBX 14 14 0 0
BITMAP
0300
0580
0C80
0000
C30C
4308
6798
6798
6590
2490
3CF0
3CF0
1860
1860
ENDCHAR
STARTCHAR 0176
ENCODING 374
SWIDTH 668 0
DWIDTH 13 0
BBX 12 18 1 0
BITMAP
0E00
0B00
1100
0000
C070
C060
60C0
70C0
3180
1B00
1B00
0E00
0600
0600
0600
0600
0600
0600
ENDCHAR
STARTCHAR 0177
ENCODING 375
SWIDTH 514 0
DWIDTH 10 0
BBX 8 18 1 -4
BITMAP
18
2C
64
00
83
C3
C2
46
66
64
2C
38
38
18
10
30
E0
E0
ENDCHAR
STARTCHAR 0178
ENCODING 376
SWIDTH 668 0
DWIDTH 13 0
BBX 12 18 1 0
BITMAP
1B00
1B00
0000
0000
C070
C060
60C0
70C0
3180
1B00
1B00
0E00
0600
0600
0600
0600
0600
0600
ENDCHAR
STARTCHAR 0179
ENCODING 377
SWIDTH 617 0
DWIDTH 12 0
BBX 10 18 1 0
BITMAP
0600
0400
0800
0000
FFC0
FFC0
01C0
0180
0300
0600
0C00
1C00
1800
3000
6000
E000
FFC0
FFC0
ENDCHAR
STARTCHAR 017A
ENCODING 378
SWIDTH 514 0
DWIDTH 10 0
BBX 8 14 1 0
BITMAP
0C
18
10
00
FF
03
06
0C
18
30
60
C0
C0
FF
ENDCHAR
STARTCHAR 017B
ENCODING 379
SWIDTH 617 0
DWIDTH 12 0
BBX 10 18 1 0
BITMAP
0C00
0C00
0000
0000
FFC0
FFC0
01C0
0180
0300
0600
0C00
1C00
1800
3000
6000
E000
FFC0
FFC0
ENDCHAR
STARTCHAR 017C
ENCODING 380
SWIDTH 514 0
DWIDTH 10 0
BBX 8 14 1 0
BITMAP
18
18
00
00
FF
03
06
0C
18
30
60
C0
C0
FF
ENDCHAR
STARTCHAR 017D
ENCODING 381
SWIDTH 617 0
DWIDTH 12 0
BBX 10 18 1 0
BITMAP
1300
1E00
0C00
0000
FFC0
FFC0
01C0
0180
0300
0600
0C00
1C00
1800
3000
6000
E000
FFC0
FFC0
ENDCHAR
STARTCHAR 017E
ENCODING 382
SWIDTH 514 0
DWIDTH 10 0
BBX 8 14 1 0
BITMAP
64
3C
18
00
FF
03
06
0C
18
30
60
C0
C0
FF
ENDCHAR
STARTCHAR 017F
ENCODING 383
SWIDTH 205 0
DWIDTH 4 0
BBX 4 14 0 0
BITMAP
30
60
60
60
E0
60
60
60
60
60
60
60
60
60
ENDCHAR
STARTCHAR 0192
ENCODING 402
SWIDTH 565 0
DWIDTH 11 0
BBX 10 18 0 -4
BITMAP
01C0
03C0
0300
0600
0600
1F80
0600
0400
0400
0C00
0C00
0C00
0800
0800
1800
1800
F000
E000
ENDCHAR
STARTCHAR 01FA
ENCODING 506
SWIDTH 668 0
DWIDTH 13 0
BBX 12 20 1 0
BITMAP
0C00
1800
1E00
0A00
0E00
0000
0E00
0E00
1B00
1B00
1B00
3180
3180
3180
7FC0
7FC0
60C0
C060
C060
8070
ENDCHAR
STARTCHAR 01FB
ENCODING 507
SWIDTH 565 0
DWIDTH 11 0
BBX 9 17 1 0
BITMAP
1800
1000
2000
1C00
1400
1C00
0000
3E00
7F00
C300
0100
1F00
F100
C100
C300
EF00
7980
ENDCHAR
STARTCHAR 01FC
ENCODING 508
SWIDTH 977 0
DWIDTH 19 0
BBX 18 18 0 0
BITMAP
000C00
001000
002000
000000
03FFC0
07FFC0
066000
046000
0C6000
0C6000
187FC0
187FC0
3FE000
3FE000
306000
606000
607FC0
C07FC0
ENDCHAR
STARTCHAR 01FD
ENCODING 509
SWIDTH 874 0
DWIDTH 17 0
BBX 15 14 1 0
BITMAP
00C0
0180
0300
0000
3C78
7FFC
C386
0302
3FFE
E300
8300
8386
EDFC
7878
ENDCHAR
STARTCHAR 01FE
ENCODING 510
SWIDTH 771 0
DWIDTH 15 0
BBX 13 18 1 0
BITMAP
0300
0200
0400
0000
0F88
3FF0
7030
E078
C0D8
C198
C308
C608
CC18
D818
F018
7030
FFE0
8F80
ENDCHAR
STARTCHAR 01FF
ENCODING 511
SWIDTH 617 0
DWIDTH 12 0
BBX 10 14 0 0
BITMAP
0600
0400
0800
0000
1F40
3F80
6180
62C0
44C0
48C0
70C0
6080
7F80
DF00
ENDCHAR
STARTCHAR 0218
ENCODING 536
SWIDTH 668 0
DWIDTH 13 0
BBX 11 19 1 -5
BITMAP
1F00
7FC0
60C0
C060
C000
7000
3F00
07C0
00E0
C060
C060
E060
7FC0
1F00
0000
0600
0600
0200
0400
ENDCHAR
STARTCHAR 0219
ENCODING 537
SWIDTH 514 0
DWIDTH 10 0
BBX 8 15 1 -5
BITMAP
7C
FE
C2
C0
78
1E
03
C3
FE
7C
00
18
18
08
10
ENDCHAR
STARTCHAR 021A
ENCODING 538
SWIDTH 617 0
DWIDTH 12 0
BBX 12 19 0 -5
BITMAP
FFF0
FFF0
0600
0600
0600
0600
0600
0600
0600
0600
0600
0600
0600
0600
0000
0600
0600
0200
0200
ENDCHAR
STARTCHAR 021B
ENCODING 539
SWIDTH 257 0
DWIDTH 5 0
BBX 5 18 0 -5
BITMAP
20
20
20
F8
20
20
20
20
20
20
20
30
38
00
30
30
10
10
ENDCHAR
STARTCHAR 02C6
ENCODING 710
SWIDTH 308 0
DWIDTH 6 0
BBX 5 3 1 11
BITMAP
60
D0
98
ENDCHAR
STARTCHAR 02C7
ENCODING 711
SWIDTH 308 0
DWIDTH 6 0
BBX 5 3 1 11
BITMAP
98
F0
60
ENDCHAR
STARTCHAR 02C9
ENCODING 713
SWIDTH 308 0
DWIDTH 6 0
BBX 5 1 1 12
BITMAP
F8
ENDCHAR
STARTCHAR 02D8
ENCODING 728
SWIDTH 308 0
DWIDTH 6 0
BBX 6 2 0 12
BITMAP
C4
7C
ENDCHAR
STARTCHAR 02D9
ENCODING 729
SWIDTH 308 0
DWIDTH 6 0
BBX 2 2 2 12
BITMAP
C0
C0
ENDCHAR
STARTCHAR 02DA
ENCODING 730
SWIDTH 308 0
DWIDTH 6 0
BBX 3 4 2 11
BITMAP
C0
A0
A0
C0
ENDCHAR
STARTCHAR 02DB
ENCODING 731
SWIDTH 308 0
DWIDTH 6 0
BBX 4 4 1 -4
BITMAP
60
C0
C0
70
ENDCHAR
STARTCHAR 02DC
ENCODING 732
SWIDTH 308 0
DWIDTH 6 0
BBX 6 2 0 12
BITMAP
74
9C
ENDCHAR
STARTCHAR 02DD
ENCODING 733
SWIDTH 308 0
DWIDTH 6 0
BBX 6 3 0 11
BITMAP
6C
C8
90
ENDCHAR
STARTCHAR 0384
ENCODING 900
SWIDTH 308 0
DWIDTH 6 0
BBX 2 4 2 11
BITMAP
C0
C0
40
40
ENDCHAR
STARTCHAR 0385
ENCODING 901
SWIDTH 308 0
DWIDTH 6 0
BBX 5 5 1 12
BITMAP
60
60
20
B8
98
ENDCHAR
STARTCHAR 0386
ENCODING 902
SWIDTH 668 0
DWIDTH 13 0
BBX 12 14 1 0
BITMAP
CE00
CE00
9B00
9B00
1B00
3180
3180
3180
7FC0
7FC0
60C0
C060
C060
8070
ENDCHAR
STARTCHAR 0387
ENCODING 903
SWIDTH 257 0
DWIDTH 5 0
BBX 2 2 2 4
BITMAP
C0
C0
ENDCHAR
STARTCHAR 0388
ENCODING 904
SWIDTH 771 0
DWIDTH 15 0
BBX 12 14 1 0
BITMAP
BFF0
BFF0
B000
B000
3000
3000
3FF0
3FF0
3000
3000
3000
3000
3FF0
3FF0
ENDCHAR
STARTCHAR 0389
ENCODING 905
SWIDTH 822 0
DWIDTH 16 0
BBX 14 14 0 0
BITMAP
D80C
D80C
580C
580C
180C
180C
1FFC
1FFC
180C
180C
180C
180C
180C
180C
ENDCHAR
STARTCHAR 038A
ENCODING 906
SWIDTH 360 0
DWIDTH 7 0
BBX 4 14 1 0
BITMAP
B0
B0
B0
B0
30
30
30
30
30
30
30
30
30
30
ENDCHAR
STARTCHAR 038C
ENCODING 908
SWIDTH 771 0
DWIDTH 15 0
BBX 14 14 0 0
BITMAP
87C0
9FF0
B838
F00C
600C
600C
6004
6004
600C
600C
700C
3818
1FF0
07C0
ENDCHAR
STARTCHAR 038E
ENCODING 910
SWIDTH 874 0
DWIDTH 17 0
BBX 14 14 1 0
BITMAP
B00C
9818
9C18
8C30
0630
0660
03C0
01C0
0180
0180
0180
0180
0180
0180
ENDCHAR
STARTCHAR 038F
ENCODING 911
SWIDTH 771 0
DWIDTH 15 0
BBX 14 14 0 0
BITMAP
87C0
9FF0
B038
E018
6008
600C
600C
600C
600C
6018
3018
1830
7CFC
7CFC
ENDCHAR
STARTCHAR 0390
ENCODING 912
SWIDTH 205 0
DWIDTH 4 0
BBX 5 17 0 0
BITMAP
60
60
20
B8
98
00
00
60
60
60
60
60
60
60
60
60
60
ENDCHAR
STARTCHAR 0391
ENCODING 913
SWIDTH 668 0
DWIDTH 13 0
BBX 12 14 1 0
BITMAP
0E00
0E00
1B00
1B00
1B00
3180
3180
3180
7FC0
7FC0
60C0
C060
C060
8070
ENDCHAR
STARTCHAR 0392
ENCODING 914
SWIDTH 668 0
DWIDTH 13 0
BBX 10 14 2 0
BITMAP
FF00
FF80
8180
8080
8080
8180
FF00
FF80
80C0
80C0
80C0
80C0
FF80
FF00
ENDCHAR
STARTCHAR 0393
ENCODING 915
SWIDTH 565 0
DWIDTH 11 0
BBX 9 14 2 0
BITMAP
FF80
FF80
8000
8000
8000
8000
8000
8000
8000
8000
8000
8000
8000
8000
ENDCHAR
STARTCHAR 0394
ENCODING 916
SWIDTH 668 0
DWIDTH 13 0
BBX 13 14 0 0
BITMAP
0700
0700
0D00
0D80
0D80
18C0
18C0
3060
3060
3060
6030
6030
FFF8
FFF8
ENDCHAR
STARTCHAR 0395
ENCODING 917
SWIDTH 668 0
DWIDTH 13 0
BBX 10 14 2 0
BITMAP
FFC0
FFC0
C000
C000
C000
C000
FF80
FF80
C000
C000
C000
C000
FFC0
FFC0
ENDCHAR
STARTCHAR 0396
ENCODING 918
SWIDTH 617 0
DWIDTH 12 0
BBX 10 14 1 0
BITMAP
FFC0
FFC0
01C0
0180
0300
0600
0C00
1C00
1800
3000
6000
E000
FFC0
FFC0
ENDCHAR
STARTCHAR 0397
ENCODING 919
SWIDTH 720 0
DWIDTH 14 0
BBX 11 14 2 0
BITMAP
8060
8060
8060
8060
8060
8060
FFE0
FFE0
8060
8060
8060
8060
8060
8060
ENDCHAR
STARTCHAR 0398
ENCODING 920
SWIDTH 771 0
DWIDTH 15 0
BBX 13 14 1 0
BITMAP
0F80
3FE0
6030
C018
C018
C018
CF88
C008
C018
C018
6038
7070
3FE0
0F80
ENDCHAR
STARTCHAR 0399
ENCODING 921
SWIDTH 257 0
DWIDTH 5 0
BBX 2 14 2 0
BITMAP
C0
C0
C0
C0
C0
C0
C0
C0
C0
C0
C0
C0
C0
C0
ENDCHAR
STARTCHAR 039A
ENCODING 922
SWIDTH 668 0
DWIDTH 13 0
BBX 10 14 2 0
BITMAP
80C0
8180
8300
8600
8C00
9800
BC00
EC00
C600
8300
8300
8180
80C0
80C0
ENDCHAR
STARTCHAR 039B
ENCODING 923
SWIDTH 668 0
DWIDTH 13 0
BBX 12 14 0 0
BITMAP
0700
0700
0D80
0D80
0D80
18C0
18C0
18C0
3060
3060
3060
6030
6030
E030
ENDCHAR
STARTCHAR 039C
ENCODING 924
SWIDTH 822 0
DWIDTH 16 0
BBX 14 14 1 0
BITMAP
E01C
E01C
F03C
D03C
D82C
D86C
C86C
CC4C
CCCC
C4CC
C68C
C78C
C38C
C30C
ENDCHAR
STARTCHAR 039D
ENCODING 925
SWIDTH 720 0
DWIDTH 14 0
BBX 12 14 1 0
BITMAP
E030
E030
F030
D830
D830
CC30
C630
C630
C330
C1B0
C1B0
C0F0
C070
C070
ENDCHAR
STARTCHAR 039E
ENCODING 926
SWIDTH 668 0
DWIDTH 13 0
BBX 10 14 1 0
BITMAP
FFC0
FFC0
0000
0000
0000
0000
7FC0
7FC0
0000
0000
0000
0000
FFC0
FFC0
ENDCHAR
STARTCHAR 039F
ENCODING 927
SWIDTH 771 0
DWIDTH 15 0
BBX 13 14 1 0
BITMAP
0F80
3FE0
7030
6018
C018
C018
C008
C008
C018
C018
6018
7030
3FE0
0F80
ENDCHAR
STARTCHAR 03A0
ENCODING 928
SWIDTH 720 0
DWIDTH 14 0
BBX 10 14 2 0
BITMAP
FFC0
FFC0
8040
8040
8040
8040
8040
8040
8040
8040
8040
8040
8040
8040
ENDCHAR
STARTCHAR 03A1
ENCODING 929
SWIDTH 668 0
DWIDTH 13 0
BBX 10 14 2 0
BITMAP
FF00
FF80
C0C0
C0C0
C0C0
C0C0
FF80
FF00
C000
C000
C000
C000
C000
C000
ENDCHAR
STARTCHAR 03A3
ENCODING 931
SWIDTH 617 0
DWIDTH 12 0
BBX 10 14 1 0
BITMAP
FFC0
FFC0
6000
3000
1800
0C00
0600
0600
0C00
1800
3000
6000
FFC0
FFC0
ENDCHAR
STARTCHAR 03A4
ENCODING 932
SWIDTH 617 0
DWIDTH 12 0
BBX 12 14 0 0
BITMAP
FFF0
FFF0
0600
0600
0600
0600
0600
0600
0600
0600
0600
0600
0600
0600
ENDCHAR
STARTCHAR 03A5
ENCODING 933
SWIDTH 668 0
DWIDTH 13 0
BBX 12 14 1 0
BITMAP
C070
C060
60C0
70C0
3180
1B00
1B00
0E00
0600
0600
0600
0600
0600
0600
ENDCHAR
STARTCHAR 03A6
ENCODING 934
SWIDTH 822 0
DWIDTH 16 0
BBX 12 14 2 0
BITMAP
0600
0600
3FC0
76E0
C660
C630
8630
8630
C630
C660
76E0
3FC0
0600
0600
ENDCHAR
STARTCHAR 03A7
ENCODING 935
SWIDTH 668 0
DWIDTH 13 0
BBX 11 14 1 0
BITMAP
C060
60C0
70C0
3180
1B00
0F00
0E00
0E00
1B00
1B00
3180
60C0
E0E0
C060
ENDCHAR
STARTCHAR 03A8
ENCODING 936
SWIDTH 822 0
DWIDTH 16 0
BBX 14 14 1 0
BITMAP
C30C
C30C
C30C
C30C
C30C
C30C
C30C
C30C
6318
7B38
1FE0
0300
0300
0300
ENDCHAR
STARTCHAR 03A9
ENCODING 937
SWIDTH 771 0
DWIDTH 15 0
BBX 13 14 1 0
BITMAP
0F80
3FE0
6070
C030
C010
C018
C018
C018
C010
C030
6030
3060
F9F8
F9F8
ENDCHAR
STARTCHAR 03AA
ENCODING 938
SWIDTH 257 0
DWIDTH 5 0
BBX 5 18 0 0
BITMAP
D8
D8
00
00
30
30
30
30
30
30
30
30
30
30
30
30
30
30
ENDCHAR
STARTCHAR 03AB
ENCODING 939
SWIDTH 668 0
DWIDTH 13 0
BBX 12 18 1 0
BITMAP
1B00
1B00
0000
0000
C070
C060
60C0
70C0
3180
1B00
1B00
0E00
0600
0600
0600
0600
0600
0600
ENDCHAR
STARTCHAR 03AC
ENCODING 940
SWIDTH 565 0
DWIDTH 11 0
BBX 11 15 0 0
BITMAP
0C00
0C00
0800
0800
0000
1E60
7760
6140
C1C0
C0C0
C0C0
C1C0
6160
7F60
1C20
ENDCHAR
STARTCHAR 03AD
ENCODING 941
SWIDTH 462 0
DWIDTH 9 0
BBX 8 15 0 0
BITMAP
08
08
08
08
00
3C
77
41
60
3C
70
C0
C1
77
3C
ENDCHAR
STARTCHAR 03AE
ENCODING 942
SWIDTH 565 0
DWIDTH 11 0
BBX 8 19 1 -4
BITMAP
0C
0C
08
08
00
DE
F7
C1
C1
C1
C1
C1
C1
C1
C1
01
01
01
01
ENDCHAR
STARTCHAR 03AF
ENCODING 943
SWIDTH 205 0
DWIDTH 4 0
BBX 2 15 1 0
BITMAP
C0
C0
40
40
00
C0
C0
C0
C0
C0
C0
C0
C0
C0
C0
ENDCHAR
STARTCHAR 03B0
ENCODING 944
SWIDTH 565 0
DWIDTH 11 0
BBX 8 17 1 0
BITMAP
08
08
08
3E
36
00
00
C1
C1
C1
C1
C1
C1
C1
C1
77
3E
ENDCHAR
STARTCHAR 03B1
ENCODING 945
SWIDTH 565 0
DWIDTH 11 0
BBX 10 10 1 0
BITMAP
3C40
7EC0
C280
C380
8180
8180
C380
C2C0
7EC0
3840
ENDCHAR
STARTCHAR 03B2
ENCODING 946
SWIDTH 565 0
DWIDTH 11 0
BBX 8 18 2 -4
BITMAP
7C
EE
86
82
86
8E
9E
83
83
83
83
83
EE
BC
80
80
80
80
ENDCHAR
STARTCHAR 03B3
ENCODING 947
SWIDTH 514 0
DWIDTH 10 0
BBX 9 14 0 -4
BITMAP
C180
6180
6180
2300
3300
3200
1E00
1E00
0C00
0C00
0C00
0C00
0C00
0C00
ENDCHAR
STARTCHAR 03B4
ENCODING 948
SWIDTH 565 0
DWIDTH 11 0
BBX 9 14 1 0
BITMAP
7F00
6000
3800
0C00
3E00
6300
C180
C180
C180
C180
C180
C100
7700
3E00
ENDCHAR
STARTCHAR 03B5
ENCODING 949
SWIDTH 462 0
DWIDTH 9 0
BBX 8 10 0 0
BITMAP
3C
77
41
60
3C
70
C0
C1
77
3C
ENDCHAR
STARTCHAR 03B6
ENCODING 950
SWIDTH 462 0
DWIDTH 9 0
BBX 8 18 1 -4
BITMAP
7E
06
0C
18
30
60
40
C0
C0
80
C0
C0
E0
7E
03
03
03
02
ENDCHAR
STARTCHAR 03B7
ENCODING 951
SWIDTH 565 0
DWIDTH 11 0
BBX 8 14 1 -4
BITMAP
DE
F7
C1
C1
C1
C1
C1
C1
C1
C1
01
01
01
01
ENDCHAR
STARTCHAR 03B8
ENCODING 952
SWIDTH 565 0
DWIDTH 11 0
BBX 9 15 1 0
BITMAP
3C00
7F00
4300
C100
C180
C180
C180
FF80
C180
C180
C180
C180
4300
7700
3E00
ENDCHAR
STARTCHAR 03B9
ENCODING 953
SWIDTH 205 0
DWIDTH 4 0
BBX 2 10 1 0
BITMAP
C0
C0
C0
C0
C0
C0
C0
C0
C0
C0
ENDCHAR
STARTCHAR 03BA
ENCODING 954
SWIDTH 514 0
DWIDTH 10 0
BBX 8 10 1 0
BITMAP
C3
C6
DC
F8
F8
CC
C6
C6
C3
C3
ENDCHAR
STARTCHAR 03BB
ENCODING 955
SWIDTH 514 0
DWIDTH 10 0
BBX 8 14 1 0
BITMAP
20
30
30
10
18
38
3C
2C
64
66
46
C2
C3
83
ENDCHAR
STARTCHAR 03BC
ENCODING 956
SWIDTH 565 0
DWIDTH 11 0
BBX 8 14 2 -4
BITMAP
83
83
83
83
83
83
83
87
EF
FB
80
80
80
80
ENDCHAR
STARTCHAR 03BD
ENCODING 957
SWIDTH 514 0
DWIDTH 10 0
BBX 9 10 0 0
BITMAP
C180
6180
6180
6300
3300
3200
1600
1E00
1C00
0C00
ENDCHAR
STARTCHAR 03BE
ENCODING 958
SWIDTH 462 0
DWIDTH 9 0
BBX 8 18 1 -4
BITMAP
FE
30
60
C0
C0
60
3E
70
C0
80
80
C0
E0
7F
03
03
03
02
ENDCHAR
STARTCHAR 03BF
ENCODING 959
SWIDTH 565 0
DWIDTH 11 0
BBX 9 10 1 0
BITMAP
3E00
7F00
C180
C180
C180
C180
C180
C180
7700
3E00
ENDCHAR
STARTCHAR 03C0
ENCODING 960
SWIDTH 668 0
DWIDTH 13 0
BBX 11 10 1 0
BITMAP
FFE0
20C0
20C0
20C0
20C0
20C0
20C0
20C0
20C0
20C0
ENDCHAR
STARTCHAR 03C1
ENCODING 961
SWIDTH 565 0
DWIDTH 11 0
BBX 9 14 1 -4
BITMAP
1E00
7F00
6180
C180
C080
C080
C180
E180
FF00
DE00
C000
C000
C000
C000
ENDCHAR
STARTCHAR 03C2
ENCODING 962
SWIDTH 462 0
DWIDTH 9 0
BBX 8 15 1 -5
BITMAP
3C
7F
C3
81
80
80
80
C0
70
3C
07
03
03
03
02
ENDCHAR
STARTCHAR 03C3
ENCODING 963
SWIDTH 617 0
DWIDTH 12 0
BBX 10 10 1 0
BITMAP
1FC0
7F00
6180
C180
C080
C080
C180
6180
7F00
1E00
ENDCHAR
STARTCHAR 03C4
ENCODING 964
SWIDTH 411 0
DWIDTH 8 0
BBX 8 10 0 0
BITMAP
FF
18
18
18
18
18
18
18
18
18
ENDCHAR
STARTCHAR 03C5
ENCODING 965
SWIDTH 565 0
DWIDTH 11 0
BBX 8 10 1 0
BITMAP
C1
C1
C1
C1
C1
C1
C1
C1
77
3E
ENDCHAR
STARTCHAR 03C6
ENCODING 966
SWIDTH 668 0
DWIDTH 13 0
BBX 11 15 1 -5
BITMAP
2F00
6F80
CCC0
CC40
8C60
8C60
8C60
CC60
CCC0
7F80
3F00
0C00
0C00
0C00
0C00
ENDCHAR
STARTCHAR 03C7
ENCODING 967
SWIDTH 514 0
DWIDTH 10 0
BBX 8 14 1 -4
BITMAP
C3
C3
66
66
3C
3C
18
18
3C
3C
66
66
C3
C3
ENDCHAR
STARTCHAR 03C8
ENCODING 968
SWIDTH 720 0
DWIDTH 14 0
BBX 10 14 2 -4
BITMAP
8C40
8C40
8C40
8C40
8C40
8C40
8C40
CCC0
ECC0
7F80
0C00
0C00
0C00
0C00
ENDCHAR
STARTCHAR 03C9
ENCODING 969
SWIDTH 771 0
DWIDTH 15 0
BBX 11 10 2 0
BITMAP
60C0
4040
C460
C420
8420
8420
8420
C660
EBE0
79C0
ENDCHAR
STARTCHAR 03CA
ENCODING 970
SWIDTH 205 0
DWIDTH 4 0
BBX 6 14 -1 0
BITMAP
EC
EC
00
00
30
30
30
30
30
30
30
30
30
30
ENDCHAR
STARTCHAR 03CB
ENCODING 971
SWIDTH 565 0
DWIDTH 11 0
BBX 8 14 1 0
BITMAP
36
36
00
00
C1
C1
C1
C1
C1
C1
C1
C1
77
3E
ENDCHAR
STARTCHAR 03CC
ENCODING 972
SWIDTH 565 0
DWIDTH 11 0
BBX 9 15 1 0
BITMAP
0800
0800
0800
0800
0000
3E00
7F00
C180
C180
C180
C180
C180
C180
7700
3E00
ENDCHAR
STARTCHAR 03CD
ENCODING 973
SWIDTH 565 0
DWIDTH 11 0
BBX 8 15 1 0
BITMAP
08
08
08
08
00
C1
C1
C1
C1
C1
C1
C1
C1
77
3E
ENDCHAR
STARTCHAR 03CE
ENCODING 974
SWIDTH 771 0
DWIDTH 15 0
BBX 11 15 2 0
BITMAP
0400
0400
0400
0400
0000
60C0
4040
C460
C420
8420
8420
8420
C660
EBE0
79C0
ENDCHAR
STARTCHAR 03D1
ENCODING 977
SWIDTH 565 0
DWIDTH 11 0
BBX 10 15 0 0
BITMAP
1E00
3300
2180
6080
2080
3080
1E80
07C0
0080
C080
4080
6180
6180
3F00
1E00
ENDCHAR
STARTCHAR 03D5
ENCODING 981
SWIDTH 565 0
DWIDTH 11 0
BBX 11 17 0 -4
BITMAP
0400
0400
0400
3F80
64C0
44C0
C460
C460
C460
C440
44C0
64C0
3F80
0400
0400
0400
0400
ENDCHAR
STARTCHAR 03D6
ENCODING 982
SWIDTH 771 0
DWIDTH 15 0
BBX 12 10 1 0
BITMAP
FF80
30E0
6030
6030
4210
4210
4210
6730
7FF0
3DE0
ENDCHAR
STARTCHAR 0400
ENCODING 1024
SWIDTH 668 0
DWIDTH 13 0
BBX 10 18 2 0
BITMAP
1800
0800
0400
0000
FFC0
FFC0
C000
C000
C000
C000
FF80
FF80
C000
C000
C000
C000
FFC0
FFC0
ENDCHAR
STARTCHAR 0401
ENCODING 1025
SWIDTH 668 0
DWIDTH 13 0
BBX 10 18 2 0
BITMAP
3600
3600
0000
0000
FF80
FF80
8000
8000
8000
8000
FF80
FF80
8000
8000
8000
8000
FFC0
FFC0
ENDCHAR
STARTCHAR 0402
ENCODING 1026
SWIDTH 874 0
DWIDTH 17 0
BBX 15 14 0 0
BITMAP
FFC0
FFC0
0600
0600
0670
07FC
0706
0606
0606
0606
0606
0606
067E
067C
ENDCHAR
STARTCHAR 0403
ENCODING 1027
SWIDTH 565 0
DWIDTH 11 0
BBX 8 18 2 0
BITMAP
1C
10
20
00
FF
FF
80
80
80
80
80
80
80
80
80
80
80
80
ENDCHAR
STARTCHAR 0404
ENCODING 1028
SWIDTH 720 0
DWIDTH 14 0
BBX 14 14 0 0
BITMAP
0FC0
1FF0
3038
6018
6000
C000
FF00
FF00
C000
600C
6018
3038
1FF0
0FC0
ENDCHAR
STARTCHAR 0405
ENCODING 1029
SWIDTH 668 0
DWIDTH 13 0
BBX 11 14 1 0
BITMAP
1F00
7FC0
60C0
C060
C000
7000
3F00
07C0
00E0
C060
C060
E060
7FC0
1F00
ENDCHAR
STARTCHAR 0406
ENCODING 1030
SWIDTH 257 0
DWIDTH 5 0
BBX 2 14 2 0
BITMAP
C0
C0
C0
C0
C0
C0
C0
C0
C0
C0
C0
C0
C0
C0
ENDCHAR
STARTCHAR 0407
ENCODING 1031
SWIDTH 257 0
DWIDTH 5 0
BBX 5 18 0 0
BITMAP
D8
D8
00
00
30
30
30
30
30
30
30
30
30
30
30
30
30
30
ENDCHAR
STARTCHAR 0408
ENCODING 1032
SWIDTH 514 0
DWIDTH 10 0
BBX 8 14 0 0
BITMAP
03
03
03
03
03
03
03
03
03
C3
C3
C3
7F
3C
ENDCHAR
STARTCHAR 0409
ENCODING 1033
SWIDTH 1080 0
DWIDTH 21 0
BBX 20 14 0 0
BITMAP
1FF000
1FF000
183000
183000
183000
183000
183FC0
183FE0
183030
183030
103030
303030
F03FE0
E03FC0
ENDCHAR
STARTCHAR 040A
ENCODING 1034
SWIDTH 1028 0
DWIDTH 20 0
BBX 18 14 1 0
BITMAP
C08000
C08000
C08000
C08000
C08000
C08000
FFFF00
FFFF80
C080C0
C080C0
C080C0
C080C0
C0FF80
C0FF00
ENDCHAR
STARTCHAR 040B
ENCODING 1035
SWIDTH 874 0
DWIDTH 17 0
BBX 15 14 0 0
BITMAP
FFE0
FFE0
0600
0600
0670
07FC
070C
0606
0606
0606
0606
0606
0606
0606
ENDCHAR
STARTCHAR 040C
ENCODING 1036
SWIDTH 565 0
DWIDTH 11 0
BBX 9 18 1 0
BITMAP
0600
0C00
1800
0000
C300
C300
C600
C600
CC00
CC00
F800
F800
CC00
C600
C600
C300
C180
C180
ENDCHAR
STARTCHAR 040D
ENCODING 1037
SWIDTH 720 0
DWIDTH 14 0
BBX 11 18 1 0
BITMAP
0C00
0600
0200
0000
C020
C020
C060
C0E0
C1A0
C320
C720
CE20
DC20
D820
F020
E020
C020
C020
ENDCHAR
STARTCHAR 040E
ENCODING 1038
SWIDTH 617 0
DWIDTH 12 0
BBX 11 18 1 0
BITMAP
2100
3300
1E00
0000
C060
C0E0
60C0
60C0
6180
3180
3300
1B00
1A00
0E00
0E00
0C00
3C00
3800
ENDCHAR
STARTCHAR 040F
ENCODING 1039
SWIDTH 720 0
DWIDTH 14 0
BBX 10 17 2 -3
BITMAP
8040
8040
8040
8040
8040
8040
8040
8040
8040
8040
8040
8040
FFC0
FFC0
0C00
0C00
0C00
ENDCHAR
STARTCHAR 0410
ENCODING 1040
SWIDTH 668 0
DWIDTH 13 0
BBX 12 14 0 0
BITMAP
0700
0700
0D80
0D80
0D80
18C0
18C0
18C0
3FE0
3FE0
3060
6030
6030
C030
ENDCHAR
STARTCHAR 0411
ENCODING 1041
SWIDTH 668 0
DWIDTH 13 0
BBX 11 14 1 0
BITMAP
FFC0
FFC0
C000
C000
C000
C000
FF80
FFC0
C060
C060
C060
C060
FFC0
FF80
ENDCHAR
STARTCHAR 0412
ENCODING 1042
SWIDTH 668 0
DWIDTH 13 0
BBX 10 14 2 0
BITMAP
FF00
FF80
8180
80C0
8080
8180
FF00
FF80
80C0
80C0
80C0
80C0
FF80
FF00
ENDCHAR
STARTCHAR 0413
ENCODING 1043
SWIDTH 565 0
DWIDTH 11 0
BBX 8 14 2 0
BITMAP
FF
FF
80
80
80
80
80
80
80
80
80
80
80
80
ENDCHAR
STARTCHAR 0414
ENCODING 1044
SWIDTH 668 0
DWIDTH 13 0
BBX 13 17 0 -3
BITMAP
0FF0
0FF0
0830
0830
0830
0830
0830
0830
0830
1830
1830
3030
FFF8
FFF8
C018
C018
C018
ENDCHAR
STARTCHAR 0415
ENCODING 1045
SWIDTH 668 0
DWIDTH 13 0
BBX 10 14 2 0
BITMAP
FF80
FF80
8000
8000
8000
8000
FF80
FF80
8000
8000
8000
8000
FFC0
FFC0
ENDCHAR
STARTCHAR 0416
ENCODING 1046
SWIDTH 925 0
DWIDTH 18 0
BBX 18 14 0 0
BITMAP
60C180
70C300
30C300
18C600
18C600
0CCC00
0FF800
0FFC00
0CCC00
18C600
30C300
70C300
60C180
C0C0C0
ENDCHAR
STARTCHAR 0417
ENCODING 1047
SWIDTH 617 0
DWIDTH 12 0
BBX 10 14 1 0
BITMAP
1E00
7F00
6180
4180
0180
0380
0E00
0380
0180
C0C0
C080
E180
7F80
3E00
ENDCHAR
STARTCHAR 0418
ENCODING 1048
SWIDTH 720 0
DWIDTH 14 0
BBX 11 14 1 0
BITMAP
C020
C020
C060
C0E0
C1A0
C320
C720
CE20
DC20
D820
F020
E020
C020
C020
ENDCHAR
STARTCHAR 0419
ENCODING 1049
SWIDTH 720 0
DWIDTH 14 0
BBX 11 18 1 0
BITMAP
1080
1980
0F00
0000
C020
C020
C060
C0E0
C1A0
C320
C720
CE20
DC20
D820
F020
E020
C020
C020
ENDCHAR
STARTCHAR 041A
ENCODING 1050
SWIDTH 565 0
DWIDTH 11 0
BBX 9 14 1 0
BITMAP
C300
C300
C600
C600
CC00
CC00
F800
F800
CC00
C600
C600
C300
C180
C180
ENDCHAR
STARTCHAR 041B
ENCODING 1051
SWIDTH 668 0
DWIDTH 13 0
BBX 12 14 0 0
BITMAP
3FF0
3FF0
3030
3030
3030
3030
3030
3030
3030
3030
3030
3030
E030
C030
ENDCHAR
STARTCHAR 041C
ENCODING 1052
SWIDTH 822 0
DWIDTH 16 0
BBX 14 14 1 0
BITMAP
E01C
E01C
F03C
D03C
D02C
D86C
C86C
CC4C
CCCC
C4CC
C68C
C78C
C38C
C30C
ENDCHAR
STARTCHAR 041D
ENCODING 1053
SWIDTH 720 0
DWIDTH 14 0
BBX 10 14 2 0
BITMAP
8040
8040
8040
8040
8040
8040
FFC0
FFC0
8040
8040
8040
8040
8040
8040
ENDCHAR
STARTCHAR 041E
ENCODING 1054
SWIDTH 771 0
DWIDTH 15 0
BBX 13 14 1 0
BITMAP
0F80
3FE0
7030
6018
C018
C018
C008
C008
C018
C018
E018
7030
3FE0
0F80
ENDCHAR
STARTCHAR 041F
ENCODING 1055
SWIDTH 720 0
DWIDTH 14 0
BBX 10 14 2 0
BITMAP
FFC0
FFC0
8040
8040
8040
8040
8040
8040
8040
8040
8040
8040
8040
8040
ENDCHAR
STARTCHAR 0420
ENCODING 1056
SWIDTH 668 0
DWIDTH 13 0
BBX 10 14 2 0
BITMAP
FF00
FF80
C0C0
C0C0
C0C0
C0C0
FF80
FF00
C000
C000
C000
C000
C000
C000
ENDCHAR
STARTCHAR 0421
ENCODING 1057
SWIDTH 720 0
DWIDTH 14 0
BBX 12 14 1 0
BITMAP
0F80
3FE0
6060
6030
C030
C000
C000
C000
C000
C030
6030
6060
3FE0
0F80
ENDCHAR
STARTCHAR 0422
ENCODING 1058
SWIDTH 617 0
DWIDTH 12 0
BBX 12 14 0 0
BITMAP
FFF0
FFF0
0600
0600
0600
0600
0600
0600
0600
0600
0600
0600
0600
0600
ENDCHAR
STARTCHAR 0423
ENCODING 1059
SWIDTH 617 0
DWIDTH 12 0
BBX 11 14 1 0
BITMAP
C060
C0E0
60C0
60C0
6180
3180
3300
1B00
1A00
0E00
0E00
0C00
3C00
3800
ENDCHAR
STARTCHAR 0424
ENCODING 1060
SWIDTH 771 0
DWIDTH 15 0
BBX 13 14 1 0
BITMAP
0600
0600
3FE0
7670
C638
C618
8618
8618
C618
C638
7670
3FE0
0600
0600
ENDCHAR
STARTCHAR 0425
ENCODING 1061
SWIDTH 668 0
DWIDTH 13 0
BBX 11 14 1 0
BITMAP
C060
60C0
70C0
3180
1B00
1E00
0E00
0E00
1B00
1B00
3180
60C0
E0E0
C060
ENDCHAR
STARTCHAR 0426
ENCODING 1062
SWIDTH 720 0
DWIDTH 14 0
BBX 12 17 2 -3
BITMAP
8060
8060
8060
8060
8060
8060
8060
8060
8060
8060
8060
8060
FFF0
FFF0
0030
0030
0030
ENDCHAR
STARTCHAR 0427
ENCODING 1063
SWIDTH 668 0
DWIDTH 13 0
BBX 11 14 1 0
BITMAP
C060
C060
C060
C060
C060
C060
C060
7FE0
3FE0
0060
0060
0060
0060
0060
ENDCHAR
STARTCHAR 0428
ENCODING 1064
SWIDTH 925 0
DWIDTH 18 0
BBX 16 14 1 0
BITMAP
C183
C183
C183
C183
C183
C183
C183
C183
C183
C183
C183
C183
FFFF
FFFF
ENDCHAR
STARTCHAR 0429
ENCODING 1065
SWIDTH 925 0
DWIDTH 18 0
BBX 17 17 1 -3
BITMAP
C18300
C18300
C18300
C18300
C18300
C18300
C18300
C18300
C18300
C18300
C18300
C18300
FFFF80
FFFF80
000180
000180
000180
ENDCHAR
STARTCHAR 042A
ENCODING 1066
SWIDTH 771 0
DWIDTH 15 0
BBX 16 14 -1 0
BITMAP
FF00
FF00
0300
0300
0300
0300
03FC
03FE
0307
0303
0303
0307
03FE
03FC
ENDCHAR
STARTCHAR 042B
ENCODING 1067
SWIDTH 874 0
DWIDTH 17 0
BBX 14 14 2 0
BITMAP
800C
800C
800C
800C
800C
800C
FF0C
FF8C
80CC
80CC
80CC
80CC
FF8C
FF0C
ENDCHAR
STARTCHAR 042C
ENCODING 1068
SWIDTH 668 0
DWIDTH 13 0
BBX 10 14 2 0
BITMAP
8000
8000
8000
8000
8000
8000
FF00
FF80
80C0
80C0
80C0
80C0
FF80
FF00
ENDCHAR
STARTCHAR 042D
ENCODING 1069
SWIDTH 720 0
DWIDTH 14 0
BBX 14 14 0 0
BITMAP
0FC0
3FE0
7030
6018
0018
000C
03FC
03FC
000C
C018
6018
7030
3FE0
0FC0
ENDCHAR
STARTCHAR 042E
ENCODING 1070
SWIDTH 1028 0
DWIDTH 20 0
BBX 18 14 1 0
BITMAP
C07C00
C1FF00
C38380
C30180
C60080
C600C0
FE00C0
FE00C0
C600C0
C60080
C30180
C38380
C1FF00
C07C00
ENDCHAR
STARTCHAR 042F
ENCODING 1071
SWIDTH 720 0
DWIDTH 14 0
BBX 11 14 1 0
BITMAP
3FE0
7FE0
6060
4060
4060
6060
3FE0
3FE0
6060
6060
6060
6060
4060
C060
ENDCHAR
STARTCHAR 0430
ENCODING 1072
SWIDTH 565 0
DWIDTH 11 0
BBX 9 10 1 0
BITMAP
3E00
7F00
C300
0300
3F00
F100
C100
C300
EF00
7980
ENDCHAR
STARTCHAR 0431
ENCODING 1073
SWIDTH 565 0
DWIDTH 11 0
BBX 9 15 1 0
BITMAP
0200
0200
0E00
3C00
6000
5E00
FF00
C180
C180
C180
C180
C180
C180
7700
3E00
ENDCHAR
STARTCHAR 0432
ENCODING 1074
SWIDTH 514 0
DWIDTH 10 0
BBX 9 10 1 0
BITMAP
FE00
C300
C100
C300
FE00
C300
C180
C180
C380
FF00
ENDCHAR
STARTCHAR 0433
ENCODING 1075
SWIDTH 360 0
DWIDTH 7 0
BBX 6 10 1 0
BITMAP
FC
C0
C0
C0
C0
C0
C0
C0
C0
C0
ENDCHAR
STARTCHAR 0434
ENCODING 1076
SWIDTH 565 0
DWIDTH 11 0
BBX 11 12 0 -2
BITMAP
1FC0
18C0
18C0
18C0
18C0
10C0
30C0
30C0
E0C0
FFE0
C060
C060
ENDCHAR
STARTCHAR 0435
ENCODING 1077
SWIDTH 565 0
DWIDTH 11 0
BBX 9 10 1 0
BITMAP
3E00
7F00
C180
C180
FF80
C000
C000
C180
7700
3E00
ENDCHAR
STARTCHAR 0436
ENCODING 1078
SWIDTH 668 0
DWIDTH 13 0
BBX 13 10 0 0
BITMAP
6230
6230
3260
3260
1FC0
3260
3260
6230
6230
C218
ENDCHAR
STARTCHAR 0437
ENCODING 1079
SWIDTH 462 0
DWIDTH 9 0
BBX 7 10 1 0
BITMAP
38
7C
C6
06
1C
0E
06
C6
EE
78
ENDCHAR
STARTCHAR 0438
ENCODING 1080
SWIDTH 565 0
DWIDTH 11 0
BBX 7 10 2 0
BITMAP
82
86
8E
8A
9A
B2
E2
C2
C2
82
ENDCHAR
STARTCHAR 0439
ENCODING 1081
SWIDTH 565 0
DWIDTH 11 0
BBX 7 14 2 0
BITMAP
44
7C
00
00
82
86
8E
8A
9A
B2
E2
C2
C2
82
ENDCHAR
STARTCHAR 043A
ENCODING 1082
SWIDTH 462 0
DWIDTH 9 0
BBX 8 10 1 0
BITMAP
86
86
8C
8C
F8
98
8C
86
86
83
ENDCHAR
STARTCHAR 043B
ENCODING 1083
SWIDTH 565 0
DWIDTH 11 0
BBX 9 10 1 0
BITMAP
7F80
6180
6180
6180
6180
6180
6180
6180
C180
8180
ENDCHAR
STARTCHAR 043C
ENCODING 1084
SWIDTH 668 0
DWIDTH 13 0
BBX 12 10 1 0
BITMAP
C070
E0F0
A0B0
B0B0
91B0
9130
9B30
8A30
8E30
8630
ENDCHAR
STARTCHAR 043D
ENCODING 1085
SWIDTH 565 0
DWIDTH 11 0
BBX 8 10 1 0
BITMAP
C1
C1
C1
C1
FF
C1
C1
C1
C1
C1
ENDCHAR
STARTCHAR 043E
ENCODING 1086
SWIDTH 565 0
DWIDTH 11 0
BBX 9 10 1 0
BITMAP
3E00
7F00
C180
C180
C180
C180
C180
C180
7700
3E00
ENDCHAR
STARTCHAR 043F
ENCODING 1087
SWIDTH 565 0
DWIDTH 11 0
BBX 8 10 1 0
BITMAP
FF
C1
C1
C1
C1
C1
C1
C1
C1
C1
ENDCHAR
STARTCHAR 0440
ENCODING 1088
SWIDTH 565 0
DWIDTH 11 0
BBX 9 14 1 -4
BITMAP
DE00
FF00
E180
C180
C080
C080
C180
C180
FF00
DE00
C000
C000
C000
C000
ENDCHAR
STARTCHAR 0441
ENCODING 1089
SWIDTH 514 0
DWIDTH 10 0
BBX 8 10 1 0
BITMAP
3C
7E
C3
80
80
80
81
C3
7E
3C
ENDCHAR
STARTCHAR 0442
ENCODING 1090
SWIDTH 462 0
DWIDTH 9 0
BBX 7 10 1 0
BITMAP
FE
10
10
10
10
10
10
10
10
10
ENDCHAR
STARTCHAR 0443
ENCODING 1091
SWIDTH 514 0
DWIDTH 10 0
BBX 8 14 1 -4
BITMAP
83
C3
C2
46
66
64
2C
38
38
18
10
30
F0
E0
ENDCHAR
STARTCHAR 0444
ENCODING 1092
SWIDTH 822 0
DWIDTH 16 0
BBX 14 17 1 -4
BITMAP
0300
0300
0300
1FE0
3330
6318
4308
C30C
C30C
4308
6318
3330
1FE0
0300
0300
0300
0300
ENDCHAR
STARTCHAR 0445
ENCODING 1093
SWIDTH 514 0
DWIDTH 10 0
BBX 8 10 1 0
BITMAP
C3
46
64
3C
18
18
3C
66
46
C3
ENDCHAR
STARTCHAR 0446
ENCODING 1094
SWIDTH 565 0
DWIDTH 11 0
BBX 8 13 2 -3
BITMAP
82
82
82
82
82
82
82
82
82
FF
03
03
03
ENDCHAR
STARTCHAR 0447
ENCODING 1095
SWIDTH 514 0
DWIDTH 10 0
BBX 8 10 1 0
BITMAP
C3
C3
C3
C3
C3
7F
03
03
03
03
ENDCHAR
STARTCHAR 0448
ENCODING 1096
SWIDTH 822 0
DWIDTH 16 0
BBX 13 10 1 0
BITMAP
C308
C308
C308
C308
C308
C308
C308
C308
C308
FFF8
ENDCHAR
STARTCHAR 0449
ENCODING 1097
SWIDTH 822 0
DWIDTH 16 0
BBX 14 13 1 -3
BITMAP
C308
C308
C308
C308
C308
C308
C308
C308
C308
FFFC
0004
0004
0004
ENDCHAR
STARTCHAR 044A
ENCODING 1098
SWIDTH 617 0
DWIDTH 12 0
BBX 12 10 0 0
BITMAP
F800
0800
0800
0800
0FC0
0860
0830
0830
0860
0FE0
ENDCHAR
STARTCHAR 044B
ENCODING 1099
SWIDTH 720 0
DWIDTH 14 0
BBX 10 10 2 0
BITMAP
8040
8040
8040
8040
FC40
8640
8340
8340
8640
FC40
ENDCHAR
STARTCHAR 044C
ENCODING 1100
SWIDTH 514 0
DWIDTH 10 0
BBX 8 10 1 0
BITMAP
C0
C0
C0
C0
FE
C3
C1
C1
C3
FE
ENDCHAR
STARTCHAR 044D
ENCODING 1101
SWIDTH 514 0
DWIDTH 10 0
BBX 9 10 0 0
BITMAP
1E00
7F00
6180
0080
0F80
0080
C080
6180
7F00
1E00
ENDCHAR
STARTCHAR 044E
ENCODING 1102
SWIDTH 771 0
DWIDTH 15 0
BBX 13 10 1 0
BITMAP
C3E0
C7F0
CC18
CC18
FC18
CC18
CC18
CC18
C770
C3E0
ENDCHAR
STARTCHAR 044F
ENCODING 1103
SWIDTH 565 0
DWIDTH 11 0
BBX 8 10 1 0
BITMAP
7F
E3
C3
C3
E3
3F
63
43
43
C3
ENDCHAR
STARTCHAR 0450
ENCODING 1104
SWIDTH 565 0
DWIDTH 11 0
BBX 9 14 1 0
BITMAP
3000
1800
0800
0000
3E00
7F00
C180
C180
FF80
8000
C000
C100
7700
3E00
ENDCHAR
STARTCHAR 0451
ENCODING 1105
SWIDTH 565 0
DWIDTH 11 0
BBX 9 14 1 0
BITMAP
3600
3600
0000
0000
3E00
7F00
C180
C180
FF80
C000
C000
C180
7700
3E00
ENDCHAR
STARTCHAR 0452
ENCODING 1106
SWIDTH 565 0
DWIDTH 11 0
BBX 11 16 -1 -2
BITMAP
3000
3000
FC00
3000
3380
3FC0
3860
3060
3060
3060
3060
3060
3060
3060
00C0
07C0
ENDCHAR
STARTCHAR 0453
ENCODING 1107
SWIDTH 360 0
DWIDTH 7 0
BBX 6 14 1 0
BITMAP
18
10
20
00
FC
C0
C0
C0
C0
C0
C0
C0
C0
C0
ENDCHAR
STARTCHAR 0454
ENCODING 1108
SWIDTH 514 0
DWIDTH 10 0
BBX 9 10 0 0
BITMAP
1E00
3F80
6180
4000
FC00
C000
4080
6180
3F80
1E00
ENDCHAR
STARTCHAR 0455
ENCODING 1109
SWIDTH 514 0
DWIDTH 10 0
BBX 8 10 1 0
BITMAP
7C
FE
C2
C0
78
1E
03
C3
FE
7C
ENDCHAR
STARTCHAR 0456
ENCODING 1110
SWIDTH 205 0
DWIDTH 4 0
BBX 2 14 1 0
BITMAP
C0
C0
00
00
C0
C0
C0
C0
C0
C0
C0
C0
C0
C0
ENDCHAR
STARTCHAR 0457
ENCODING 1111
SWIDTH 257 0
DWIDTH 5 0
BBX 5 14 0 0
BITMAP
D8
D8
00
00
30
30
30
30
30
30
30
30
30
30
ENDCHAR
STARTCHAR 0458
ENCODING 1112
SWIDTH 205 0
DWIDTH 4 0
BBX 3 18 0 -5
BITMAP
60
60
00
00
60
60
60
60
60
60
60
60
60
60
60
60
60
E0
ENDCHAR
STARTCHAR 0459
ENCODING 1113
SWIDTH 925 0
DWIDTH 18 0
BBX 15 10 1 0
BITMAP
7F80
6180
6180
6180
61FC
6186
6182
6182
C186
81FC
ENDCHAR
STARTCHAR 045A
ENCODING 1114
SWIDTH 822 0
DWIDTH 16 0
BBX 14 10 1 0
BITMAP
C300
C300
C300
C300
FFF8
C30C
C304
C304
C30C
C3F8
ENDCHAR
STARTCHAR 045B
ENCODING 1115
SWIDTH 565 0
DWIDTH 11 0
BBX 11 14 -1 0
BITMAP
3000
3000
FC00
3000
3380
3FC0
3860
3060
3060
3060
3060
3060
3060
3060
ENDCHAR
STARTCHAR 045C
ENCODING 1116
SWIDTH 462 0
DWIDTH 9 0
BBX 8 14 1 0
BITMAP
18
10
20
00
86
86
8C
8C
F8
98
8C
86
86
83
ENDCHAR
STARTCHAR 045D
ENCODING 1117
SWIDTH 565 0
DWIDTH 11 0
BBX 7 14 2 0
BITMAP
60
30
10
00
82
86
8E
8A
9A
B2
E2
C2
C2
82
ENDCHAR
STARTCHAR 045E
ENCODING 1118
SWIDTH 514 0
DWIDTH 10 0
BBX 8 18 1 -4
BITMAP
46
3C
00
00
83
C3
C2
46
66
64
2C
38
38
18
10
30
F0
E0
ENDCHAR
STARTCHAR 045F
ENCODING 1119
SWIDTH 565 0
DWIDTH 11 0
BBX 7 13 2 -3
BITMAP
86
86
86
86
86
86
86
86
86
FE
10
10
10
ENDCHAR
STARTCHAR 0462
ENCODING 1122
SWIDTH 771 0
DWIDTH 15 0
BBX 14 14 0 0
BITMAP
0800
FF80
FF80
0800
0800
0800
0FF0
0FF8
080C
080C
080C
080C
0FF8
0FF0
ENDCHAR
STARTCHAR 0463
ENCODING 1123
SWIDTH 617 0
DWIDTH 12 0
BBX 10 13 1 0
BITMAP
6000
6000
6000
F800
6000
6000
6000
7F00
6180
60C0
60C0
6180
7F00
ENDCHAR
STARTCHAR 0472
ENCODING 1138
SWIDTH 771 0
DWIDTH 15 0
BBX 13 14 1 0
BITMAP
0F80
3FE0
6030
C018
C018
C818
FE18
C3F8
C098
C018
6018
7030
3FE0
0F80
ENDCHAR
STARTCHAR 0473
ENCODING 1139
SWIDTH 565 0
DWIDTH 11 0
BBX 9 10 1 0
BITMAP
3E00
7F00
C100
C180
F980
FF80
C180
C180
7700
3E00
ENDCHAR
STARTCHAR 0474
ENCODING 1140
SWIDTH 822 0
DWIDTH 16 0
BBX 12 14 2 0
BITMAP
C030
C070
4040
60C0
60C0
2080
3180
3180
1100
1900
1B00
0E00
0E00
0600
ENDCHAR
STARTCHAR 0475
ENCODING 1141
SWIDTH 617 0
DWIDTH 12 0
BBX 9 10 2 0
BITMAP
C380
C300
C600
4600
6600
6400
2400
3C00
1800
1800
ENDCHAR
STARTCHAR 0490
ENCODING 1168
SWIDTH 514 0
DWIDTH 10 0
BBX 11 17 1 0
BITMAP
0060
00C0
0080
FF80
FF80
C000
C000
C000
C000
C000
C000
C000
C000
C000
C000
C000
C000
ENDCHAR
STARTCHAR 0491
ENCODING 1169
SWIDTH 411 0
DWIDTH 8 0
BBX 8 13 2 0
BITMAP
03
02
04
FC
80
80
80
80
80
80
80
80
80
ENDCHAR
STARTCHAR 0492
ENCODING 1170
SWIDTH 514 0
DWIDTH 10 0
BBX 9 14 1 0
BITMAP
7F80
7F80
4000
4000
4000
4000
FE00
FE00
4000
4000
4000
4000
4000
4000
ENDCHAR
STARTCHAR 0493
ENCODING 1171
SWIDTH 411 0
DWIDTH 8 0
BBX 7 10 1 0
BITMAP
FE
C0
C0
C0
F8
C0
C0
C0
C0
C0
ENDCHAR
STARTCHAR 0496
ENCODING 1174
SWIDTH 1028 0
DWIDTH 20 0
BBX 20 17 0 -3
BITMAP
6040C0
304180
304180
184300
0C4600
0C4600
07FC00
0FFE00
0C4600
184300
304180
304180
6040F0
C04070
000030
000030
000030
ENDCHAR
STARTCHAR 0497
ENCODING 1175
SWIDTH 822 0
DWIDTH 16 0
BBX 16 13 0 -3
BITMAP
610C
310C
3118
1918
1FF0
1930
3118
310C
610C
C107
0003
0003
0003
ENDCHAR
STARTCHAR 0498
ENCODING 1176
SWIDTH 617 0
DWIDTH 12 0
BBX 10 18 1 -4
BITMAP
1E00
3F00
6180
4180
4180
0180
0F00
0F00
0180
00C0
C0C0
C080
6180
3F00
0C00
0C00
0600
3C00
ENDCHAR
STARTCHAR 0499
ENCODING 1177
SWIDTH 462 0
DWIDTH 9 0
BBX 7 14 1 -4
BITMAP
38
7C
C6
C6
0C
1C
06
C6
C6
7C
10
38
08
78
ENDCHAR
STARTCHAR 049A
ENCODING 1178
SWIDTH 668 0
DWIDTH 13 0
BBX 10 17 2 -3
BITMAP
8300
8600
8600
8C00
8C00
9800
F000
F800
9800
8C00
8600
8600
83C0
81C0
00C0
00C0
00C0
ENDCHAR
STARTCHAR 049B
ENCODING 1179
SWIDTH 514 0
DWIDTH 10 0
BBX 9 13 1 -3
BITMAP
C300
C600
C600
CC00
FC00
CC00
C600
C600
C380
C180
0080
0080
0080
ENDCHAR
STARTCHAR 049C
ENCODING 1180
SWIDTH 617 0
DWIDTH 12 0
BBX 10 14 2 0
BITMAP
8180
8300
B300
B600
BC00
BC00
F800
FC00
BC00
B600
B300
8300
8180
80C0
ENDCHAR
STARTCHAR 049D
ENCODING 1181
SWIDTH 514 0
DWIDTH 10 0
BBX 8 10 1 0
BITMAP
C3
D6
D6
DC
FC
DC
D6
D6
C3
C1
ENDCHAR
STARTCHAR 04A0
ENCODING 1184
SWIDTH 565 0
DWIDTH 11 0
BBX 14 14 -4 0
BITMAP
FE18
FE18
0630
0630
0660
0660
07C0
07C0
0660
0630
0630
0618
060C
060C
ENDCHAR
STARTCHAR 04A1
ENCODING 1185
SWIDTH 462 0
DWIDTH 9 0
BBX 12 10 -3 0
BITMAP
F860
0860
08C0
08C0
0F80
0980
08C0
0860
0860
0830
ENDCHAR
STARTCHAR 04A2
ENCODING 1186
SWIDTH 720 0
DWIDTH 14 0
BBX 12 17 2 -3
BITMAP
8040
8040
8040
8040
8040
8040
FFC0
FFC0
8040
8040
8040
8040
8070
8070
0030
0030
0030
ENDCHAR
STARTCHAR 04A3
ENCODING 1187
SWIDTH 565 0
DWIDTH 11 0
BBX 9 13 1 -3
BITMAP
C100
C100
C100
C100
FF00
C100
C100
C100
C100
C180
0180
0180
0180
ENDCHAR
STARTCHAR 04AA
ENCODING 1194
SWIDTH 720 0
DWIDTH 14 0
BBX 12 18 1 -4
BITMAP
0F80
3FC0
7060
6030
C030
C000
C000
C000
C000
C030
C030
6070
30E0
1FC0
0700
0700
0100
0F00
ENDCHAR
STARTCHAR 04AB
ENCODING 1195
SWIDTH 514 0
DWIDTH 10 0
BBX 8 14 1 -4
BITMAP
3C
7E
C3
C3
80
80
80
C3
E3
7E
10
1C
04
3C
ENDCHAR
STARTCHAR 04AE
ENCODING 1198
SWIDTH 668 0
DWIDTH 13 0
BBX 12 14 1 0
BITMAP
C070
C060
60C0
70C0
3180
1B00
1B00
0E00
0600
0600
0600
0600
0600
0600
ENDCHAR
STARTCHAR 04AF
ENCODING 1199
SWIDTH 514 0
DWIDTH 10 0
BBX 8 14 1 -4
BITMAP
83
C3
C2
46
66
64
2C
3C
18
18
18
18
18
18
ENDCHAR
STARTCHAR 04B0
ENCODING 1200
SWIDTH 668 0
DWIDTH 13 0
BBX 12 14 1 0
BITMAP
C070
C060
60C0
70C0
3180
1900
1B00
0E00
0600
0600
3F80
3F80
0600
0600
ENDCHAR
STARTCHAR 04B1
ENCODING 1201
SWIDTH 514 0
DWIDTH 10 0
BBX 8 14 1 -4
BITMAP
83
C3
C2
46
66
64
2C
3C
18
18
7E
18
18
18
ENDCHAR
STARTCHAR 04B2
ENCODING 1202
SWIDTH 720 0
DWIDTH 14 0
BBX 12 17 1 -3
BITMAP
C060
60C0
70C0
3180
1B00
1E00
0E00
0E00
1B00
1B00
3180
60C0
E0F0
C070
0010
0010
0010
ENDCHAR
STARTCHAR 04B3
ENCODING 1203
SWIDTH 514 0
DWIDTH 10 0
BBX 9 13 1 -3
BITMAP
C300
C600
6400
3C00
1800
3800
3C00
6600
C780
C380
0180
0180
0180
ENDCHAR
STARTCHAR 04B6
ENCODING 1206
SWIDTH 720 0
DWIDTH 14 0
BBX 12 17 1 -3
BITMAP
C060
C060
C060
C060
C060
C060
C060
7FE0
3FE0
0060
0060
0060
0070
0070
0030
0030
0030
ENDCHAR
STARTCHAR 04B7
ENCODING 1207
SWIDTH 514 0
DWIDTH 10 0
BBX 8 13 1 -3
BITMAP
C2
C2
C2
C2
C2
7E
02
02
02
03
01
01
01
ENDCHAR
STARTCHAR 04B8
ENCODING 1208
SWIDTH 720 0
DWIDTH 14 0
BBX 11 14 1 0
BITMAP
C060
C060
C060
C460
C460
C460
C460
75E0
3FE0
0460
0460
0460
0060
0060
ENDCHAR
STARTCHAR 04B9
ENCODING 1209
SWIDTH 514 0
DWIDTH 10 0
BBX 8 10 1 0
BITMAP
C3
C3
C3
D3
D3
FF
3B
13
03
03
ENDCHAR
STARTCHAR 04BA
ENCODING 1210
SWIDTH 720 0
DWIDTH 14 0
BBX 11 14 1 0
BITMAP
C000
C000
C000
C000
C000
FF80
FFC0
C060
C060
C060
C060
C060
C060
C060
ENDCHAR
STARTCHAR 04BB
ENCODING 1211
SWIDTH 565 0
DWIDTH 11 0
BBX 8 14 2 0
BITMAP
80
80
80
80
9C
BE
C3
83
83
83
83
83
83
83
ENDCHAR
STARTCHAR 04C0
ENCODING 1216
SWIDTH 257 0
DWIDTH 5 0
BBX 2 14 2 0
BITMAP
C0
C0
C0
C0
C0
C0
C0
C0
C0
C0
C0
C0
C0
C0
ENDCHAR
STARTCHAR 04CB
ENCODING 1227
SWIDTH 668 0
DWIDTH 13 0
BBX 11 17 1 -3
BITMAP
C060
C060
C060
C060
C060
C060
C060
7FE0
3FE0
0060
0060
0060
00E0
00E0
00C0
00C0
00C0
ENDCHAR
STARTCHAR 04CC
ENCODING 1228
SWIDTH 514 0
DWIDTH 10 0
BBX 8 13 1 -3
BITMAP
C3
C3
C3
C3
C3
7F
03
03
07
07
06
06
06
ENDCHAR
STARTCHAR 04CF
ENCODING 1231
SWIDTH 257 0
DWIDTH 5 0
BBX 2 14 2 0
BITMAP
C0
C0
C0
C0
C0
C0
C0
C0
C0
C0
C0
C0
C0
C0
ENDCHAR
STARTCHAR 04D8
ENCODING 1240
SWIDTH 771 0
DWIDTH 15 0
BBX 13 14 1 0
BITMAP
0F80
3FE0
6030
C018
0018
0018
FFF8
FFF8
C018
C018
6018
7030
3FE0
0F80
ENDCHAR
STARTCHAR 04D9
ENCODING 1241
SWIDTH 565 0
DWIDTH 11 0
BBX 9 10 1 0
BITMAP
3E00
7F00
C100
0180
0180
FF80
C180
C100
7700
3E00
ENDCHAR
STARTCHAR 04E2
ENCODING 1250
SWIDTH 720 0
DWIDTH 14 0
BBX 11 16 1 0
BITMAP
0F80
0000
C020
C020
C060
C0E0
C1A0
C320
C720
CE20
DC20
D820
F020
E020
C020
C020
ENDCHAR
STARTCHAR 04E3
ENCODING 1251
SWIDTH 565 0
DWIDTH 11 0
BBX 7 12 2 0
BITMAP
7C
00
82
86
8E
8A
9A
B2
E2
C2
C2
82
ENDCHAR
STARTCHAR 04E8
ENCODING 1256
SWIDTH 771 0
DWIDTH 15 0
BBX 13 14 1 0
BITMAP
0F80
3FE0
6030
C018
C018
C018
FFF8
FFF8
C018
C018
6018
7030
3FE0
0F80
ENDCHAR
STARTCHAR 04E9
ENCODING 1257
SWIDTH 565 0
DWIDTH 11 0
BBX 9 10 1 0
BITMAP
3E00
7F00
C100
C180
C180
FF80
C180
C180
7700
3E00
ENDCHAR
STARTCHAR 04EE
ENCODING 1262
SWIDTH 617 0
DWIDTH 12 0
BBX 11 17 1 0
BITMAP
1F00
0000
0000
C060
C0E0
60C0
60C0
6180
3180
3300
1B00
1A00
0E00
0E00
0C00
3C00
3800
ENDCHAR
STARTCHAR 04EF
ENCODING 1263
SWIDTH 514 0
DWIDTH 10 0
BBX 8 16 1 -4
BITMAP
7C
00
83
C3
C2
46
66
64
2C
38
38
18
10
30
F0
E0
ENDCHAR
STARTCHAR 1E80
ENCODING 7808
SWIDTH 925 0
DWIDTH 18 0
BBX 17 18 1 0
BITMAP
030000
018000
00C000
000000
C18180
C1C180
C1C300
C3C300
434300
626300
666200
662600
263600
343600
3C3400
3C1C00
181C00
181C00
ENDCHAR
STARTCHAR 1E81
ENCODING 7809
SWIDTH 720 0
DWIDTH 14 0
BBX 14 14 0 0
BITMAP
0600
0200
0100
0000
C30C
4308
6798
6798
6590
2490
3CF0
3CF0
1860
1860
ENDCHAR
STARTCHAR 1E82
ENCODING 7810
SWIDTH 925 0
DWIDTH 18 0
BBX 17 18 1 0
BITMAP
006000
004000
008000
000000
C18180
C1C180
C1C300
C3C300
434300
626300
666200
662600
263600
343600
3C3400
3C1C00
181C00
181C00
ENDCHAR
STARTCHAR 1E83
ENCODING 7811
SWIDTH 720 0
DWIDTH 14 0
BBX 14 14 0 0
BITMAP
0180
0300
0600
0000
C30C
4308
6798
6798
6590
2490
3CF0
3CF0
1860
1860
ENDCHAR
STARTCHAR 1E84
ENCODING 7812
SWIDTH 925 0
DWIDTH 18 0
BBX 17 18 1 0
BITMAP
036000
036000
000000
000000
C18180
C1C180
C1C300
C3C300
434300
626300
666200
662600
263600
343600
3C3400
3C1C00
181C00
181C00
ENDCHAR
STARTCHAR 1E85
ENCODING 7813
SWIDTH 720 0
DWIDTH 14 0
BBX 14 14 0 0
BITMAP
0D80
0D80
0000
0000
C30C
4308
6798
6798
6590
2490
3CF0
3CF0
1860
1860
ENDCHAR
STARTCHAR 1EF2
ENCODING 7922
SWIDTH 668 0
DWIDTH 13 0
BBX 12 18 1 0
BITMAP
1800
0C00
0600
0000
C070
C060
60C0
70C0
3180
1B00
1B00
0E00
0600
0600
0600
0600
0600
0600
ENDCHAR
STARTCHAR 1EF3
ENCODING 7923
SWIDTH 514 0
DWIDTH 10 0
BBX 8 18 1 -4
BITMAP
60
30
08
00
83
C3
C2
46
66
64
2C
38
38
18
10
30
E0
E0
ENDCHAR
STARTCHAR 2002
ENCODING 8194
SWIDTH 514 0
DWIDTH 10 0
BBX 0 0 0 0
BITMAP
ENDCHAR
STARTCHAR 2013
ENCODING 8211
SWIDTH 565 0
DWIDTH 11 0
BBX 11 1 0 5
BITMAP
FFE0
ENDCHAR
STARTCHAR 2014
ENCODING 8212
SWIDTH 977 0
DWIDTH 19 0
BBX 19 1 0 5
BITMAP
FFFFE0
ENDCHAR
STARTCHAR 2015
ENCODING 8213
SWIDTH 977 0
DWIDTH 19 0
BBX 19 1 0 5
BITMAP
FFFFE0
ENDCHAR
STARTCHAR 2017
ENCODING 8215
SWIDTH 565 0
DWIDTH 11 0
BBX 11 3 0 -4
BITMAP
FFE0
0000
FFE0
ENDCHAR
STARTCHAR 2018
ENCODING 8216
SWIDTH 205 0
DWIDTH 4 0
BBX 2 4 1 10
BITMAP
40
80
C0
C0
ENDCHAR
STARTCHAR 2019
ENCODING 8217
SWIDTH 205 0
DWIDTH 4 0
BBX 2 4 1 9
BITMAP
C0
C0
40
40
ENDCHAR
STARTCHAR 201A
ENCODING 8218
SWIDTH 205 0
DWIDTH 4 0
BBX 2 4 1 -2
BITMAP
C0
C0
40
40
ENDCHAR
STARTCHAR 201B
ENCODING 8219
SWIDTH 205 0
DWIDTH 4 0
BBX 2 5 1 9
BITMAP
C0
C0
80
80
40
ENDCHAR
STARTCHAR 201C
ENCODING 8220
SWIDTH 308 0
DWIDTH 6 0
BBX 5 4 1 10
BITMAP
90
90
D8
D8
ENDCHAR
STARTCHAR 201D
ENCODING 8221
SWIDTH 308 0
DWIDTH 6 0
BBX 5 4 1 9
BITMAP
D8
D8
48
88
ENDCHAR
STARTCHAR 201E
ENCODING 8222
SWIDTH 308 0
DWIDTH 6 0
BBX 5 4 1 -2
BITMAP
D8
D8
48
88
ENDCHAR
STARTCHAR 2020
ENCODING 8224
SWIDTH 565 0
DWIDTH 11 0
BBX 9 18 1 -4
BITMAP
1800
1800
1800
1800
FF80
FF80
1800
1800
1800
1800
1800
1800
1800
1800
1800
1800
1800
1800
ENDCHAR
STARTCHAR 2021
ENCODING 8225
SWIDTH 565 0
DWIDTH 11 0
BBX 9 18 1 -4
BITMAP
1800
1800
1800
1800
FF80
FF80
1800
1800
1800
1800
1800
1800
FF80
FF80
1800
1800
1800
1800
ENDCHAR
STARTCHAR 2022
ENCODING 8226
SWIDTH 360 0
DWIDTH 7 0
BBX 5 5 1 4
BITMAP
70
F8
F8
F8
70
ENDCHAR
STARTCHAR 2026
ENCODING 8230
SWIDTH 977 0
DWIDTH 19 0
BBX 15 2 2 0
BITMAP
C186
C186
ENDCHAR
STARTCHAR 2030
ENCODING 8240
SWIDTH 977 0
DWIDTH 19 0
BBX 19 14 0 0
BITMAP
786000
4C4000
848000
848000
4D0000
790000
020000
060000
04E1C0
0D3260
091220
191220
113260
20E1C0
ENDCHAR
STARTCHAR 2032
ENCODING 8242
SWIDTH 205 0
DWIDTH 4 0
BBX 2 5 1 8
BITMAP
40
C0
80
80
80
ENDCHAR
STARTCHAR 2033
ENCODING 8243
SWIDTH 360 0
DWIDTH 7 0
BBX 5 5 1 8
BITMAP
58
58
D0
90
90
ENDCHAR
STARTCHAR 2039
ENCODING 8249
SWIDTH 308 0
DWIDTH 6 0
BBX 3 6 2 3
BITMAP
60
C0
80
C0
60
20
ENDCHAR
STARTCHAR 203A
ENCODING 8250
SWIDTH 308 0
DWIDTH 6 0
BBX 3 5 2 3
BITMAP
80
C0
60
60
80
ENDCHAR
STARTCHAR 203C
ENCODING 8252
SWIDTH 514 0
DWIDTH 10 0
BBX 7 14 2 0
BITMAP
C6
C6
C6
C6
C6
C6
C6
C6
C4
84
04
00
C6
C6
ENDCHAR
STARTCHAR 203E
ENCODING 8254
SWIDTH 308 0
DWIDTH 6 0
BBX 12 1 -3 17
BITMAP
FFF0
ENDCHAR
STARTCHAR 2044
ENCODING 8260
SWIDTH 257 0
DWIDTH 5 0
BBX 9 14 -2 0
BITMAP
0080
0180
0100
0200
0200
0400
0800
0800
1000
3000
2000
4000
4000
8000
ENDCHAR
STARTCHAR 2070
ENCODING 8304
SWIDTH 308 0
DWIDTH 6 0
BBX 6 9 0 5
BITMAP
38
4C
C4
C4
C4
C4
C4
4C
38
ENDCHAR
STARTCHAR 2074
ENCODING 8308
SWIDTH 308 0
DWIDTH 6 0
BBX 6 8 0 5
BITMAP
18
18
28
48
C8
FC
08
08
ENDCHAR
STARTCHAR 2075
ENCODING 8309
SWIDTH 308 0
DWIDTH 6 0
BBX 6 9 0 5
BITMAP
7C
40
40
78
CC
04
04
CC
78
ENDCHAR
STARTCHAR 2076
ENCODING 8310
SWIDTH 308 0
DWIDTH 6 0
BBX 6 9 0 5
BITMAP
38
4C
C0
F8
CC
C4
C4
4C
38
ENDCHAR
STARTCHAR 2077
ENCODING 8311
SWIDTH 308 0
DWIDTH 6 0
BBX 6 8 0 6
BITMAP
FC
04
08
10
10
30
20
20
ENDCHAR
STARTCHAR 2078
ENCODING 8312
SWIDTH 308 0
DWIDTH 6 0
BBX 6 9 0 5
BITMAP
78
4C
44
4C
38
C4
84
C4
78
ENDCHAR
STARTCHAR 2079
ENCODING 8313
SWIDTH 308 0
DWIDTH 6 0
BBX 6 9 0 5
BITMAP
78
4C
C4
84
CC
7C
04
4C
78
ENDCHAR
STARTCHAR 207F
ENCODING 8319
SWIDTH 360 0
DWIDTH 7 0
BBX 5 6 1 5
BITMAP
F8
88
88
88
88
88
ENDCHAR
STARTCHAR 20A3
ENCODING 8355
SWIDTH 565 0
DWIDTH 11 0
BBX 10 14 1 0
BITMAP
FF80
FF80
C000
C000
C4C0
C500
FE00
FE00
C400
C400
C400
C400
C400
C400
ENDCHAR
STARTCHAR 20A4
ENCODING 8356
SWIDTH 565 0
DWIDTH 11 0
BBX 9 14 1 0
BITMAP
3E00
7F00
C180
C180
C180
C000
6000
FC00
3000
FC00
2000
4000
FF80
8780
ENDCHAR
STARTCHAR 20A7
ENCODING 8359
SWIDTH 1080 0
DWIDTH 21 0
BBX 17 14 2 0
BITMAP
F80000
FC0000
C60000
C60000
C60000
C60000
FC8000
F88000
C1C780
C08C80
C08600
C08180
C08C80
C0C780
ENDCHAR
STARTCHAR 20AC
ENCODING 8364
SWIDTH 565 0
DWIDTH 11 0
BBX 10 14 0 0
BITMAP
0780
1DC0
1800
3000
3000
FF80
2000
2000
FF00
3000
3000
1800
1FC0
0F80
ENDCHAR
STARTCHAR 20AF
ENCODING 8367
SWIDTH 925 0
DWIDTH 18 0
BBX 16 15 1 -3
BITMAP
3F00
4980
D880
98CE
10D2
10A3
10A3
10A2
31A2
2362
2664
FC78
0040
0040
00C0
ENDCHAR
STARTCHAR 20DD
ENCODING 8413
SWIDTH 977 0
DWIDTH 19 0
BBX 14 14 3 0
BITMAP
0F80
3860
6030
4018
8008
8008
800C
800C
8008
8008
4018
6030
3860
0F80
ENDCHAR
STARTCHAR 2105
ENCODING 8453
SWIDTH 874 0
DWIDTH 17 0
BBX 15 14 1 0
BITMAP
7830
CC20
C060
8040
8480
CC80
793C
0166
0246
06C2
04C2
0C46
0866
183C
ENDCHAR
STARTCHAR 210F
ENCODING 8463
SWIDTH 565 0
DWIDTH 11 0
BBX 9 14 1 0
BITMAP
1C00
1800
1B00
1C00
3000
7380
3580
3980
3100
6100
6300
4300
C280
C300
ENDCHAR
STARTCHAR 2111
ENCODING 8465
SWIDTH 720 0
DWIDTH 14 0
BBX 11 14 1 -1
BITMAP
3E00
6300
4320
81A0
80C0
4000
40E0
3120
0180
0180
61C0
30C0
1880
0F00
ENDCHAR
STARTCHAR 2112
ENCODING 8466
SWIDTH 822 0
DWIDTH 16 0
BBX 14 15 1 0
BITMAP
0C38
1044
2044
20C4
20C4
20C8
10F0
0FC0
0080
0180
0180
0100
F304
8E08
79F0
ENDCHAR
STARTCHAR 2113
ENCODING 8467
SWIDTH 308 0
DWIDTH 6 0
BBX 6 14 0 0
BITMAP
0C
14
14
24
28
28
70
60
40
C0
40
40
D0
60
ENDCHAR
STARTCHAR 2116
ENCODING 8470
SWIDTH 1080 0
DWIDTH 21 0
BBX 19 14 1 0
BITMAP
C08780
C08FC0
E09840
B09060
B09020
989020
889060
8C9860
8498C0
868FC0
828300
838000
819FE0
819FE0
ENDCHAR
STARTCHAR 2118
ENCODING 8472
SWIDTH 668 0
DWIDTH 13 0
BBX 10 11 1 -3
BITMAP
0800
31C0
2640
4840
5040
64C0
2880
F900
9600
9000
E000
ENDCHAR
STARTCHAR 211C
ENCODING 8476
SWIDTH 771 0
DWIDTH 15 0
BBX 12 12 1 0
BITMAP
39E0
4E70
8630
8630
C660
77C0
36C0
1660
0660
0460
7C70
3820
ENDCHAR
STARTCHAR 211E
ENCODING 8478
SWIDTH 771 0
DWIDTH 15 0
BBX 10 13 3 0
BITMAP
FF00
C380
C180
C080
C080
C180
FF00
CC00
C6C0
C380
C300
C380
C680
ENDCHAR
STARTCHAR 2120
ENCODING 8480
SWIDTH 617 0
DWIDTH 12 0
BBX 10 6 1 7
BITMAP
E4C0
96C0
C6C0
3740
9540
E540
ENDCHAR
STARTCHAR 2122
ENCODING 8482
SWIDTH 977 0
DWIDTH 19 0
BBX 17 8 1 6
BITMAP
FF6180
186180
186180
187280
185280
185680
185C80
184C80
ENDCHAR
STARTCHAR 2126
ENCODING 8486
SWIDTH 771 0
DWIDTH 15 0
BBX 13 14 1 0
BITMAP
0F80
3FE0
7070
E030
C018
C018
C018
C018
C018
C018
6030
3060
F8F8
F8F8
ENDCHAR
STARTCHAR 2128
ENCODING 8488
SWIDTH 617 0
DWIDTH 12 0
BBX 11 17 0 -4
BITMAP
0780
18C0
0060
0060
0060
0C40
08C0
0700
0FC0
1060
0060
0020
6020
9820
9860
0CC0
0300
ENDCHAR
STARTCHAR 212D
ENCODING 8493
SWIDTH 668 0
DWIDTH 13 0
BBX 12 16 1 -2
BITMAP
1C00
23F0
6260
4400
4600
C600
C300
C180
C880
C880
6880
6710
7020
3860
1FC0
0700
ENDCHAR
STARTCHAR 212E
ENCODING 8494
SWIDTH 617 0
DWIDTH 12 0
BBX 9 10 1 0
BITMAP
3E00
6300
4080
C080
FF80
C000
C000
4080
6300
3E00
ENDCHAR
STARTCHAR 212F
ENCODING 8495
SWIDTH 514 0
DWIDTH 10 0
BBX 8 10 1 0
BITMAP
06
1B
33
62
6C
F0
C0
C0
E6
78
ENDCHAR
STARTCHAR 2135
ENCODING 8501
SWIDTH 514 0
DWIDTH 10 0
BBX 8 12 1 0
BITMAP
08
8F
CF
42
64
74
9C
CC
E6
62
73
E1
ENDCHAR
STARTCHAR 2136
ENCODING 8502
SWIDTH 462 0
DWIDTH 9 0
BBX 7 9 1 1
BITMAP
FC
FE
02
02
02
02
02
FE
FE
ENDCHAR
STARTCHAR 2137
ENCODING 8503
SWIDTH 308 0
DWIDTH 6 0
BBX 5 10 1 0
BITMAP
40
70
70
10
10
08
08
08
78
E8
ENDCHAR
STARTCHAR 215B
ENCODING 8539
SWIDTH 822 0
DWIDTH 16 0
BBX 14 14 1 0
BITMAP
2020
E040
2040
2080
2180
2138
2264
2244
0424
0C38
0844
1044
1044
2038
ENDCHAR
STARTCHAR 215C
ENCODING 8540
SWIDTH 822 0
DWIDTH 16 0
BBX 15 14 1 0
BITMAP
7010
8820
8860
3840
0880
8CB8
8964
7A44
0224
0438
0C44
0846
1044
1038
ENDCHAR
STARTCHAR 215D
ENCODING 8541
SWIDTH 822 0
DWIDTH 16 0
BBX 15 14 1 0
BITMAP
7810
8020
8020
F040
88C0
0880
8938
FB44
0264
0438
0444
0846
1044
1038
ENDCHAR
STARTCHAR 215E
ENCODING 8542
SWIDTH 822 0
DWIDTH 16 0
BBX 14 14 1 0
BITMAP
FC20
0840
1040
1080
2100
2100
2238
4444
0444
0838
1044
1044
2044
4038
ENDCHAR
STARTCHAR 2190
ENCODING 8592
SWIDTH 977 0
DWIDTH 19 0
BBX 16 7 2 3
BITMAP
1000
3000
6000
FFFF
6000
3000
1000
ENDCHAR
STARTCHAR 2191
ENCODING 8593
SWIDTH 514 0
DWIDTH 10 0
BBX 5 16 2 -2
BITMAP
20
30
70
E8
20
20
20
20
20
20
20
20
20
20
20
20
ENDCHAR
STARTCHAR 2192
ENCODING 8594
SWIDTH 977 0
DWIDTH 19 0
BBX 16 7 2 3
BITMAP
0010
0008
000C
FFFF
000E
0008
0010
ENDCHAR
STARTCHAR 2193
ENCODING 8595
SWIDTH 514 0
DWIDTH 10 0
BBX 6 16 2 -2
BITMAP
20
20
20
20
20
20
20
20
20
20
20
20
EC
78
30
20
ENDCHAR
STARTCHAR 2194
ENCODING 8596
SWIDTH 977 0
DWIDTH 19 0
BBX 15 7 2 3
BITMAP
0800
1010
301C
FFFE
300C
1010
0800
ENDCHAR
STARTCHAR 2195
ENCODING 8597
SWIDTH 514 0
DWIDTH 10 0
BBX 6 14 2 -1
BITMAP
20
30
78
EC
20
20
20
20
20
20
A4
F8
70
30
ENDCHAR
STARTCHAR 2196
ENCODING 8598
SWIDTH 720 0
DWIDTH 14 0
BBX 14 14 0 -1
BITMAP
4000
F000
EC00
7000
5800
2C00
2600
0300
0180
00C0
0060
0030
0018
000C
ENDCHAR
STARTCHAR 2197
ENCODING 8599
SWIDTH 720 0
DWIDTH 14 0
BBX 14 14 0 -1
BITMAP
0008
003C
01D8
0028
0050
0090
0110
0200
0400
0800
1000
2000
4000
8000
ENDCHAR
STARTCHAR 2198
ENCODING 8600
SWIDTH 720 0
DWIDTH 14 0
BBX 14 14 0 -1
BITMAP
8000
C000
6000
3000
1800
0C00
0600
0310
0190
00D0
0068
01B8
007C
0008
ENDCHAR
STARTCHAR 2199
ENCODING 8601
SWIDTH 720 0
DWIDTH 14 0
BBX 13 13 0 0
BITMAP
0008
0010
0020
0040
0080
0100
2200
2400
4800
5000
EE00
F800
C000
ENDCHAR
STARTCHAR 21A8
ENCODING 8616
SWIDTH 514 0
DWIDTH 10 0
BBX 6 17 2 -2
BITMAP
30
70
78
A4
20
20
20
20
20
20
AC
78
30
20
00
00
F8
ENDCHAR
STARTCHAR 21B5
ENCODING 8629
SWIDTH 977 0
DWIDTH 19 0
BBX 14 7 3 3
BITMAP
0404
1C04
6004
FFFC
E000
1800
0400
ENDCHAR
STARTCHAR 21C4
ENCODING 8644
SWIDTH 977 0
DWIDTH 19 0
BBX 15 12 2 1
BITMAP
0010
0018
000C
FFFE
000C
0818
1010
7000
FFFE
3000
1000
0800
ENDCHAR
STARTCHAR 21C6
ENCODING 8646
SWIDTH 977 0
DWIDTH 19 0
BBX 15 12 2 1
BITMAP
0800
1000
7000
FFFE
3000
1010
0818
000C
FFFE
000C
0018
0010
ENDCHAR
STARTCHAR 21D0
ENCODING 8656
SWIDTH 720 0
DWIDTH 14 0
BBX 14 8 0 1
BITMAP
0800
1800
3FFC
4000
C000
6000
3FFC
0800
ENDCHAR
STARTCHAR 21D1
ENCODING 8657
SWIDTH 720 0
DWIDTH 14 0
BBX 8 12 3 1
BITMAP
18
24
66
66
A5
24
24
24
24
24
24
24
ENDCHAR
STARTCHAR 21D2
ENCODING 8658
SWIDTH 720 0
DWIDTH 14 0
BBX 14 8 0 1
BITMAP
0080
0060
FFF0
0008
000C
0018
FFF0
0040
ENDCHAR
STARTCHAR 21D3
ENCODING 8659
SWIDTH 720 0
DWIDTH 14 0
BBX 8 13 3 0
BITMAP
24
24
24
24
24
24
24
24
A5
66
24
18
10
ENDCHAR
STARTCHAR 21D4
ENCODING 8660
SWIDTH 720 0
DWIDTH 14 0
BBX 14 8 0 1
BITMAP
0840
1860
3FF0
4008
8004
4008
3FF0
1840
ENDCHAR
STARTCHAR 21D5
ENCODING 8661
SWIDTH 720 0
DWIDTH 14 0
BBX 8 14 3 -1
BITMAP
18
3C
66
A5
24
24
24
24
24
24
E7
66
3C
10
ENDCHAR
STARTCHAR 2200
ENCODING 8704
SWIDTH 617 0
DWIDTH 12 0
BBX 10 11 1 0
BITMAP
C0C0
C080
C180
7F80
7F00
2300
3200
1600
1E00
1C00
0C00
ENDCHAR
STARTCHAR 2202
ENCODING 8706
SWIDTH 462 0
DWIDTH 9 0
BBX 9 15 0 0
BITMAP
3C00
0200
0100
0100
0180
0180
0180
3D80
6380
6180
4100
C100
4300
4200
3C00
ENDCHAR
STARTCHAR 2203
ENCODING 8707
SWIDTH 411 0
DWIDTH 8 0
BBX 6 11 1 0
BITMAP
FC
FC
04
04
FC
FC
04
04
04
FC
FC
ENDCHAR
STARTCHAR 2205
ENCODING 8709
SWIDTH 977 0
DWIDTH 19 0
BBX 15 14 2 0
BITMAP
07C2
0C36
101C
201C
2034
60C4
4186
4306
6604
2C04
300C
7018
CC30
87C0
ENDCHAR
STARTCHAR 2206
ENCODING 8710
SWIDTH 617 0
DWIDTH 12 0
BBX 12 12 0 0
BITMAP
0600
0E00
0F00
0900
1980
1180
30C0
30C0
6040
6060
4060
FFF0
ENDCHAR
STARTCHAR 2207
ENCODING 8711
SWIDTH 720 0
DWIDTH 14 0
BBX 11 12 2 0
BITMAP
FFE0
C040
C0C0
6080
6180
2180
3100
1300
1A00
1E00
0E00
0C00
ENDCHAR
STARTCHAR 2208
ENCODING 8712
SWIDTH 977 0
DWIDTH 19 0
BBX 10 10 5 0
BITMAP
3FC0
6000
C000
8000
8000
FFC0
8000
8000
C000
3FC0
ENDCHAR
STARTCHAR 2209
ENCODING 8713
SWIDTH 977 0
DWIDTH 19 0
BBX 10 12 5 0
BITMAP
0080
3FC0
6300
C200
8600
8400
FFC0
8800
9000
D000
3FC0
6000
ENDCHAR
STARTCHAR 220B
ENCODING 8715
SWIDTH 977 0
DWIDTH 19 0
BBX 10 10 5 0
BITMAP
FF00
0180
0080
00C0
00C0
FFC0
00C0
00C0
0180
FF00
ENDCHAR
STARTCHAR 220D
ENCODING 8717
SWIDTH 514 0
DWIDTH 10 0
BBX 8 9 2 0
BITMAP
FC
06
03
01
FF
01
03
06
FC
ENDCHAR
STARTCHAR 220F
ENCODING 8719
SWIDTH 977 0
DWIDTH 19 0
BBX 15 19 2 -5
BITMAP
FFFE
FFFE
3018
3018
3018
3018
3018
3018
3018
3018
3018
3018
3018
3018
3018
3018
3018
7C3E
7C3E
ENDCHAR
STARTCHAR 2211
ENCODING 8721
SWIDTH 977 0
DWIDTH 19 0
BBX 10 17 4 -3
BITMAP
FFC0
4040
6040
3040
3000
1800
1800
0C00
0C00
0800
1800
1000
2000
2040
4040
FFC0
FFC0
ENDCHAR
STARTCHAR 2212
ENCODING 8722
SWIDTH 565 0
DWIDTH 11 0
BBX 10 1 1 4
BITMAP
FFC0
ENDCHAR
STARTCHAR 2213
ENCODING 8723
SWIDTH 977 0
DWIDTH 19 0
BBX 9 12 5 0
BITMAP
FF80
0000
0000
0800
0800
0800
0800
FF80
0800
0800
0800
0800
ENDCHAR
STARTCHAR 2215
ENCODING 8725
SWIDTH 257 0
DWIDTH 5 0
BBX 9 14 -2 0
BITMAP
0080
0180
0100
0200
0200
0400
0800
0800
1000
3000
2000
4000
4000
8000
ENDCHAR
STARTCHAR 2217
ENCODING 8727
SWIDTH 977 0
DWIDTH 19 0
BBX 5 5 7 2
BITMAP
20
F8
70
E8
20
ENDCHAR
STARTCHAR 2219
ENCODING 8729
SWIDTH 257 0
DWIDTH 5 0
BBX 2 2 2 4
BITMAP
C0
C0
ENDCHAR
STARTCHAR 221A
ENCODING 8730
SWIDTH 462 0
DWIDTH 9 0
BBX 10 18 -1 -1
BITMAP
0040
0040
0040
0040
0080
0080
0080
0080
2080
D080
1100
0900
0900
0500
0500
0300
0200
0200
ENDCHAR
STARTCHAR 221D
ENCODING 8733
SWIDTH 977 0
DWIDTH 19 0
BBX 9 5 4 2
BITMAP
7180
8F00
8600
9B00
7180
ENDCHAR
STARTCHAR 221E
ENCODING 8734
SWIDTH 720 0
DWIDTH 14 0
BBX 12 6 1 2
BITMAP
70E0
8910
8610
8610
8910
70E0
ENDCHAR
STARTCHAR 221F
ENCODING 8735
SWIDTH 977 0
DWIDTH 19 0
BBX 17 17 1 0
BITMAP
800000
800000
800000
800000
800000
800000
800000
800000
800000
800000
800000
800000
800000
800000
800000
800000
FFFF80
ENDCHAR
STARTCHAR 2220
ENCODING 8736
SWIDTH 977 0
DWIDTH 19 0
BBX 10 8 5 0
BITMAP
0100
0200
0400
0800
1000
2000
4000
FFC0
ENDCHAR
STARTCHAR 2223
ENCODING 8739
SWIDTH 720 0
DWIDTH 14 0
BBX 2 19 6 -5
BITMAP
C0
C0
C0
C0
C0
C0
C0
C0
C0
C0
C0
C0
C0
C0
C0
C0
C0
C0
C0
ENDCHAR
STARTCHAR 2225
ENCODING 8741
SWIDTH 720 0
DWIDTH 14 0
BBX 4 22 5 -5
BITMAP
90
90
90
90
90
90
90
90
90
90
90
90
90
90
90
90
90
90
90
90
90
90
ENDCHAR
STARTCHAR 2227
ENCODING 8743
SWIDTH 977 0
DWIDTH 19 0
BBX 9 10 5 0
BITMAP
0C00
1C00
1C00
1600
3200
2300
6100
4180
C080
8080
ENDCHAR
STARTCHAR 2228
ENCODING 8744
SWIDTH 977 0
DWIDTH 19 0
BBX 9 10 5 0
BITMAP
8080
C080
4180
6100
2300
3200
1600
1C00
1C00
0C00
ENDCHAR
STARTCHAR 2229
ENCODING 8745
SWIDTH 720 0
DWIDTH 14 0
BBX 10 12 2 0
BITMAP
1E00
7380
4080
C0C0
C0C0
C0C0
C0C0
C0C0
C0C0
C0C0
C0C0
C0C0
ENDCHAR
STARTCHAR 222A
ENCODING 8746
SWIDTH 720 0
DWIDTH 14 0
BBX 10 12 2 0
BITMAP
C0C0
C0C0
C0C0
C0C0
C0C0
C0C0
C0C0
C0C0
C0C0
4080
7380
1E00
ENDCHAR
STARTCHAR 222B
ENCODING 8747
SWIDTH 257 0
DWIDTH 5 0
BBX 5 20 0 -2
BITMAP
18
18
20
20
20
30
30
30
30
30
30
30
30
30
30
30
30
20
E0
E0
ENDCHAR
STARTCHAR 222E
ENCODING 8750
SWIDTH 977 0
DWIDTH 19 0
BBX 9 24 5 -5
BITMAP
0700
0B00
0900
0800
1800
1800
1800
1800
1C00
7B00
5D00
9C80
8C80
8D00
4D00
3E00
0C00
0C00
0C00
0C00
0C00
0800
6800
7000
ENDCHAR
STARTCHAR 2234
ENCODING 8756
SWIDTH 977 0
DWIDTH 19 0
BBX 12 12 4 0
BITMAP
0600
0E00
0400
0000
0000
0000
0000
0000
0000
0020
C070
C060
ENDCHAR
STARTCHAR 2235
ENCODING 8757
SWIDTH 977 0
DWIDTH 19 0
BBX 12 12 4 0
BITMAP
C060
C070
0020
0000
0000
0000
0000
0000
0000
0400
0E00
0600
ENDCHAR
STARTCHAR 2237
ENCODING 8759
SWIDTH 977 0
DWIDTH 19 0
BBX 12 12 4 0
BITMAP
C060
C070
0020
0000
0000
0000
0000
0000
0000
0020
C070
C060
ENDCHAR
STARTCHAR 2245
ENCODING 8773
SWIDTH 977 0
DWIDTH 19 0
BBX 9 6 5 2
BITMAP
7880
8700
0000
FF80
0000
FF80
ENDCHAR
STARTCHAR 2248
ENCODING 8776
SWIDTH 565 0
DWIDTH 11 0
BBX 9 5 1 2
BITMAP
F880
8F00
0000
F880
8F00
ENDCHAR
STARTCHAR 2260
ENCODING 8800
SWIDTH 565 0
DWIDTH 11 0
BBX 9 9 1 0
BITMAP
0200
0400
FF80
0800
1800
1000
FF80
2000
6000
ENDCHAR
STARTCHAR 2261
ENCODING 8801
SWIDTH 565 0
DWIDTH 11 0
BBX 9 7 1 1
BITMAP
FF80
0000
0000
FF80
0000
0000
FF80
ENDCHAR
STARTCHAR 2262
ENCODING 8802
SWIDTH 977 0
DWIDTH 19 0
BBX 9 11 5 0
BITMAP
0100
0200
FF80
0400
0C00
FF80
1800
1000
FF80
6000
4000
ENDCHAR
STARTCHAR 2264
ENCODING 8804
SWIDTH 565 0
DWIDTH 11 0
BBX 9 12 1 1
BITMAP
0380
0F00
3800
E000
E000
7800
0E00
0380
0080
0000
0000
FF80
ENDCHAR
STARTCHAR 2265
ENCODING 8805
SWIDTH 565 0
DWIDTH 11 0
BBX 9 12 1 1
BITMAP
C000
7800
1E00
0380
0380
0E00
7800
E000
0000
0000
0000
FF80
ENDCHAR
STARTCHAR 226A
ENCODING 8810
SWIDTH 977 0
DWIDTH 19 0
BBX 13 12 3 -1
BITMAP
0018
0070
01C0
0F38
38E0
E380
71C0
1E78
0388
00E0
0038
0008
ENDCHAR
STARTCHAR 226B
ENCODING 8811
SWIDTH 977 0
DWIDTH 19 0
BBX 13 12 3 -1
BITMAP
C000
7000
9E00
E380
38E0
0E38
1C70
71C0
C700
3C00
E000
8000
ENDCHAR
STARTCHAR 2282
ENCODING 8834
SWIDTH 977 0
DWIDTH 19 0
BBX 10 10 5 0
BITMAP
3FC0
6000
8000
8000
8000
8000
8000
8000
E000
3FC0
ENDCHAR
STARTCHAR 2283
ENCODING 8835
SWIDTH 977 0
DWIDTH 19 0
BBX 10 10 5 0
BITMAP
FF00
0180
0080
00C0
0040
0040
00C0
0080
0180
FF00
ENDCHAR
STARTCHAR 2284
ENCODING 8836
SWIDTH 977 0
DWIDTH 19 0
BBX 10 12 5 -1
BITMAP
0080
3FC0
6100
8200
8200
8400
8400
8800
8800
7000
3FC0
2000
ENDCHAR
STARTCHAR 2285
ENCODING 8837
SWIDTH 977 0
DWIDTH 19 0
BBX 10 12 5 -1
BITMAP
8000
FF00
6180
2080
10C0
1040
0840
08C0
0480
0580
FF00
0300
ENDCHAR
STARTCHAR 2286
ENCODING 8838
SWIDTH 977 0
DWIDTH 19 0
BBX 10 12 5 0
BITMAP
3FC0
6000
8000
8000
8000
8000
8000
8000
6000
3FC0
0000
FFC0
ENDCHAR
STARTCHAR 2287
ENCODING 8839
SWIDTH 977 0
DWIDTH 19 0
BBX 10 12 5 0
BITMAP
FF00
0180
0080
00C0
0040
0040
00C0
0080
0180
FF00
0000
FFC0
ENDCHAR
STARTCHAR 2295
ENCODING 8853
SWIDTH 977 0
DWIDTH 19 0
BBX 14 14 3 0
BITMAP
1FC0
3220
4210
C208
8208
820C
FFFC
8204
8208
C208
4218
6230
3A60
0F80
ENDCHAR
STARTCHAR 2296
ENCODING 8854
SWIDTH 977 0
DWIDTH 19 0
BBX 14 13 3 0
BITMAP
0FC0
3060
6010
C008
8008
800C
FFFC
800C
8008
C008
6010
3060
0FC0
ENDCHAR
STARTCHAR 2297
ENCODING 8855
SWIDTH 977 0
DWIDTH 19 0
BBX 14 14 3 0
BITMAP
0F80
3860
6030
7078
98C8
8D8C
8704
8704
8D8C
98C8
7078
6030
3860
0F80
ENDCHAR
STARTCHAR 2298
ENCODING 8856
SWIDTH 977 0
DWIDTH 19 0
BBX 14 14 3 0
BITMAP
0F80
3860
6030
4078
80C8
8188
830C
860C
8C08
9808
7018
6030
3860
0F80
ENDCHAR
STARTCHAR 2299
ENCODING 8857
SWIDTH 977 0
DWIDTH 19 0
BBX 14 13 3 0
BITMAP
0FC0
3060
6010
C008
8008
830C
8304
800C
8008
4008
6010
3060
0FC0
ENDCHAR
STARTCHAR 22A2
ENCODING 8866
SWIDTH 977 0
DWIDTH 19 0
BBX 12 11 4 0
BITMAP
8000
8000
8000
8000
8000
FFF0
8000
8000
8000
8000
8000
ENDCHAR
STARTCHAR 22A3
ENCODING 8867
SWIDTH 977 0
DWIDTH 19 0
BBX 12 11 4 0
BITMAP
0030
0030
0030
0030
0030
FFF0
0030
0030
0030
0030
0030
ENDCHAR
STARTCHAR 22A4
ENCODING 8868
SWIDTH 977 0
DWIDTH 19 0
BBX 11 12 4 0
BITMAP
FFE0
0400
0400
0400
0400
0400
0400
0400
0400
0400
0400
0400
ENDCHAR
STARTCHAR 22A5
ENCODING 8869
SWIDTH 977 0
DWIDTH 19 0
BBX 12 12 4 0
BITMAP
0400
0400
0400
0400
0400
0400
0400
0400
0400
0400
0400
FFF0
ENDCHAR
STARTCHAR 22BB
ENCODING 8891
SWIDTH 977 0
DWIDTH 19 0
BBX 11 14 4 -3
BITMAP
4060
4040
6040
20C0
3080
1180
1100
1B00
0A00
0E00
0400
0000
0000
FFE0
ENDCHAR
STARTCHAR 2302
ENCODING 8962
SWIDTH 617 0
DWIDTH 12 0
BBX 10 14 1 0
BITMAP
0800
0C00
1200
2300
6100
C080
8040
8040
8040
8040
8040
8040
8040
FFC0
ENDCHAR
STARTCHAR 2310
ENCODING 8976
SWIDTH 565 0
DWIDTH 11 0
BBX 10 5 1 2
BITMAP
FFC0
8000
8000
8000
8000
ENDCHAR
STARTCHAR 2320
ENCODING 8992
SWIDTH 617 0
DWIDTH 12 0
BBX 3 22 5 -4
BITMAP
60
60
80
80
80
80
C0
C0
C0
C0
C0
C0
C0
C0
C0
C0
C0
C0
C0
C0
C0
C0
ENDCHAR
STARTCHAR 2321
ENCODING 8993
SWIDTH 617 0
DWIDTH 12 0
BBX 4 22 3 -4
BITMAP
30
30
30
30
30
30
30
30
30
30
30
30
30
30
30
30
30
30
20
20
E0
E0
ENDCHAR
STARTCHAR 2329
ENCODING 9001
SWIDTH 308 0
DWIDTH 6 0
BBX 4 13 1 -1
BITMAP
10
10
20
20
40
40
C0
40
60
20
20
10
10
ENDCHAR
STARTCHAR 232A
ENCODING 9002
SWIDTH 308 0
DWIDTH 6 0
BBX 4 14 1 -2
BITMAP
80
80
40
40
20
20
30
10
30
20
20
40
40
80
ENDCHAR
STARTCHAR 2500
ENCODING 9472
SWIDTH 977 0
DWIDTH 19 0
BBX 19 1 0 4
BITMAP
FFFFE0
ENDCHAR
STARTCHAR 2502
ENCODING 9474
SWIDTH 977 0
DWIDTH 19 0
BBX 1 19 9 -5
BITMAP
80
80
80
80
80
80
80
80
80
80
80
80
80
80
80
80
80
80
80
ENDCHAR
STARTCHAR 250C
ENCODING 9484
SWIDTH 977 0
DWIDTH 19 0
BBX 10 10 9 -5
BITMAP
FFC0
8000
8000
8000
8000
8000
8000
8000
8000
8000
ENDCHAR
STARTCHAR 2510
ENCODING 9488
SWIDTH 977 0
DWIDTH 19 0
BBX 10 10 0 -5
BITMAP
FFC0
0040
0040
0040
0040
0040
0040
0040
0040
0040
ENDCHAR
STARTCHAR 2514
ENCODING 9492
SWIDTH 977 0
DWIDTH 19 0
BBX 10 10 9 4
BITMAP
8000
8000
8000
8000
8000
8000
8000
8000
8000
FFC0
ENDCHAR
STARTCHAR 2518
ENCODING 9496
SWIDTH 977 0
DWIDTH 19 0
BBX 10 10 0 4
BITMAP
0040
0040
0040
0040
0040
0040
0040
0040
0040
FFC0
ENDCHAR
STARTCHAR 251C
ENCODING 9500
SWIDTH 977 0
DWIDTH 19 0
BBX 10 19 9 -5
BITMAP
8000
8000
8000
8000
8000
8000
8000
8000
8000
FFC0
8000
8000
8000
8000
8000
8000
8000
8000
8000
ENDCHAR
STARTCHAR 2524
ENCODING 9508
SWIDTH 977 0
DWIDTH 19 0
BBX 10 19 0 -5
BITMAP
0040
0040
0040
0040
0040
0040
0040
0040
0040
FFC0
0040
0040
0040
0040
0040
0040
0040
0040
0040
ENDCHAR
STARTCHAR 252C
ENCODING 9516
SWIDTH 977 0
DWIDTH 19 0
BBX 19 10 0 -5
BITMAP
FFFFE0
004000
004000
004000
004000
004000
004000
004000
004000
004000
ENDCHAR
STARTCHAR 2534
ENCODING 9524
SWIDTH 977 0
DWIDTH 19 0
BBX 19 10 0 4
BITMAP
004000
004000
004000
004000
004000
004000
004000
004000
004000
FFFFE0
ENDCHAR
STARTCHAR 253C
ENCODING 9532
SWIDTH 977 0
DWIDTH 19 0
BBX 19 19 0 -5
BITMAP
004000
004000
004000
004000
004000
004000
004000
004000
004000
FFFFE0
004000
004000
004000
004000
004000
004000
004000
004000
004000
ENDCHAR
STARTCHAR 2550
ENCODING 9552
SWIDTH 977 0
DWIDTH 19 0
BBX 19 4 0 3
BITMAP
FFFFE0
000000
000000
FFFFE0
ENDCHAR
STARTCHAR 2551
ENCODING 9553
SWIDTH 977 0
DWIDTH 19 0
BBX 4 19 8 -5
BITMAP
B0
B0
B0
B0
B0
B0
B0
B0
B0
B0
B0
B0
B0
B0
B0
B0
B0
B0
B0
ENDCHAR
STARTCHAR 2552
ENCODING 9554
SWIDTH 977 0
DWIDTH 19 0
BBX 10 12 9 -5
BITMAP
FFC0
8000
8000
FFC0
8000
8000
8000
8000
8000
8000
8000
8000
ENDCHAR
STARTCHAR 2553
ENCODING 9555
SWIDTH 977 0
DWIDTH 19 0
BBX 11 10 8 -5
BITMAP
FFE0
B000
B000
B000
B000
B000
B000
B000
B000
B000
ENDCHAR
STARTCHAR 2554
ENCODING 9556
SWIDTH 977 0
DWIDTH 19 0
BBX 11 12 8 -5
BITMAP
FFE0
8000
8000
BFE0
B000
B000
B000
B000
B000
B000
B000
B000
ENDCHAR
STARTCHAR 2555
ENCODING 9557
SWIDTH 977 0
DWIDTH 19 0
BBX 10 12 0 -5
BITMAP
FFC0
0040
0040
FFC0
0040
0040
0040
0040
0040
0040
0040
0040
ENDCHAR
STARTCHAR 2556
ENCODING 9558
SWIDTH 977 0
DWIDTH 19 0
BBX 12 10 0 -5
BITMAP
FFF0
00B0
00B0
00B0
00B0
00B0
00B0
00B0
00B0
00B0
ENDCHAR
STARTCHAR 2557
ENCODING 9559
SWIDTH 977 0
DWIDTH 19 0
BBX 12 12 0 -5
BITMAP
FFF0
0030
0030
FFB0
00B0
00B0
00B0
00B0
00B0
00B0
00B0
00B0
ENDCHAR
STARTCHAR 2558
ENCODING 9560
SWIDTH 977 0
DWIDTH 19 0
BBX 10 11 9 3
BITMAP
8000
8000
8000
8000
8000
8000
8000
FFC0
8000
8000
FFC0
ENDCHAR
STARTCHAR 2559
ENCODING 9561
SWIDTH 977 0
DWIDTH 19 0
BBX 11 10 8 4
BITMAP
B000
B000
B000
B000
B000
B000
B000
B000
B000
FFE0
ENDCHAR
STARTCHAR 255A
ENCODING 9562
SWIDTH 977 0
DWIDTH 19 0
BBX 11 11 8 3
BITMAP
B000
B000
B000
B000
B000
B000
B000
BFE0
8000
8000
FFE0
ENDCHAR
STARTCHAR 255B
ENCODING 9563
SWIDTH 977 0
DWIDTH 19 0
BBX 10 11 0 3
BITMAP
0040
0040
0040
0040
0040
0040
0040
FFC0
0040
0040
FFC0
ENDCHAR
STARTCHAR 255C
ENCODING 9564
SWIDTH 977 0
DWIDTH 19 0
BBX 12 10 0 4
BITMAP
00B0
00B0
00B0
00B0
00B0
00B0
00B0
00B0
00B0
FFF0
ENDCHAR
STARTCHAR 255D
ENCODING 9565
SWIDTH 977 0
DWIDTH 19 0
BBX 12 11 0 3
BITMAP
00B0
00B0
00B0
00B0
00B0
00B0
00B0
FFB0
0030
0030
FFF0
ENDCHAR
STARTCHAR 255E
ENCODING 9566
SWIDTH 977 0
DWIDTH 19 0
BBX 10 19 9 -5
BITMAP
8000
8000
8000
8000
8000
8000
8000
FFC0
8000
8000
FFC0
8000
8000
8000
8000
8000
8000
8000
8000
ENDCHAR
STARTCHAR 255F
ENCODING 9567
SWIDTH 977 0
DWIDTH 19 0
BBX 11 19 8 -5
BITMAP
B000
B000
B000
B000
B000
B000
B000
B000
B000
BFE0
B000
B000
B000
B000
B000
B000
B000
B000
B000
ENDCHAR
STARTCHAR 2560
ENCODING 9568
SWIDTH 977 0
DWIDTH 19 0
BBX 11 19 8 -5
BITMAP
B000
B000
B000
B000
B000
B000
B000
BFE0
8000
8000
BFE0
B000
B000
B000
B000
B000
B000
B000
B000
ENDCHAR
STARTCHAR 2561
ENCODING 9569
SWIDTH 977 0
DWIDTH 19 0
BBX 10 19 0 -5
BITMAP
0040
0040
0040
0040
0040
0040
0040
FFC0
0040
0040
FFC0
0040
0040
0040
0040
0040
0040
0040
0040
ENDCHAR
STARTCHAR 2562
ENCODING 9570
SWIDTH 977 0
DWIDTH 19 0
BBX 12 19 0 -5
BITMAP
00B0
00B0
00B0
00B0
00B0
00B0
00B0
00B0
00B0
FFB0
00B0
00B0
00B0
00B0
00B0
00B0
00B0
00B0
00B0
ENDCHAR
STARTCHAR 2563
ENCODING 9571
SWIDTH 977 0
DWIDTH 19 0
BBX 12 19 0 -5
BITMAP
00B0
00B0
00B0
00B0
00B0
00B0
00B0
FFB0
0030
0030
FFB0
00B0
00B0
00B0
00B0
00B0
00B0
00B0
00B0
ENDCHAR
STARTCHAR 2564
ENCODING 9572
SWIDTH 977 0
DWIDTH 19 0
BBX 19 12 0 -5
BITMAP
FFFFE0
000000
000000
FFFFE0
004000
004000
004000
004000
004000
004000
004000
004000
ENDCHAR
STARTCHAR 2565
ENCODING 9573
SWIDTH 977 0
DWIDTH 19 0
BBX 19 10 0 -5
BITMAP
FFFFE0
00B000
00B000
00B000
00B000
00B000
00B000
00B000
00B000
00B000
ENDCHAR
STARTCHAR 2566
ENCODING 9574
SWIDTH 977 0
DWIDTH 19 0
BBX 19 12 0 -5
BITMAP
FFFFE0
000000
000000
FFBFE0
00B000
00B000
00B000
00B000
00B000
00B000
00B000
00B000
ENDCHAR
STARTCHAR 2567
ENCODING 9575
SWIDTH 977 0
DWIDTH 19 0
BBX 19 11 0 3
BITMAP
004000
004000
004000
004000
004000
004000
004000
FFFFE0
000000
000000
FFFFE0
ENDCHAR
STARTCHAR 2568
ENCODING 9576
SWIDTH 977 0
DWIDTH 19 0
BBX 19 10 0 4
BITMAP
00B000
00B000
00B000
00B000
00B000
00B000
00B000
00B000
00B000
FFFFE0
ENDCHAR
STARTCHAR 2569
ENCODING 9577
SWIDTH 977 0
DWIDTH 19 0
BBX 19 11 0 3
BITMAP
00B000
00B000
00B000
00B000
00B000
00B000
00B000
FFBFE0
000000
000000
FFFFE0
ENDCHAR
STARTCHAR 256A
ENCODING 9578
SWIDTH 977 0
DWIDTH 19 0
BBX 19 19 0 -5
BITMAP
004000
004000
004000
004000
004000
004000
004000
FFFFE0
004000
004000
FFFFE0
004000
004000
004000
004000
004000
004000
004000
004000
ENDCHAR
STARTCHAR 256B
ENCODING 9579
SWIDTH 977 0
DWIDTH 19 0
BBX 19 19 0 -5
BITMAP
00B000
00B000
00B000
00B000
00B000
00B000
00B000
00B000
00B000
FFFFE0
00B000
00B000
00B000
00B000
00B000
00B000
00B000
00B000
00B000
ENDCHAR
STARTCHAR 256C
ENCODING 9580
SWIDTH 977 0
DWIDTH 19 0
BBX 19 19 0 -5
BITMAP
00B000
00B000
00B000
00B000
00B000
00B000
00B000
FFBFE0
000000
000000
FFBFE0
00B000
00B000
00B000
00B000
00B000
00B000
00B000
00B000
ENDCHAR
STARTCHAR 256D
ENCODING 9581
SWIDTH 977 0
DWIDTH 19 0
BBX 10 10 9 -5
BITMAP
07C0
1C00
3000
6000
4000
C000
8000
8000
8000
8000
ENDCHAR
STARTCHAR 256E
ENCODING 9582
SWIDTH 977 0
DWIDTH 19 0
BBX 10 10 0 -5
BITMAP
FC00
0600
0100
0080
00C0
0040
0040
0040
0040
0040
ENDCHAR
STARTCHAR 256F
ENCODING 9583
SWIDTH 977 0
DWIDTH 19 0
BBX 10 10 0 4
BITMAP
0040
0040
0040
0040
0040
00C0
0180
0300
0E00
F800
ENDCHAR
STARTCHAR 2570
ENCODING 9584
SWIDTH 977 0
DWIDTH 19 0
BBX 10 10 9 4
BITMAP
8000
8000
8000
8000
C000
4000
6000
3000
1E00
07C0
ENDCHAR
STARTCHAR 2580
ENCODING 9600
SWIDTH 977 0
DWIDTH 19 0
BBX 19 9 0 5
BITMAP
FFFFE0
FFFFE0
FFFFE0
FFFFE0
FFFFE0
FFFFE0
FFFFE0
FFFFE0
FFFFE0
ENDCHAR
STARTCHAR 2584
ENCODING 9604
SWIDTH 977 0
DWIDTH 19 0
BBX 19 10 0 -5
BITMAP
FFFFE0
FFFFE0
FFFFE0
FFFFE0
FFFFE0
FFFFE0
FFFFE0
FFFFE0
FFFFE0
FFFFE0
ENDCHAR
STARTCHAR 2588
ENCODING 9608
SWIDTH 977 0
DWIDTH 19 0
BBX 19 19 0 -5
BITMAP
FFFFE0
FFFFE0
FFFFE0
FFFFE0
FFFFE0
FFFFE0
FFFFE0
FFFFE0
FFFFE0
FFFFE0
FFFFE0
FFFFE0
FFFFE0
FFFFE0
FFFFE0
FFFFE0
FFFFE0
FFFFE0
FFFFE0
ENDCHAR
STARTCHAR 258C
ENCODING 9612
SWIDTH 977 0
DWIDTH 19 0
BBX 10 19 0 -5
BITMAP
FFC0
FFC0
FFC0
FFC0
FFC0
FFC0
FFC0
FFC0
FFC0
FFC0
FFC0
FFC0
FFC0
FFC0
FFC0
FFC0
FFC0
FFC0
FFC0
ENDCHAR
STARTCHAR 2590
ENCODING 9616
SWIDTH 977 0
DWIDTH 19 0
BBX 9 19 10 -5
BITMAP
FF80
FF80
FF80
FF80
FF80
FF80
FF80
FF80
FF80
FF80
FF80
FF80
FF80
FF80
FF80
FF80
FF80
FF80
FF80
ENDCHAR
STARTCHAR 2591
ENCODING 9617
SWIDTH 977 0
DWIDTH 19 0
BBX 16 15 1 -1
BITMAP
E387
E387
E387
0000
0000
0000
E387
E387
E387
0000
0000
0000
E387
E387
E387
ENDCHAR
STARTCHAR 2592
ENCODING 9618
SWIDTH 977 0
DWIDTH 19 0
BBX 19 19 0 -5
BITMAP
E3C700
E3C700
E3C700
1C38E0
1C38E0
1C38E0
E3C700
E3C700
E3C700
1C38E0
1C38E0
1C38E0
E3C700
E3C700
E3C700
244900
1C38E0
1C38E0
1C38E0
ENDCHAR
STARTCHAR 2593
ENCODING 9619
SWIDTH 977 0
DWIDTH 19 0
BBX 19 18 0 -4
BITMAP
FFFFE0
FFFFE0
FFFFE0
E3C700
E3C700
E3C700
FFFFE0
FFFFE0
FFFFE0
E3C700
E3C700
E3C700
FFFFE0
FFFFE0
FFFFE0
E3C700
E3C700
E3C700
ENDCHAR
STARTCHAR 25A0
ENCODING 9632
SWIDTH 617 0
DWIDTH 12 0
BBX 14 14 -1 0
BITMAP
FFFC
FFFC
FFFC
FFFC
FFFC
FFFC
FFFC
FFFC
FFFC
FFFC
FFFC
FFFC
FFFC
FFFC
ENDCHAR
STARTCHAR 25A1
ENCODING 9633
SWIDTH 617 0
DWIDTH 12 0
BBX 10 10 1 0
BITMAP
FFC0
8040
8040
8040
8040
8040
8040
8040
8040
FFC0
ENDCHAR
STARTCHAR 25AA
ENCODING 9642
SWIDTH 360 0
DWIDTH 7 0
BBX 5 5 1 3
BITMAP
F8
F8
F8
F8
F8
ENDCHAR
STARTCHAR 25AB
ENCODING 9643
SWIDTH 360 0
DWIDTH 7 0
BBX 5 5 1 3
BITMAP
F8
88
88
88
F8
ENDCHAR
STARTCHAR 25AC
ENCODING 9644
SWIDTH 977 0
DWIDTH 19 0
BBX 14 7 3 0
BITMAP
FFFC
FFFC
FFFC
FFFC
FFFC
FFFC
FFFC
ENDCHAR
STARTCHAR 25B2
ENCODING 9650
SWIDTH 977 0
DWIDTH 19 0
BBX 11 11 4 1
BITMAP
0400
0600
0E00
0F00
1F00
1F80
3F80
7FC0
7FC0
FFE0
FFE0
ENDCHAR
STARTCHAR 25B5
ENCODING 9653
SWIDTH 720 0
DWIDTH 14 0
BBX 8 9 3 1
BITMAP
10
18
18
34
24
42
42
83
FF
ENDCHAR
STARTCHAR 25B9
ENCODING 9657
SWIDTH 720 0
DWIDTH 14 0
BBX 9 9 2 1
BITMAP
8000
E000
D800
C600
C180
C300
CC00
F000
C000
ENDCHAR
STARTCHAR 25BA
ENCODING 9658
SWIDTH 977 0
DWIDTH 19 0
BBX 10 7 5 2
BITMAP
8000
F000
FE00
FF80
FFC0
FC00
E000
ENDCHAR
STARTCHAR 25BC
ENCODING 9660
SWIDTH 977 0
DWIDTH 19 0
BBX 11 11 4 1
BITMAP
FFE0
FFE0
7FC0
7FC0
3F80
1F80
1F00
0F00
0E00
0600
0400
ENDCHAR
STARTCHAR 25BF
ENCODING 9663
SWIDTH 720 0
DWIDTH 14 0
BBX 8 9 3 1
BITMAP
FF
81
42
42
24
24
18
18
10
ENDCHAR
STARTCHAR 25C3
ENCODING 9667
SWIDTH 720 0
DWIDTH 14 0
BBX 9 9 3 1
BITMAP
0080
0380
0D80
3180
C180
6180
1980
0780
0180
ENDCHAR
STARTCHAR 25C4
ENCODING 9668
SWIDTH 977 0
DWIDTH 19 0
BBX 11 8 4 2
BITMAP
0060
01E0
0FE0
7FE0
FFE0
0FE0
01E0
0020
ENDCHAR
STARTCHAR 25C6
ENCODING 9670
SWIDTH 977 0
DWIDTH 19 0
BBX 10 11 5 1
BITMAP
0800
1C00
3E00
3F00
7F80
FFC0
7F80
7F00
3E00
1C00
0C00
ENDCHAR
STARTCHAR 25C7
ENCODING 9671
SWIDTH 977 0
DWIDTH 19 0
BBX 12 13 4 0
BITMAP
0400
0A00
1100
2080
4040
8020
8010
4020
2040
2080
1100
0A00
0400
ENDCHAR
STARTCHAR 25CA
ENCODING 9674
SWIDTH 462 0
DWIDTH 9 0
BBX 9 14 0 0
BITMAP
1C00
1400
3600
2200
6300
4100
C180
C100
4100
2200
2200
1400
1400
0800
ENDCHAR
STARTCHAR 25CB
ENCODING 9675
SWIDTH 617 0
DWIDTH 12 0
BBX 11 11 0 2
BITMAP
0F00
30C0
6040
4020
8020
8020
4020
4020
4040
30C0
0F00
ENDCHAR
STARTCHAR 25CF
ENCODING 9679
SWIDTH 617 0
DWIDTH 12 0
BBX 10 10 1 0
BITMAP
1E00
7F80
FF80
FFC0
FFC0
FFC0
FFC0
7F80
7F00
1E00
ENDCHAR
STARTCHAR 25D8
ENCODING 9688
SWIDTH 617 0
DWIDTH 12 0
BBX 12 12 0 0
BITMAP
FFF0
FFF0
FFF0
FFF0
F0F0
E0F0
E0F0
F0F0
FFF0
FFF0
FFF0
FFF0
ENDCHAR
STARTCHAR 25D9
ENCODING 9689
SWIDTH 617 0
DWIDTH 12 0
BBX 14 14 -1 0
BITMAP
FFFC
FCFC
E7BC
CFDC
DFEC
DFEC
BFEC
DFEC
DFEC
CFDC
E79C
F07C
FFFC
FFFC
ENDCHAR
STARTCHAR 25E6
ENCODING 9702
SWIDTH 514 0
DWIDTH 10 0
BBX 7 7 1 2
BITMAP
3C
46
82
82
82
46
3C
ENDCHAR
STARTCHAR 263A
ENCODING 9786
SWIDTH 1028 0
DWIDTH 20 0
BBX 14 14 3 0
BITMAP
0FC0
1060
6010
4008
8CC4
8CC4
8004
A024
9024
9FCC
4788
2010
1060
0F80
ENDCHAR
STARTCHAR 263B
ENCODING 9787
SWIDTH 1028 0
DWIDTH 20 0
BBX 14 14 3 0
BITMAP
07C0
1FF0
3FF8
7FF8
733C
F33C
FFFC
FFEC
EFDC
731C
7838
3FF8
1FF0
07C0
ENDCHAR
STARTCHAR 263C
ENCODING 9788
SWIDTH 925 0
DWIDTH 18 0
BBX 15 15 1 0
BITMAP
0100
0100
1108
1FF8
0C30
1818
1018
F00E
1018
1818
0C30
1FF8
318C
0100
0100
ENDCHAR
STARTCHAR 2640
ENCODING 9792
SWIDTH 771 0
DWIDTH 15 0
BBX 7 13 4 1
BITMAP
38
C4
82
82
82
C4
78
10
10
FE
10
10
10
ENDCHAR
STARTCHAR 2642
ENCODING 9794
SWIDTH 771 0
DWIDTH 15 0
BBX 11 11 2 3
BITMAP
03E0
00C0
00C0
0140
3E20
4600
8200
8200
8200
4400
3800
ENDCHAR
STARTCHAR 2660
ENCODING 9824
SWIDTH 514 0
DWIDTH 10 0
BBX 12 14 0 1
BITMAP
0400
0600
0F00
1F00
3FC0
7FE0
FFE0
FFF0
FFF0
FDE0
34C0
0600
0E00
3FC0
ENDCHAR
STARTCHAR 2663
ENCODING 9827
SWIDTH 668 0
DWIDTH 13 0
BBX 14 14 -1 0
BITMAP
0380
07C0
0FC0
0FE0
07C0
7FFC
FFFC
FFFC
FFFC
7DFC
3938
0300
0380
1FF0
ENDCHAR
STARTCHAR 2665
ENCODING 9829
SWIDTH 617 0
DWIDTH 12 0
BBX 12 14 0 -1
BITMAP
71E0
FBF0
FFF0
FFF0
FFF0
FFE0
7FE0
3FC0
3F80
1F80
0F00
0E00
0600
0400
ENDCHAR
STARTCHAR 2666
ENCODING 9830
SWIDTH 514 0
DWIDTH 10 0
BBX 10 14 0 0
BITMAP
0400
0E00
1E00
3F00
3F80
7F80
FFC0
FFC0
7F80
3F80
1F00
1E00
0C00
0400
ENDCHAR
STARTCHAR 266A
ENCODING 9834
SWIDTH 514 0
DWIDTH 10 0
BBX 8 14 1 0
BITMAP
08
08
0C
0C
0E
0A
0B
09
09
0A
7A
F0
F0
E0
ENDCHAR
STARTCHAR 266B
ENCODING 9835
SWIDTH 771 0
DWIDTH 15 0
BBX 10 13 2 0
BITMAP
1FC0
17C0
1040
1040
1040
1040
1040
1040
7040
F1C0
E3C0
03C0
0100
ENDCHAR
STARTCHAR 301A
ENCODING 12314
SWIDTH 720 0
DWIDTH 14 0
BBX 6 18 4 -3
BITMAP
FC
90
90
90
90
90
90
90
90
90
90
90
90
90
90
90
90
FC
ENDCHAR
STARTCHAR 301B
ENCODING 12315
SWIDTH 720 0
DWIDTH 14 0
BBX 6 18 4 -3
BITMAP
FC
24
24
24
24
24
24
24
24
24
24
24
24
24
24
24
24
FC
ENDCHAR
STARTCHAR EFBF
ENCODING 61375
SWIDTH 720 0
DWIDTH 14 0
BBX 17 16 -3 0
BITMAP
000080
000180
000180
000300
000600
000400
100C00
781800
983000
082000
086000
0CC000
058000
050000
070000
020000
ENDCHAR
STARTCHAR EFC0
ENCODING 61376
SWIDTH 720 0
DWIDTH 14 0
BBX 9 21 0 -4
BITMAP
0480
0480
0480
0480
0480
0480
0480
0480
0480
0480
0480
0480
0480
0480
0480
0480
0480
0480
0480
FF80
FF80
ENDCHAR
STARTCHAR EFC1
ENCODING 61377
SWIDTH 720 0
DWIDTH 14 0
BBX 9 21 0 -4
BITMAP
FF80
FF80
0480
0480
0480
0480
0480
0480
0480
0480
0480
0480
0480
0480
0480
0480
0480
0480
0480
0480
0480
ENDCHAR
STARTCHAR EFC2
ENCODING 61378
SWIDTH 720 0
DWIDTH 14 0
BBX 14 19 0 -5
BITMAP
FFFC
4008
4008
4008
4008
4008
4008
4008
4008
4008
4008
4008
4008
4008
4008
4008
4008
4008
4008
ENDCHAR
STARTCHAR EFC3
ENCODING 61379
SWIDTH 720 0
DWIDTH 14 0
BBX 14 19 0 -5
BITMAP
4008
4008
4008
4008
4008
4008
4008
4008
4008
4008
4008
4008
4008
4008
4008
4008
4008
4008
FFFC
ENDCHAR
STARTCHAR EFC4
ENCODING 61380
SWIDTH 720 0
DWIDTH 14 0
BBX 9 21 5 -4
BITMAP
9000
9000
9000
9000
9000
9000
9000
9000
9000
9000
9000
9000
9000
9000
9000
9000
9000
9000
9000
FF80
FF80
ENDCHAR
STARTCHAR EFC5
ENCODING 61381
SWIDTH 720 0
DWIDTH 14 0
BBX 9 21 5 -4
BITMAP
FF80
FF80
9000
9000
9000
9000
9000
9000
9000
9000
9000
9000
9000
9000
9000
9000
9000
9000
9000
9000
9000
ENDCHAR
STARTCHAR EFC6
ENCODING 61382
SWIDTH 720 0
DWIDTH 14 0
BBX 12 19 1 -5
BITMAP
1F80
70E0
4020
C030
8010
8010
8010
8010
8010
8010
8010
8010
8010
8010
8010
8010
8010
8010
8010
ENDCHAR
STARTCHAR EFC7
ENCODING 61383
SWIDTH 720 0
DWIDTH 14 0
BBX 12 19 1 -5
BITMAP
8010
8010
8010
8010
8010
8010
8010
8010
8010
8010
8010
8010
8010
8010
8010
C030
4020
30C0
1F80
ENDCHAR
STARTCHAR EFC8
ENCODING 61384
SWIDTH 720 0
DWIDTH 14 0
BBX 12 19 1 -5
BITMAP
8010
8010
8010
8010
8010
8010
8010
8010
8010
8010
8010
8010
8010
8010
8010
8010
8010
8010
8010
ENDCHAR
STARTCHAR EFC9
ENCODING 61385
SWIDTH 720 0
DWIDTH 14 0
BBX 4 21 5 -4
BITMAP
90
90
90
90
90
90
90
90
90
90
90
90
90
90
90
90
90
90
90
90
90
ENDCHAR
STARTCHAR EFCA
ENCODING 61386
SWIDTH 720 0
DWIDTH 14 0
BBX 10 12 2 -2
BITMAP
0800
0C00
0C00
1200
1200
2300
2100
4180
7F80
0000
0000
FFC0
ENDCHAR
STARTCHAR EFCB
ENCODING 61387
SWIDTH 720 0
DWIDTH 14 0
BBX 14 4 0 4
BITMAP
FFFC
0000
0000
FFFC
ENDCHAR
STARTCHAR EFCC
ENCODING 61388
SWIDTH 720 0
DWIDTH 14 0
BBX 9 21 6 -4
BITMAP
0100
0300
0300
0600
0C00
0800
1800
3000
6000
4000
C000
6000
2000
3000
1800
0C00
0400
0600
0300
0180
0100
ENDCHAR
STARTCHAR EFCD
ENCODING 61389
SWIDTH 720 0
DWIDTH 14 0
BBX 15 20 0 -4
BITMAP
8000
C000
4000
6000
3000
1800
1800
0C00
0600
0200
0300
0180
00C0
0040
0060
0030
0018
0018
000C
0006
ENDCHAR
STARTCHAR EFCE
ENCODING 61390
SWIDTH 720 0
DWIDTH 14 0
BBX 13 8 0 -4
BITMAP
0008
0018
0018
0038
0070
00F0
FFF0
FFE0
ENDCHAR
STARTCHAR EFCF
ENCODING 61391
SWIDTH 720 0
DWIDTH 14 0
BBX 9 21 -1 -4
BITMAP
4000
6000
6000
3000
1800
0800
0C00
0600
0300
0100
0180
0300
0200
0600
0C00
1800
1000
3000
6000
C000
4000
ENDCHAR
STARTCHAR EFD0
ENCODING 61392
SWIDTH 720 0
DWIDTH 14 0
BBX 12 7 0 10
BITMAP
FFE0
FFF0
00F0
0070
0030
0030
0010
ENDCHAR
STARTCHAR EFD1
ENCODING 61393
SWIDTH 720 0
DWIDTH 14 0
BBX 15 21 -1 -4
BITMAP
0002
0006
0006
000C
0018
0010
0030
0060
00C0
00C0
0180
0300
0600
0600
0C00
1800
1000
3000
6000
C000
4000
ENDCHAR
STARTCHAR EFD2
ENCODING 61394
SWIDTH 720 0
DWIDTH 14 0
BBX 15 21 0 -4
BITMAP
0006
000C
0008
0018
0030
0060
0040
00C0
0180
0100
0300
0600
0C00
0800
1800
3000
6000
4000
C000
FFFC
FFFC
ENDCHAR
STARTCHAR EFD3
ENCODING 61395
SWIDTH 720 0
DWIDTH 14 0
BBX 15 21 0 -4
BITMAP
FFFC
FFFC
C000
6000
3000
1000
1800
0C00
0400
0600
0300
0180
0080
00C0
0060
0030
0010
0018
000C
0006
0004
ENDCHAR
STARTCHAR EFD4
ENCODING 61396
SWIDTH 720 0
DWIDTH 14 0
BBX 9 19 3 -5
BITMAP
1800
1800
1800
1800
1800
3E00
D900
9900
9880
9880
9900
9900
5A00
3C00
1800
1800
1800
1800
1800
ENDCHAR
STARTCHAR EFD5
ENCODING 61397
SWIDTH 565 0
DWIDTH 11 0
BBX 10 14 1 -4
BITMAP
07C0
1980
3000
2000
2000
6000
7E00
6000
4000
4000
C000
C000
C000
8000
ENDCHAR
STARTCHAR EFD6
ENCODING 61398
SWIDTH 977 0
DWIDTH 19 0
BBX 14 7 2 6
BITMAP
FF8C
239C
23D4
2354
2354
2364
2324
ENDCHAR
STARTCHAR EFD7
ENCODING 61399
SWIDTH 977 0
DWIDTH 19 0
BBX 15 15 2 -1
BITMAP
07C0
1830
2008
4004
43C4
8462
8C02
8C02
8C02
8662
43C4
2004
2008
1830
07C0
ENDCHAR
STARTCHAR EFD8
ENCODING 61400
SWIDTH 977 0
DWIDTH 19 0
BBX 15 15 2 -1
BITMAP
07C0
1830
2008
4004
47C2
8662
8662
87C2
86C2
8642
4664
4004
2008
1830
07C0
ENDCHAR
STARTCHAR EFD9
ENCODING 61401
SWIDTH 977 0
DWIDTH 19 0
BBX 19 8 0 5
BITMAP
7F71E0
5951C0
995AC0
185AC0
184EC0
184CC0
1824C0
3CF5E0
ENDCHAR
STARTCHAR EFDA
ENCODING 61402
SWIDTH 977 0
DWIDTH 19 0
BBX 15 15 2 -1
BITMAP
07C0
1830
2008
43C4
4642
8402
8C02
8C02
8402
8642
4184
2004
2008
1830
07C0
ENDCHAR
STARTCHAR EFDB
ENCODING 61403
SWIDTH 977 0
DWIDTH 19 0
BBX 15 15 2 -1
BITMAP
07C0
1830
2008
4F84
4662
8262
8262
8382
8242
8652
4F64
4004
2008
1830
07C0
ENDCHAR
STARTCHAR EFDC
ENCODING 61404
SWIDTH 720 0
DWIDTH 14 0
BBX 6 21 2 -4
BITMAP
0C
0C
0C
0C
0C
0C
0C
0C
0C
0C
0C
0C
0C
0C
4C
CC
6C
3C
1C
1C
0C
ENDCHAR
STARTCHAR EFDD
ENCODING 61405
SWIDTH 720 0
DWIDTH 14 0
BBX 2 22 6 -5
BITMAP
C0
C0
C0
C0
C0
C0
C0
C0
C0
C0
C0
C0
C0
C0
C0
C0
C0
C0
C0
C0
C0
C0
ENDCHAR
STARTCHAR EFDE
ENCODING 61406
SWIDTH 720 0
DWIDTH 14 0
BBX 5 19 3 -5
BITMAP
18
18
18
18
18
18
18
18
18
18
18
18
18
18
18
18
10
30
C0
ENDCHAR
STARTCHAR EFDF
ENCODING 61407
SWIDTH 720 0
DWIDTH 14 0
BBX 6 19 6 -5
BITMAP
C0
C0
C0
C0
C0
C0
C0
60
30
0C
30
60
C0
C0
C0
C0
C0
C0
C0
ENDCHAR
STARTCHAR EFE0
ENCODING 61408
SWIDTH 720 0
DWIDTH 14 0
BBX 5 20 3 -5
BITMAP
80
60
30
18
18
18
18
18
18
18
18
18
18
18
18
18
18
18
18
18
ENDCHAR
STARTCHAR EFE1
ENCODING 61409
SWIDTH 720 0
DWIDTH 14 0
BBX 5 19 6 -5
BITMAP
C0
C0
C0
C0
C0
C0
C0
C0
C0
C0
C0
C0
C0
C0
C0
C0
60
60
18
ENDCHAR
STARTCHAR EFE2
ENCODING 61410
SWIDTH 720 0
DWIDTH 14 0
BBX 5 19 3 -5
BITMAP
18
18
18
18
18
18
18
30
60
80
60
10
18
18
18
18
18
18
18
ENDCHAR
STARTCHAR EFE3
ENCODING 61411
SWIDTH 720 0
DWIDTH 14 0
BBX 5 19 6 -5
BITMAP
38
60
60
C0
C0
C0
C0
C0
C0
C0
C0
C0
C0
C0
C0
C0
C0
C0
C0
ENDCHAR
STARTCHAR EFE4
ENCODING 61412
SWIDTH 720 0
DWIDTH 14 0
BBX 8 21 0 -4
BITMAP
03
03
03
03
03
03
03
03
03
03
03
03
03
03
03
03
03
03
03
FF
FF
ENDCHAR
STARTCHAR EFE5
ENCODING 61413
SWIDTH 720 0
DWIDTH 14 0
BBX 8 21 0 -4
BITMAP
FF
FF
03
03
03
03
03
03
03
03
03
03
03
03
03
03
03
03
03
03
03
ENDCHAR
STARTCHAR EFE6
ENCODING 61414
SWIDTH 720 0
DWIDTH 14 0
BBX 8 21 6 -4
BITMAP
C0
C0
C0
C0
C0
C0
C0
C0
C0
C0
C0
C0
C0
C0
C0
C0
C0
C0
C0
FF
FF
ENDCHAR
STARTCHAR EFE7
ENCODING 61415
SWIDTH 720 0
DWIDTH 14 0
BBX 8 21 6 -4
BITMAP
FF
FF
C0
C0
C0
C0
C0
C0
C0
C0
C0
C0
C0
C0
C0
C0
C0
C0
C0
C0
C0
ENDCHAR
STARTCHAR EFE8
ENCODING 61416
SWIDTH 720 0
DWIDTH 14 0
BBX 14 1 0 5
BITMAP
FFFC
ENDCHAR
STARTCHAR EFE9
ENCODING 61417
SWIDTH 720 0
DWIDTH 14 0
BBX 14 3 0 15
BITMAP
0070
FFFC
FFFC
ENDCHAR
STARTCHAR EFEA
ENCODING 61418
SWIDTH 720 0
DWIDTH 14 0
BBX 14 2 0 15
BITMAP
FFFC
FFFC
ENDCHAR
STARTCHAR EFEB
ENCODING 61419
SWIDTH 720 0
DWIDTH 14 0
BBX 14 2 0 -4
BITMAP
FFFC
FFFC
ENDCHAR
STARTCHAR EFEC
ENCODING 61420
SWIDTH 514 0
DWIDTH 10 0
BBX 9 10 1 0
BITMAP
1F00
3F80
6180
6000
7C00
E000
C000
C300
FF00
3C00
ENDCHAR
STARTCHAR EFFA
ENCODING 61434
SWIDTH 977 0
DWIDTH 19 0
BBX 14 14 3 0
BITMAP
0780
1FE0
3FF0
7FF8
FFF8
FFF8
FFFC
FFFC
FFF8
FFF8
7FF8
7FF0
3FE0
0F80
ENDCHAR
STARTCHAR EFFB
ENCODING 61435
SWIDTH 977 0
DWIDTH 19 0
BBX 14 14 3 0
BITMAP
FFFC
FFFC
FFFC
FFFC
FFFC
FFFC
FFFC
FFFC
FFFC
FFFC
FFFC
FFFC
FFFC
FFFC
ENDCHAR
STARTCHAR EFFC
ENCODING 61436
SWIDTH 977 0
DWIDTH 19 0
BBX 14 14 3 0
BITMAP
FFFC
8004
8004
8004
8004
8004
8004
8004
8004
8004
8004
8004
8004
FFFC
ENDCHAR
STARTCHAR EFFD
ENCODING 61437
SWIDTH 977 0
DWIDTH 19 0
BBX 14 14 3 0
BITMAP
0F80
3060
6010
4008
8008
8004
8004
8004
8004
8008
4008
6010
3020
0FC0
ENDCHAR
STARTCHAR EFFE
ENCODING 61438
SWIDTH 771 0
DWIDTH 15 0
BBX 13 14 1 0
BITMAP
03C0
0E70
3638
2618
6618
C618
C730
C7E0
C300
C300
C300
4300
6300
1C00
ENDCHAR
STARTCHAR EFFF
ENCODING 61439
SWIDTH 514 0
DWIDTH 10 0
BBX 9 9 0 5
BITMAP
1E00
6100
5280
B680
AE80
AE80
4A80
2100
1E00
ENDCHAR
STARTCHAR FB00
ENCODING 64256
SWIDTH 565 0
DWIDTH 11 0
BBX 10 14 0 0
BITMAP
18C0
3180
2180
2180
FBC0
2180
2180
2180
2180
2180
2180
2180
2180
2180
ENDCHAR
STARTCHAR FB01
ENCODING 64257
SWIDTH 514 0
DWIDTH 10 0
BBX 8 14 0 0
BITMAP
39
31
20
20
F9
21
21
21
21
21
21
21
21
21
ENDCHAR
STARTCHAR FB02
ENCODING 64258
SWIDTH 514 0
DWIDTH 10 0
BBX 8 14 0 0
BITMAP
39
31
21
21
F9
21
21
21
21
21
21
21
21
21
ENDCHAR
STARTCHAR FB03
ENCODING 64259
SWIDTH 771 0
DWIDTH 15 0
BBX 14 14 0 0
BITMAP
38CC
318C
2180
2180
FBCC
218C
218C
218C
218C
218C
218C
218C
218C
218C
ENDCHAR
STARTCHAR FB04
ENCODING 64260
SWIDTH 771 0
DWIDTH 15 0
BBX 14 14 0 0
BITMAP
38CC
318C
218C
218C
FBCC
218C
218C
218C
218C
218C
218C
218C
218C
218C
ENDCHAR
ENDFONT
